<?xml version="1.0" encoding="utf-8"?>
<svg viewBox="0 0 500 500" xmlns="http://www.w3.org/2000/svg">
  <circle cx="347.622" cy="160.127" r="47.797" fill="#ff6584" style=""/>
  <path d="M 478.731 195.765 C 478.838 195.746 478.916 195.673 479.039 195.692 C 478.984 195.484 478.916 195.282 478.83 195.086 C 478.677 195.294 478.522 195.505 478.386 195.69 L 478.731 195.765 Z" fill="#fff" style=""/>
  <path d="M 158.151 273.255 C 158.43 283.682 160.176 294.019 163.338 303.961 C 163.412 304.19 163.487 304.418 163.563 304.648 L 182.926 304.648 C 182.906 304.442 182.886 304.211 182.864 303.961 C 181.574 289.117 174.129 198.777 183.03 183.329 C 182.251 184.581 156.648 226.09 158.151 273.255 Z" fill="#e6e6e6" style=""/>
  <path d="M 159.602 303.961 C 159.766 304.19 159.934 304.42 160.106 304.648 L 174.631 304.648 C 174.521 304.452 174.394 304.222 174.247 303.961 C 171.847 299.629 164.744 286.678 158.151 273.255 C 151.065 258.828 144.564 243.854 145.111 238.434 C 144.943 239.658 140.04 276.918 159.602 303.961 Z" fill="#e6e6e6" style=""/>
  <path d="M 310.553 306.443 C 310.308 315.535 308.786 324.545 306.029 333.212 C 305.966 333.413 305.901 333.613 305.835 333.812 L 288.952 333.812 C 288.97 333.633 288.988 333.432 289.006 333.212 C 290.131 320.272 296.622 241.512 288.863 228.044 C 289.541 229.136 311.862 265.325 310.553 306.443 Z" fill="#e6e6e6" style=""/>
  <path d="M 309.285 333.212 C 309.145 333.413 308.997 333.615 308.848 333.812 L 296.183 333.812 C 296.279 333.641 296.39 333.44 296.519 333.212 C 298.611 329.435 304.804 318.147 310.553 306.443 C 316.731 293.866 322.398 280.811 321.92 276.086 C 322.067 277.151 326.342 309.637 309.285 333.212 Z" fill="#e6e6e6" style=""/>
  <path d="M 470.481 255.385 C 470.481 260.604 470.299 265.777 469.935 270.91 C 467.131 311.398 453.092 350.303 429.395 383.252 C 426.298 387.575 423.046 391.775 419.641 395.853 C 410.814 406.44 401.013 416.174 390.369 424.93 L 343.71 397.551 L 315.814 332.441 C 315.814 332.441 357.438 248.162 470.406 249.691 C 470.453 251.581 470.477 253.48 470.481 255.385 Z" fill="#3f3d56" style=""/>
  <path d="M 469.935 270.91 C 465.596 332.078 435.863 388.643 387.94 426.903 L 344.593 401.469 L 319.853 343.723 C 319.853 343.723 359.942 262.555 469.935 270.91 Z" fill="#11c3a9" style=""/>
  <path d="M 429.395 383.252 C 426.298 387.575 423.046 391.775 419.641 395.853 C 396.815 423.279 367.65 444.726 334.67 458.341 C 327.992 461.094 321.156 463.522 314.165 465.625 C 263.675 479.052 210.187 475.655 161.799 455.951 C 113.947 434.593 75.277 396.874 52.735 349.566 C 49.706 343.197 46.982 336.668 44.562 329.975 C 86.752 299.07 169.885 254.812 260.49 297.818 C 285.554 309.713 307.933 320.556 327.628 330.345 C 377.607 355.12 410.869 372.979 429.395 383.252 Z" fill="#3f3d56" style=""/>
  <path d="M 419.641 395.853 C 317.044 518.814 121.579 494.155 52.735 349.566 C 87.97 321.702 169.239 271.63 258.423 313.953 C 281.358 324.838 301.837 334.762 319.853 343.723 C 372.375 369.754 404.729 387.446 419.641 395.853 Z" fill="#11c3a9" style=""/>
  <path d="M 357.451 447.361 C 350.072 451.451 342.466 455.117 334.67 458.341 C 308.138 469.274 279.715 474.882 251.019 474.847 C 182.182 474.82 117.336 442.525 75.84 387.601 C 128.255 382.075 273.139 374.622 357.451 447.361 Z" fill="#3f3d56" style=""/>
  <path d="M 334.67 458.341 C 250.445 492.972 153.586 472.053 91.161 405.751 C 110.227 402.95 259.904 383.718 334.67 458.341 Z" fill="#11c3a9" style=""/>
  <path d="M 433.67 133.684 L 433.67 133.692 C 276.964 17.829 97.421 99.379 96.034 100.005 L 96.034 99.998 C 137.136 58.903 192.897 35.851 251.019 35.925 C 327.204 35.925 394.322 74.747 433.67 133.684 Z" fill="#e6e6e6" style=""/>
  <ellipse cx="334.364" cy="330.602" rx="48.774" ry="99.518" transform="matrix(0.984132, -0.177437, 0.177437, 0.984132, -296.772539, -104.327282)" fill="#3f3d56" style=""/>
  <path d="M 115.418 322.81 C 113.846 204.001 74.094 92.507 73.692 91.395 L 70.067 92.702 C 70.466 93.809 110 204.72 111.564 322.863 L 115.418 322.81 Z" fill="#11c3a9" style=""/>
  <rect x="187.273" y="180.748" width="3.855" height="50.018" transform="matrix(0.307707, -0.951481, 0.951481, 0.307707, -185.899567, 274.49649)" fill="#11c3a9" style=""/>
  <rect x="212.102" y="207.207" width="50.019" height="3.855" transform="matrix(0.78393, -0.62085, 0.62085, 0.78393, -199.715286, 144.430908)" fill="#11c3a9" style=""/>
  <ellipse cx="236.072" cy="134.822" rx="52.779" ry="107.689" fill="#3f3d56" style=""/>
  <path d="M 231.198 311.092 C 252.337 184.267 231.411 57.901 231.198 56.641 L 227.086 57.337 C 227.298 58.591 248.103 184.294 227.085 310.408 L 231.198 311.092 Z" fill="#11c3a9" style=""/>
  <rect x="331.508" y="147.176" width="4.172" height="54.124" transform="matrix(0.471652, -0.881785, 0.881785, 0.471652, -98.494095, 338.248077)" fill="#11c3a9" style=""/>
  <rect x="356.904" y="184.947" width="54.126" height="4.172" transform="matrix(0.88165, -0.471904, 0.471904, 0.88165, -163.926224, 155.362701)" fill="#11c3a9" style=""/>
  <path d="M 465.324 207.871 C 445.958 197 425.728 187.75 404.836 180.217 C 289.323 138.418 174.779 154.529 129.944 214.347 C 164.835 141.063 289.336 118.02 414.974 163.481 C 429.598 168.767 443.909 174.881 457.837 181.792 C 460.872 190.321 463.372 199.032 465.324 207.871 Z" fill="#e6e6e6" style=""/>
  <path d="M 309.315 89.943 L 317.188 83.647 C 311.072 82.972 308.559 86.307 307.53 88.947 C 302.752 86.964 297.551 89.564 297.551 89.564 L 313.303 95.282 C 312.507 93.159 311.125 91.309 309.315 89.943 Z" fill="#3f3d56" style=""/>
</svg>