<?xml version="1.0" encoding="utf-8"?>
<svg viewBox="0 0 500 500" xmlns="http://www.w3.org/2000/svg" xmlns:bx="https://boxy-svg.com">
  <defs>
    <bx:grid x="0" y="0" width="102.861" height="96.339"/>
  </defs>
  <g transform="matrix(1, 0, 0, 1, -53.213573, 6.96413)">
    <path d="m339.28132,144.85552c-1.7577,2.08666-3.98893,3.72206-6.50814,4.76945l-7.21532,8.12517-20.43689,24.67773-13.80738,8.35194-6.41109-11.03715,30.26457-29.48015,8.43338-8.58048c.67621-2.64418,1.97584-5.08773,3.79079-7.1256,4.4675-5.16172,10.75245-7.03932,14.03602-4.19587,3.28421,2.84414,2.32391,9.33233-2.14593,14.49496Z" fill="#ffafaf"/>
    <path d="m215.75649,169.37563l13.29016-22.11774,56.5433,24.29522,30.90638-25.25171s12.2617,10.56233,12.69962,10.93955-31.16616,44.15089-33.41028,44.09926c-2.24412-.05162-80.02919-31.96459-80.02919-31.96459Z" fill="#dedede"/>
  </g>
  <g transform="matrix(1, 0, 0, 1, -53.213573, 6.96413)">
    <path d="m343.37799,0c40.25244,0,73,30.72852,73,68.5,0,10.55371-2.62939,21.05078-7.61865,30.46875h.06006l-1.32129,2.29688c-11.2124,19.31543-17.43848,41.3125-18.00342,63.61133-.17139,6.79785-5.6333,12.12305-12.43359,12.12305h-56.88623c-7.33008,0-13.48633-5.25439-14.6377-12.49316-2.80176-17.6123-8.40527-34.58301-16.65332-50.44238-11.93457-12.55957-18.50586-28.73633-18.50586-45.56445C270.37799,30.72852,303.12604,0,343.37799,0Zm62.35107,100.3291l.47314-.85156c5.34863-9.49414,8.17578-20.20605,8.17578-30.97754,0-36.66797-31.85059-66.5-71-66.5s-71,29.83203-71,66.5c0,16.3584,6.41016,32.08594,18.05078,44.28711l.16309.22852c8.38379,16.08594,14.07715,33.30469,16.91992,51.17676.99609,6.26221,6.32227,10.80762,12.66309,10.80762h56.88623c5.70703,0,10.29004-4.46875,10.43457-10.17383.57227-22.60645,6.87695-44.90723,18.2334-64.49707Z" fill="#3f3d56"/>
    <path d="m384.93105,172.00015h-75.10596c-2.38802,0-4.26057,2.0505-4.04437,4.42871l.70322,7.73563c.58849,6.4735,2.63111,12.73056,5.97549,18.3044h0c.55924.93206,1.61518,1.44245,2.69433,1.31238,22.25527-2.68252,44.03088-2.77033,65.28482-.03885,1.16266.14942,2.29074-.44478,2.81498-1.49325l.48135-.9627c2.40753-4.81506,3.8933-10.03792,4.38068-15.39922l.85983-9.45839c.2162-2.37821-1.65635-4.42871-4.04437-4.42871Z" fill="#3f3d56"/>
    <path d="m317.37807,198.50015h61.5v40.02791c0,7.15949-5.8126,12.97209-12.97209,12.97209h-35.55581c-7.15949,0-12.97209-5.8126-12.97209-12.97209v-40.02791h0Z" fill="#3f3d56"/>
    <path d="m356.04202,262.00015h-13.32791c-1.466,0-2.84175-.70799-3.69384-1.90092l-8.6422-12.09908h38l-8.6422,12.09908c-.85209,1.19293-2.22785,1.90092-3.69384,1.90092Z" fill="#3f3d56"/>
    <path d="m366.12615,35.32647c-9.78508,2.02614-19.57015,4.05229-29.35523,6.07843-4.40004.91109-9.32793,1.38395-13.32571,3.57071-3.87589,2.12009-6.59038,6.56839-5.20384,11.0215,1.32408,4.25251,5.23235,6.92014,9.42433,7.86845,4.65106,1.05217,9.63356,1.04475,14.37444,1.41071,4.9449.38171,9.8898.76341,14.8347,1.14512,2.35337.18166,4.71905.30711,7.06693.54884.751.07732,1.56979.16944,2.18644.64589-.0093-.00719.20836.12917.08769.15012-.02354.00409-.02548-.1543-.02207-.16491.09529-.29674.05612-.01596-.02075-.01525-.02699.00025-.73526.46812-1.13042.54199-1.06603.1993-2.24216.05431-3.32237.03591-2.34708-.03998-4.69541.00436-7.03935.13214-4.71747.25718-9.42845.84396-14.06835,1.73284-4.56402.87434-9.10646,2.03846-13.48968,3.58913-4.24986,1.5035-8.70105,4.35866-8.81664,9.39621-.10856,4.73132,3.996,8.0562,8.17609,9.24474,2.14995.6113,4.41565.83289,6.62081,1.16093,2.46033.366,4.92067.732,7.381,1.098,4.83866.7198,9.67731,1.4396,14.51597,2.15939,2.46033.366,4.92067.732,7.381,1.098,1.14726.17067,2.30106.3178,3.44447.5124.42158.07175.8192.20433,1.23503.28965-.27921-.05729.06722-.05682.01.00821.18217.11163.18258.09478.00123-.05057l-.12357-.18156c-.28234-.79255-.27258-.89695.2426-1.8342.09836-.17895.29818.00572.04346-.02243-.27188-.03004.16303-.03404-.12656.08556-.14478.05979-.30217.10049-.45291.14219-1.13922.31519-2.33285.47986-3.4924.70755-2.41053.47332-4.82107.94664-7.2316,1.41996-4.74071.93086-9.48148,1.86146-14.22214,2.79259-8.35115,1.64029-17.22027,3.8587-22.225,11.39391-1.08873,1.63921-1.87883,3.52803-2.27347,5.45482-.3248,1.58578.45984,3.24097,2.09532,3.69036,1.48351.40763,3.36372-.50056,3.69036-2.09532,1.58533-7.74015,10.055-10.51989,17.02006-11.99627,4.61722-.97871,9.26281-1.83505,13.89412-2.74444,4.66759-.91651,9.40939-1.66266,14.0371-2.76137,1.9455-.4619,4.05633-1.65799,4.60012-3.7324.59537-2.27118-.52565-4.46368-2.5843-5.52174-1.97445-1.01478-4.3215-1.09484-6.47893-1.41577-2.37832-.3538-4.75665-.7076-7.13497-1.0614-4.83866-.7198-9.67731-1.4396-14.51597-2.15939-2.37832-.3538-4.75665-.7076-7.13497-1.0614-2.20524-.32805-4.47061-.54956-6.62081-1.16093-1.45474-.41363-2.94324-1.12339-3.58581-2.50851-.20717-.44658-.26047-.7716-.119-1.27388.19418-.68946.73416-1.33156,1.3351-1.80673,1.38526-1.09533,3.26028-1.58401,4.90692-2.1123,2.16064-.6932,4.34524-1.31168,6.54859-1.85409,4.37442-1.07688,8.82057-1.86498,13.30492-2.30181,2.33636-.22759,4.68064-.37227,7.02727-.43316,2.22033-.05761,4.44462.07999,6.66212.0113,2.36368-.07321,4.7965-.70515,6.41923-2.53748,1.66997-1.88567,2.07596-4.4605.91412-6.72101-2.29915-4.47333-8.39123-4.03382-12.63808-4.36164-4.86248-.37534-9.72497-.75069-14.58745-1.12603-4.54681-.35098-9.22151-.4249-13.72887-1.12463-1.66926-.25914-3.59306-.73621-4.85191-1.73087-1.15405-.91186-1.9032-2.10742-1.81149-3.30544.08531-1.1144,1.22331-2.34531,2.41464-3.02936,1.67141-.95972,3.64349-1.31787,5.51016-1.70703,9.60699-2.00283,19.21945-3.97979,28.82914-5.96962,2.36473-.48965,4.72945-.9793,7.09418-1.46895,1.58727-.32867,2.50472-2.20063,2.09532-3.69036-.45286-1.64789-2.09848-2.42494-3.69036-2.09532h0Z" fill="#11c3a9"/>
  </g>
  <rect x="167.16" y="137.965" width="19.652" height="38.147" fill="#ffafaf"/>
  <path d="M 219.256 244.263 L 171.861 240.795 C 171.861 240.795 152.209 285.878 167.237 314.778 L 177.641 374.889 L 173.526 473.827 L 195.053 473.827 L 228.504 314.778 L 219.256 244.263 Z" fill="#2f2e41"/>
  <polygon points="210.008 294.756 228.504 310.855 219.256 468.523 198.448 468.523 210.008 294.756" fill="#2f2e41"/>
  <circle cx="176.721" cy="120.896" r="24.569" fill="#ffafaf"/>
  <path d="M 173.778 450.346 L 199.157 454.356 L 203.927 472.562 C 203.927 472.562 224.534 480.316 214.605 488.743 C 204.676 497.17 167.994 492.813 165.094 486.768 C 162.194 480.724 173.778 450.346 173.778 450.346 Z" fill="#2f2e41"/>
  <path d="M 194.586 450.346 L 219.965 454.356 L 224.735 472.562 C 224.735 472.562 245.342 480.316 235.413 488.743 C 225.484 497.17 188.802 492.813 185.902 486.768 C 183.002 480.724 194.586 450.346 194.586 450.346 Z" fill="#2f2e41"/>
  <path d="M 264.699 240.353 C 261.971 240.383 259.276 239.76 256.838 238.535 L 245.973 238.371 L 213.938 238.993 L 198.598 233.983 L 202.776 221.922 L 244.865 225.612 L 256.87 226.401 C 259.314 225.188 262.014 224.578 264.743 224.623 C 271.569 224.639 277.094 228.175 277.082 232.519 C 277.071 236.863 271.528 240.37 264.699 240.353 Z" fill="#ffafaf"/>
  <path d="M 188.622 152.363 L 164.301 152.363 L 156.255 176.638 L 171.861 240.795 L 219.256 244.263 L 216.366 218.254 C 221.961 209.161 221.515 197.59 215.235 188.956 L 188.622 152.363 Z" fill="#dedede"/>
  <path d="M 165.503 162.767 L 190.934 158.401 L 209.43 217.098 L 248.733 224.034 L 248.733 240.795 C 248.733 241.373 194.941 245.997 193.516 244.263 C 192.09 242.529 165.503 162.767 165.503 162.767 Z" fill="#dedede"/>
  <path d="M 188.989 106.652 C 192.007 111.548 189.224 117.998 185.506 122.386 C 181.788 126.775 176.994 130.627 175.334 136.134 C 173.845 141.072 175.199 146.397 176.95 151.248 C 178.7 156.099 180.876 160.935 181.057 166.089 C 181.237 171.243 178.798 176.935 173.943 178.674 C 168.962 180.46 163.072 177.654 158.274 179.886 C 152.024 182.793 150.608 192.858 143.794 193.901 C 139.601 194.544 135.715 190.908 134.543 186.831 C 133.371 182.754 134.213 178.403 135.06 174.246 C 137.381 162.857 139.702 151.469 142.023 140.08 C 143.954 130.604 145.885 121.128 147.817 111.652 C 148.97 105.994 150.338 99.942 154.59 96.036 C 159.786 91.263 167.617 91.149 174.667 91.436 C 181.144 91.698 187.883 92.142 193.521 95.339 C 199.16 98.537 203.301 105.335 201.35 111.516 C 199.528 107.166 194.083 104.725 189.623 106.259" fill="#2f2e41"/>
</svg>