<?xml version="1.0" encoding="utf-8"?>
<svg viewBox="0 0 500 500" xmlns="http://www.w3.org/2000/svg">
  <path d="M 446.729 408.827 L 151.215 408.827 C 147.401 408.823 144.31 405.732 144.306 401.918 L 144.306 200.129 C 144.31 196.313 147.401 193.222 151.215 193.218 L 446.729 193.218 C 450.543 193.222 453.635 196.313 453.64 200.129 L 453.64 401.918 C 453.635 405.732 450.543 408.823 446.729 408.827 Z" fill="#fff" style=""/>
  <path d="M 446.729 408.827 L 151.215 408.827 C 147.401 408.823 144.31 405.732 144.306 401.918 L 144.306 200.129 C 144.31 196.313 147.401 193.222 151.215 193.218 L 446.729 193.218 C 450.543 193.222 453.635 196.313 453.64 200.129 L 453.64 401.918 C 453.635 405.732 450.543 408.823 446.729 408.827 Z M 151.215 194.754 C 148.249 194.757 145.845 197.161 145.84 200.129 L 145.84 401.918 C 145.845 404.884 148.249 407.289 151.215 407.291 L 446.729 407.291 C 449.696 407.289 452.101 404.884 452.104 401.918 L 452.104 200.129 C 452.101 197.161 449.696 194.757 446.729 194.754 L 151.215 194.754 Z" fill="#3f3d56" style=""/>
  <path d="M 333.18 407.613 L 264.765 407.613 L 264.765 294.351 C 264.771 288.758 269.303 284.226 274.897 284.219 L 323.048 284.219 C 328.641 284.226 333.174 288.758 333.18 294.351 L 333.18 407.613 Z" fill="#e6e6e6" style=""/>
  <path d="M 430.613 150.205 L 391.542 150.205 L 391.542 84.909 C 391.546 81.095 394.638 78.004 398.453 78 L 423.702 78 C 427.517 78.004 430.609 81.095 430.613 84.909 L 430.613 150.205 Z" fill="#fff" style=""/>
  <path d="M 430.613 150.205 L 391.542 150.205 L 391.542 84.909 C 391.546 81.095 394.638 78.004 398.453 78 L 423.702 78 C 427.517 78.004 430.609 81.095 430.613 84.909 L 430.613 150.205 Z M 393.078 148.669 L 429.077 148.669 L 429.077 84.909 C 429.073 81.943 426.67 79.539 423.702 79.535 L 398.453 79.535 C 395.485 79.539 393.081 81.943 393.078 84.909 L 393.078 148.669 Z" fill="#3f3d56" style=""/>
  <path d="M 235.868 317.119 L 178.076 317.119 C 173.277 317.115 169.387 313.225 169.382 308.424 L 169.382 260.78 C 169.387 255.981 173.277 252.092 178.076 252.086 L 235.868 252.086 C 240.667 252.092 244.557 255.981 244.562 260.78 L 244.562 308.424 C 244.558 313.225 240.668 317.115 235.868 317.119 Z" fill="#e6e6e6" style=""/>
  <path d="M 421.205 317.119 L 363.413 317.119 C 358.614 317.115 354.725 313.225 354.719 308.424 L 354.719 260.78 C 354.725 255.981 358.614 252.092 363.413 252.086 L 421.205 252.086 C 426.004 252.092 429.894 255.981 429.9 260.78 L 429.9 308.424 C 429.895 313.225 426.004 317.115 421.205 317.119 Z" fill="#e6e6e6" style=""/>
  <path d="M 122.242 197.369 L 122.242 166.322 C 122.242 161.467 124.844 156.984 129.057 154.576 L 301.559 55.982 C 305.923 53.487 311.311 53.619 315.549 56.321 L 469.449 154.482 C 473.345 156.966 475.702 161.268 475.702 165.888 L 475.702 197.369 C 475.702 204.841 469.645 210.899 462.173 210.899 L 135.771 210.899 C 128.299 210.899 122.242 204.841 122.242 197.369 Z" fill="#11c3a9" style=""/>
  <path d="M 462.173 197.076 L 135.771 197.076 C 128.299 197.076 122.242 191.018 122.242 183.546 L 122.242 195.83 C 122.242 203.303 128.299 209.36 135.771 209.36 L 462.173 209.36 C 469.645 209.36 475.702 203.303 475.702 195.83 L 475.702 183.546 C 475.702 191.018 469.645 197.076 462.173 197.076 Z" opacity="0.2" style=""/>
  <path d="M 354.719 337.789 C 354.719 313.98 374.019 257.484 397.828 257.484 C 421.636 257.484 440.936 313.98 440.936 337.789 C 440.936 370.974 405.012 391.715 376.273 375.122 C 362.936 367.421 354.719 353.191 354.719 337.789 Z" fill="#f2f2f2" style=""/>
  <path d="M 397.828 442.383 C 397.404 442.383 397.059 442.038 397.059 441.614 L 397.059 286.822 C 397.059 286.23 397.7 285.86 398.212 286.156 C 398.45 286.294 398.595 286.548 398.595 286.822 L 398.595 441.614 C 398.595 442.038 398.253 442.383 397.828 442.383 Z" fill="#3f3d56" style=""/>
  <path d="M 397.828 355.466 C 397.237 355.466 396.867 354.827 397.162 354.315 C 397.194 354.261 397.23 354.212 397.272 354.168 L 419.186 331.172 C 419.594 330.744 420.312 330.918 420.478 331.486 C 420.557 331.748 420.487 332.032 420.299 332.231 L 398.383 355.228 C 398.239 355.379 398.038 355.466 397.828 355.466 Z" fill="#3f3d56" style=""/>
  <path d="M 397.828 316.694 C 397.636 316.694 397.45 316.623 397.31 316.492 L 378.372 299.179 C 377.934 298.781 378.092 298.059 378.655 297.879 C 378.917 297.795 379.204 297.859 379.407 298.044 L 398.345 315.36 C 398.782 315.758 398.622 316.481 398.06 316.658 C 397.984 316.682 397.906 316.694 397.828 316.694 Z" fill="#3f3d56" style=""/>
  <path d="M 12.84 288.876 C 12.84 253.854 41.233 170.746 76.256 170.746 C 111.278 170.746 139.671 253.854 139.671 288.876 C 139.671 337.693 86.825 368.204 44.548 343.796 C 24.927 332.467 12.84 311.532 12.84 288.876 Z" fill="#11c3a9" style=""/>
  <path d="M 76.256 442.376 C 75.831 442.376 75.488 442.032 75.488 441.609 L 75.488 213.902 C 75.488 213.311 76.129 212.941 76.639 213.237 C 76.877 213.373 77.023 213.627 77.023 213.902 L 77.023 441.609 C 77.023 442.032 76.68 442.376 76.256 442.376 Z" fill="#3f3d56" style=""/>
  <path d="M 76.256 314.518 C 75.664 314.518 75.295 313.879 75.59 313.365 C 75.621 313.313 75.657 313.265 75.699 313.22 L 107.937 279.392 C 108.344 278.964 109.062 279.138 109.229 279.705 C 109.306 279.968 109.238 280.252 109.049 280.451 L 76.812 314.279 C 76.667 314.431 76.466 314.518 76.256 314.518 Z" fill="#3f3d56" style=""/>
  <path d="M 76.256 257.484 C 76.063 257.484 75.879 257.413 75.737 257.282 L 47.878 231.812 C 47.443 231.413 47.603 230.691 48.165 230.513 C 48.426 230.43 48.712 230.494 48.915 230.678 L 76.774 256.15 C 77.21 256.548 77.051 257.269 76.488 257.448 C 76.413 257.472 76.334 257.484 76.256 257.484 Z" fill="#3f3d56" style=""/>
  <path d="M 367.713 442.306 C 367.786 442.363 367.863 442.413 367.937 442.469 L 430.365 442.469 C 431.588 437.511 432.02 432.55 430.193 428.241 C 427.589 422.102 419.885 418.269 413.759 420.905 C 412.307 421.548 411.044 422.549 410.086 423.813 C 407.693 419.528 403.398 416.296 398.441 416.301 C 392.232 416.305 387.069 421.384 385.384 427.249 C 382.672 422.669 377.313 419.468 372.075 420.846 C 363.313 423.149 360.546 436.767 367.713 442.306 Z" fill="#e6e6e6" style=""/>
  <path d="M 15.691 442.135 C 15.838 442.248 15.993 442.351 16.141 442.463 L 142.167 442.463 C 144.635 432.457 145.508 422.441 141.82 413.742 C 136.564 401.348 121.011 393.612 108.644 398.935 C 105.715 400.23 103.164 402.249 101.229 404.801 C 96.397 396.152 87.728 389.631 77.722 389.637 C 65.187 389.647 54.764 399.898 51.363 411.738 C 45.887 402.494 35.068 396.033 24.495 398.813 C 6.808 403.461 1.222 430.953 15.691 442.135 Z" fill="#e6e6e6" style=""/>
  <path d="M 264.629 369.8 C 265.293 367.215 263.458 364.66 260.799 364.461 L 236.416 333.977 L 230.383 339.6 L 256.14 368.719 C 256.111 372.036 259.685 374.14 262.571 372.506 C 263.599 371.924 264.343 370.947 264.629 369.8 Z" fill="#ffb8b8" style=""/>
  <path d="M 241.093 338.82 L 233.388 344.721 C 232.455 345.433 231.108 345.153 230.538 344.126 L 225.843 335.665 C 223.366 332.389 225.363 327.658 229.44 327.149 C 231.321 326.914 233.185 327.696 234.338 329.2 L 241.263 335.913 C 242.104 336.731 242.024 338.106 241.093 338.82 Z" fill="#3f3d56" style=""/>
  <circle cx="228.152" cy="310.617" r="9.798" fill="#ffb8b8" style=""/>
  <polygon points="249.069 437.72 253.96 437.72 253.495 428.566 246.275 428.566 249.069 437.72" fill="#ffb8b8" style=""/>
  <path d="M 247.821 436.125 L 257.454 436.123 C 260.844 436.123 263.592 438.873 263.592 442.263 L 263.592 442.461 L 247.821 442.463 L 247.821 436.125 Z" fill="#2f2e41" style=""/>
  <polygon points="196.92 430.797 201.082 433.366 205.497 425.333 200.462 422.183 196.92 430.797" fill="#ffb8b8" style=""/>
  <path d="M 196.698 428.782 L 204.892 433.845 C 207.777 435.626 208.672 439.408 206.889 442.293 L 206.785 442.463 L 193.367 434.174 L 196.698 428.782 Z" fill="#2f2e41" style=""/>
  <path d="M 248.715 435.037 C 247.971 435.037 247.303 434.576 247.04 433.88 L 229.349 391.58 C 229.189 391.147 228.621 391.05 228.326 391.403 C 228.315 391.419 228.302 391.435 228.291 391.451 L 203.986 429.739 C 203.494 430.477 202.537 430.743 201.736 430.366 L 198.409 428.814 C 197.523 428.396 197.133 427.348 197.532 426.453 L 217.443 382.065 C 217.01 381.008 212.767 370.145 219.284 364.78 L 219.33 364.751 L 236.999 356.87 L 237.444 370.423 L 255.057 431.529 C 255.337 432.499 254.764 433.507 253.788 433.762 L 249.176 434.978 C 249.025 435.017 248.871 435.037 248.715 435.037 Z" fill="#2f2e41" style=""/>
  <path d="M 237.266 337.043 C 236.594 334.343 235.64 331.62 234.362 330.364 C 233.893 329.905 233.45 329.419 233.04 328.907 C 232.18 327.825 231.098 326.937 229.868 326.308 C 230.318 326.057 230.581 325.758 230.581 325.436 C 230.581 324.556 228.618 323.841 226.193 323.841 C 223.769 323.841 221.804 324.556 221.804 325.436 C 221.817 325.644 221.91 325.837 222.065 325.974 C 218.84 327.29 216.614 330.291 216.292 333.761 C 215.726 339.831 215.559 347.59 217.546 352.498 C 219.213 356.557 219.345 361.083 217.919 365.233 C 217.53 366.396 218.545 367.544 219.748 367.301 C 219.843 367.281 219.938 367.251 220.029 367.215 L 237.562 360.149 C 238.165 359.906 238.561 359.321 238.561 358.67 L 238.561 347.939 C 238.574 344.267 238.14 340.608 237.266 337.043 Z" fill="#3f3d56" style=""/>
  <path d="M 203.72 381.24 C 206.319 380.636 207.741 377.83 206.691 375.376 L 220.408 339.201 L 213.452 337.406 L 200.763 373.208 C 197.808 374.713 197.589 378.854 200.37 380.661 C 201.361 381.305 202.572 381.514 203.72 381.24 Z" fill="#ffb8b8" style=""/>
  <path d="M 220.351 346.065 L 211.561 341.951 C 210.499 341.454 210.125 340.128 210.773 339.149 L 216.116 331.081 C 217.883 327.373 223.002 326.968 225.33 330.353 C 226.402 331.912 226.57 333.921 225.769 335.635 L 223.007 344.876 C 222.672 346 221.414 346.563 220.351 346.065 Z" fill="#3f3d56" style=""/>
  <path d="M 237.153 308.205 C 237.595 308.258 238.042 308.178 238.438 307.973 C 239.16 307.5 239.09 306.426 238.845 305.596 C 237.607 301.56 234.394 298.436 230.326 297.306 C 228.931 296.936 227.166 296.951 226.368 298.153 C 222.223 295.393 216.685 296.074 213.332 299.754 C 211.746 301.615 210.689 303.867 210.271 306.275 C 209.433 310.378 205.848 318.839 207.835 322.526 C 209.156 324.978 215.239 323.067 217.813 324.135 C 220.415 325.267 223.411 325.026 225.798 323.49 C 228.161 321.86 229.178 318.877 228.305 316.144 C 227.853 315.165 227.336 314.22 226.75 313.315 C 226.164 312.398 225.925 311.303 226.075 310.226 C 226.437 308.587 234.17 308.144 237.153 308.205 Z" fill="#2f2e41" style=""/>
</svg>