<?xml version="1.0" encoding="utf-8"?>
<svg viewBox="0 0 500 500" xmlns="http://www.w3.org/2000/svg">
  <path d="M 215.389 296.863 C 215.389 290.336 190.819 285.044 160.512 285.044 C 130.205 285.044 105.635 290.336 105.635 296.863 C 105.635 301.047 115.736 304.72 130.964 306.821 L 130.964 371.581 C 130.964 375.804 135.537 378.445 139.194 376.332 C 140.893 375.352 141.938 373.54 141.938 371.581 L 141.938 307.987 C 147.74 308.437 153.992 308.683 160.512 308.683 C 167.032 308.683 173.284 308.437 179.086 307.987 L 179.086 371.581 C 179.086 375.804 183.659 378.445 187.318 376.332 C 189.015 375.352 190.061 373.54 190.061 371.581 L 190.061 306.821 C 205.289 304.72 215.389 301.047 215.389 296.863 Z" fill="#ccc" style=""/>
  <polygon points="204.83 366.45 215.18 366.45 220.104 326.527 204.828 326.527 204.83 366.45" fill="#a0616a" style=""/>
  <path d="M 202.612 363.493 L 235.141 363.493 C 235.141 363.493 235.141 363.493 235.141 363.493 L 235.141 376.061 C 235.141 376.061 235.141 376.061 235.141 376.061 L 215.179 376.061 C 208.239 376.061 202.612 370.435 202.612 363.493 C 202.612 363.493 202.612 363.493 202.612 363.493 Z" fill="#2f2e41" style="transform-origin: 218.876px 369.777px;" transform="matrix(-1, 0.000046000008, -0.000046000008, -1, 0.000019063162, -0.00000248018)"/>
  <polygon points="220.987 360.674 230.862 357.575 223.609 318.009 209.033 322.582 220.987 360.674" fill="#a0616a" style=""/>
  <path d="M 219.121 353.358 L 251.65 353.358 C 251.65 353.358 251.65 353.358 251.65 353.358 L 251.65 365.926 C 251.65 365.926 251.65 365.926 251.65 365.926 L 231.688 365.926 C 224.748 365.926 219.121 360.299 219.121 353.358 C 219.121 353.358 219.121 353.358 219.121 353.358 Z" fill="#2f2e41" style="transform-origin: 235.385px 359.642px;" transform="matrix(-0.954122245312, 0.299418061972, -0.299418061972, -0.954122245312, 0.000004658582, 0.000023765247)"/>
  <path d="M 214.063 342.297 L 195.128 292.595 C 190.88 293.593 155.257 301.476 143.325 288.773 C 139.236 284.419 138.439 278.11 140.955 270.023 L 147.919 261.274 L 148.135 261.284 C 150.766 261.423 212.665 264.893 216.908 283.564 C 220.487 299.305 227.02 328.652 228.937 337.271 C 229.339 339.118 228.328 340.979 226.561 341.648 L 218.947 344.503 C 218.523 344.662 218.073 344.745 217.62 344.745 C 216.041 344.745 214.628 343.771 214.063 342.297 Z" fill="#2f2e41" style=""/>
  <path d="M 203.087 348.208 L 184.152 298.505 C 179.905 299.503 144.281 307.386 132.35 294.683 C 128.261 290.329 127.464 284.02 129.979 275.933 L 136.943 267.184 L 137.159 267.194 C 139.791 267.333 201.69 270.803 205.933 289.473 C 209.511 305.215 216.045 334.562 217.961 343.181 C 218.363 345.027 217.352 346.888 215.586 347.557 L 207.971 350.413 C 207.547 350.572 207.098 350.655 206.645 350.655 C 205.066 350.655 203.652 349.681 203.087 348.208 Z" fill="#2f2e41" style=""/>
  <path d="M 228.674 229.064 C 228.395 229.438 228.146 229.835 227.928 230.247 L 186.289 234.635 L 180.295 226.416 L 166.71 233.841 L 178.483 253.783 L 229.549 240.763 C 234.435 245.524 242.642 243.213 244.323 236.603 C 246.005 229.992 239.9 224.04 233.333 225.889 C 231.476 226.412 229.841 227.527 228.674 229.064 Z" fill="#a0616a" style=""/>
  <path d="M 129.712 278.557 C 128.55 277.721 127.957 276.301 128.176 274.887 C 130.526 259.4 127.822 237.217 125.142 221.333 C 122.783 207.48 134.469 195.285 148.409 197.05 C 151.231 197.424 154.025 197.974 156.778 198.699 C 166.193 201.071 172.709 209.65 172.466 219.356 C 172.065 234.684 175.177 253.808 176.533 261.318 C 176.721 262.361 176.466 263.434 175.829 264.282 C 175.205 265.12 174.256 265.657 173.217 265.759 C 158.182 267.294 141.968 274.626 133.642 278.86 C 133.107 279.135 132.514 279.281 131.912 279.282 C 131.121 279.28 130.35 279.026 129.712 278.557 Z" fill="#11c3a9" style=""/>
  <path d="M 170.297 238.614 C 169.358 238.245 168.605 237.517 168.207 236.59 L 159.823 217.221 C 156.849 210.365 162.412 202.859 169.837 203.712 C 173.288 204.107 176.265 206.318 177.643 209.507 L 186.027 228.877 C 186.858 230.803 185.974 233.037 184.05 233.873 L 173.204 238.568 C 172.28 238.972 171.232 238.988 170.297 238.614 Z" fill="#11c3a9" style=""/>
  <path d="M 188.994 227.376 C 188.715 227.75 188.466 228.145 188.247 228.559 L 146.609 232.947 L 140.615 224.728 L 127.03 232.152 L 138.803 252.095 L 189.869 239.074 C 194.754 243.836 202.961 241.524 204.643 234.914 C 206.325 228.303 200.22 222.352 193.653 224.201 C 191.796 224.723 190.161 225.838 188.994 227.376 Z" fill="#a0616a" style=""/>
  <path d="M 130.616 239.459 C 129.678 239.09 128.925 238.361 128.527 237.434 L 120.143 218.065 C 117.169 211.209 122.732 203.704 130.157 204.556 C 133.608 204.953 136.585 207.163 137.963 210.352 L 146.347 229.722 C 147.178 231.647 146.294 233.881 144.37 234.717 L 133.524 239.412 C 132.6 239.816 131.552 239.833 130.616 239.459 Z" fill="#11c3a9" style=""/>
  <circle cx="146.866" cy="169.726" r="20.736" fill="#a0616a" style=""/>
  <path d="M 132.04 183.957 C 131.658 182.841 132.433 181.666 133.608 181.577 C 134.742 181.638 135.802 182.161 136.542 183.024 C 137.293 183.89 138.166 184.64 139.134 185.25 C 140.138 185.757 141.498 185.684 142.07 184.72 C 142.607 183.815 142.238 182.603 141.914 181.552 C 141.087 178.876 140.624 176.102 140.538 173.303 C 140.445 170.179 140.886 166.919 142.615 164.483 C 144.846 161.338 148.839 160.144 152.616 160.231 C 156.392 160.318 160.109 161.483 163.85 162.22 C 165.142 162.474 166.66 162.605 167.524 161.603 C 168.442 160.539 168.106 158.816 167.715 157.378 C 166.7 153.65 165.625 149.793 163.269 146.782 C 160.722 143.653 157.084 141.603 153.087 141.049 C 149.25 140.574 145.354 141.015 141.721 142.34 C 135.801 144.205 130.593 147.834 126.793 152.74 C 122.873 157.956 121.18 164.513 122.083 170.975 C 122.964 176.604 125.946 181.689 130.429 185.205 L 132.04 183.957 Z" fill="#2f2e41" style=""/>
  <path d="M 52.866 233.876 C 53.908 222.643 56.79 211.657 61.393 201.358 C 62.676 198.491 64.088 195.689 65.63 192.949 C 65.859 192.523 65.543 192.009 65.059 192.022 C 64.85 192.029 64.658 192.138 64.546 192.315 C 58.941 202.295 55.015 213.128 52.922 224.382 C 52.34 227.524 51.903 230.689 51.611 233.876 C 51.536 234.68 52.791 234.675 52.866 233.876 Z" fill="#3f3d56" style=""/>
  <circle cx="68.669" cy="187.013" r="7.948" fill="#11c3a9" style=""/>
  <path d="M 53.679 234.088 C 54.356 226.799 56.224 219.674 59.211 212.991 C 60.043 211.132 60.96 209.313 61.96 207.536 C 62.109 207.26 61.903 206.926 61.589 206.936 C 61.453 206.939 61.329 207.01 61.257 207.124 C 57.619 213.599 55.072 220.628 53.716 227.928 C 53.339 229.967 53.055 232.02 52.864 234.088 C 52.817 234.609 53.631 234.605 53.679 234.088 Z" fill="#3f3d56" style=""/>
  <circle cx="63.931" cy="203.685" r="5.157" fill="#11c3a9" style=""/>
  <path d="M 52.651 233.601 C 48.703 227.438 45.793 220.669 44.037 213.564 C 43.55 211.587 43.155 209.589 42.849 207.572 C 42.797 207.263 42.43 207.127 42.187 207.327 C 42.083 207.414 42.029 207.546 42.043 207.68 C 43.158 215.022 45.471 222.13 48.891 228.722 C 49.848 230.561 50.888 232.354 52.01 234.101 C 52.291 234.542 52.932 234.038 52.651 233.601 Z" fill="#3f3d56" style=""/>
  <circle cx="42.036" cy="203.323" r="5.157" fill="#11c3a9" style=""/>
  <path d="M 36.821 238.162 L 36.821 228.031 C 36.824 225.935 38.524 224.236 40.621 224.232 L 64.26 224.232 C 66.357 224.236 68.057 225.935 68.059 228.031 L 68.059 238.162 C 68.057 240.26 66.357 241.959 64.26 241.961 L 40.621 241.961 C 38.524 241.959 36.824 240.26 36.821 238.162 Z" fill="#ccc" style=""/>
  <rect x="179.086" y="235.232" width="72.606" height="5.91" rx="3.5" fill="#ccc" style=""/>
  <path d="M 293.483 241.142 L 218.344 241.142 C 215.315 241.139 212.859 238.683 212.856 235.654 L 212.856 194.286 C 212.859 191.256 215.315 188.802 218.344 188.798 L 293.483 188.798 C 296.512 188.802 298.967 191.256 298.97 194.286 L 298.97 235.654 C 298.967 238.683 296.512 241.139 293.483 241.142 Z" fill="#ccc" style=""/>
  <circle cx="255.914" cy="214.97" r="5.066" fill="#fff" style=""/>
  <path d="M 484.707 296.863 C 484.707 290.336 460.138 285.044 429.831 285.044 C 399.523 285.044 374.954 290.336 374.954 296.863 C 374.954 301.047 385.055 304.72 400.281 306.821 L 400.281 371.581 C 400.281 375.804 404.855 378.445 408.513 376.332 C 410.211 375.352 411.257 373.54 411.257 371.581 L 411.257 307.987 C 417.059 308.437 423.31 308.683 429.831 308.683 C 436.351 308.683 442.603 308.437 448.404 307.987 L 448.404 371.581 C 448.404 375.804 452.977 378.445 456.636 376.332 C 458.333 375.352 459.38 373.54 459.38 371.581 L 459.38 306.821 C 474.606 304.72 484.707 301.047 484.707 296.863 Z" fill="#ccc" style=""/>
  <circle cx="435.898" cy="165.039" r="23.639" fill="#2f2e41" style=""/>
  <polygon points="377.07 367.295 366.72 367.295 361.797 327.371 377.073 327.371 377.07 367.295" fill="#ffb8b8" style=""/>
  <path d="M 359.326 364.336 L 379.288 364.336 C 379.288 364.336 379.288 364.336 379.288 364.336 L 379.288 376.905 C 379.288 376.905 379.288 376.905 379.288 376.905 L 346.758 376.905 C 346.758 376.905 346.758 376.905 346.758 376.905 C 346.758 369.965 352.385 364.336 359.326 364.336 Z" fill="#2f2e41" style=""/>
  <polygon points="360.913 361.518 351.038 358.419 358.291 318.853 372.867 323.426 360.913 361.518" fill="#ffb8b8" style=""/>
  <path d="M 342.817 354.202 L 362.778 354.202 C 362.778 354.202 362.778 354.202 362.778 354.202 L 362.778 366.77 C 362.778 366.77 362.778 366.77 362.778 366.77 L 330.249 366.77 C 330.249 366.77 330.249 366.77 330.249 366.77 C 330.249 359.83 335.876 354.202 342.817 354.202 Z" fill="#2f2e41" style="transform-origin: 346.513px 360.486px;" transform="matrix(0.954122245312, 0.299418061972, -0.299418061972, 0.954122245312, 0.000045470109, 0.00004366528)"/>
  <path d="M 364.28 345.589 C 363.827 345.589 363.377 345.506 362.954 345.347 L 355.339 342.492 C 353.573 341.824 352.561 339.962 352.962 338.115 C 354.88 329.496 361.413 300.149 364.992 284.408 C 369.235 265.737 431.133 262.267 433.766 262.129 L 433.981 262.118 L 440.945 270.867 C 443.461 278.954 442.664 285.263 438.575 289.617 C 426.643 302.32 391.02 294.437 386.772 293.44 L 367.837 343.143 C 367.272 344.615 365.859 345.589 364.28 345.589 Z" fill="#2f2e41" style=""/>
  <path d="M 375.256 351.499 C 374.802 351.499 374.353 351.416 373.929 351.257 L 366.314 348.401 C 364.548 347.734 363.537 345.871 363.938 344.025 C 365.855 335.406 372.389 306.059 375.966 290.317 C 380.211 271.647 442.108 268.177 444.741 268.039 L 444.957 268.028 L 451.921 276.777 C 454.436 284.864 453.64 291.173 449.55 295.527 C 437.619 308.23 401.995 300.347 397.747 299.349 L 378.813 349.052 C 378.248 350.525 376.834 351.499 375.256 351.499 Z" fill="#2f2e41" style=""/>
  <path d="M 353.225 229.908 C 353.505 230.282 353.754 230.679 353.973 231.091 L 395.611 235.479 L 401.605 227.26 L 415.19 234.686 L 403.417 254.627 L 352.35 241.608 C 347.465 246.369 339.258 244.058 337.577 237.447 C 335.895 230.836 342.001 224.884 348.567 226.733 C 350.423 227.256 352.06 228.371 353.225 229.908 Z" fill="#ffb8b8" style=""/>
  <path d="M 449.989 280.126 C 449.386 280.125 448.793 279.979 448.259 279.704 C 439.932 275.47 423.718 268.138 408.684 266.603 C 407.644 266.501 406.695 265.965 406.071 265.126 C 405.434 264.278 405.18 263.205 405.366 262.162 C 406.723 254.652 409.835 235.528 409.434 220.202 C 409.191 210.495 415.707 201.915 425.122 199.543 C 427.874 198.819 430.669 198.268 433.491 197.894 C 447.43 196.129 459.118 208.324 456.758 222.177 C 454.078 238.061 451.374 260.244 453.724 275.731 C 453.943 277.145 453.35 278.565 452.189 279.402 C 451.55 279.87 450.78 280.124 449.989 280.126 Z" fill="#11c3a9" style=""/>
  <path d="M 410.205 239.727 C 409.686 239.726 409.173 239.619 408.696 239.412 L 397.849 234.717 C 395.926 233.881 395.043 231.647 395.872 229.722 L 404.257 210.352 C 407.22 203.49 416.5 202.41 420.96 208.407 C 423.034 211.195 423.46 214.878 422.077 218.065 L 413.693 237.434 C 413.089 238.825 411.721 239.724 410.205 239.727 Z" fill="#11c3a9" style=""/>
  <circle cx="435.033" cy="170.57" r="20.736" fill="#ffb8b8" style=""/>
  <path d="M 413.926 160.382 C 423.747 166.378 434.82 170.026 446.282 171.043 L 442.872 166.956 C 445.355 167.875 447.968 168.395 450.615 168.494 C 453.258 168.453 456.025 167.435 457.525 165.259 C 458.884 163.063 459.08 160.341 458.053 157.973 C 457.014 155.646 455.397 153.622 453.354 152.097 C 446.002 146.281 436.226 144.534 427.313 147.443 C 424.304 148.343 421.608 150.072 419.536 152.433 C 417.571 154.858 413.785 157.018 414.792 159.973 L 413.926 160.382 Z" fill="#2f2e41" style=""/>
  <path d="M 438.522 143.648 C 431.981 137.015 424.067 131.898 415.336 128.653 C 409.73 126.578 403.63 125.294 397.77 126.474 C 391.91 127.653 386.369 131.707 384.735 137.456 C 383.398 142.157 384.778 147.219 386.853 151.645 C 388.927 156.07 391.697 160.174 393.374 164.764 C 400.809 185.107 384.854 206.37 363.243 204.919 C 369.001 205.69 374.308 208.397 379.935 209.836 C 385.563 211.276 392.204 211.18 396.386 207.147 C 400.811 202.882 400.899 195.947 400.686 189.804 L 399.732 162.413 C 399.57 157.756 399.431 152.95 401.11 148.604 C 402.79 144.257 406.781 140.453 411.44 140.491 C 414.971 140.522 418.096 142.661 420.928 144.77 C 423.76 146.88 426.757 149.131 430.275 149.445 C 433.792 149.759 437.807 147.155 437.544 143.634" fill="#2f2e41" style=""/>
  <polygon points="342.135 214.636 389.88 215.764 396.797 266.804 352.704 267.794 342.135 214.636" fill="#e6e6e6" style=""/>
  <path d="M 392.906 228.22 C 393.185 228.594 393.435 228.989 393.653 229.403 L 435.291 233.791 L 441.286 225.572 L 454.87 232.996 L 443.097 252.939 L 392.03 239.918 C 387.145 244.68 378.938 242.369 377.257 235.758 C 375.575 229.148 381.681 223.196 388.247 225.045 C 390.105 225.568 391.74 226.682 392.906 228.22 Z" fill="#ffb8b8" style=""/>
  <path d="M 449.885 240.572 C 449.366 240.57 448.853 240.463 448.376 240.256 L 437.529 235.561 C 435.606 234.726 434.723 232.491 435.552 230.566 L 443.938 211.197 C 446.9 204.334 456.18 203.254 460.64 209.251 C 462.714 212.039 463.14 215.722 461.757 218.909 L 453.373 238.279 C 452.769 239.669 451.401 240.569 449.885 240.572 Z" fill="#11c3a9" style=""/>
  <path d="M 351.736 240.298 L 15.722 240.298 C 11.497 240.298 8.857 244.871 10.97 248.529 C 11.949 250.227 13.762 251.274 15.722 251.274 L 25.431 251.274 L 25.431 370.735 C 25.431 374.96 30.004 377.601 33.663 375.488 C 35.36 374.508 36.406 372.696 36.406 370.735 L 36.406 261.818 L 97.928 373.326 C 100.048 376.98 105.328 376.969 107.433 373.307 C 108.406 371.613 108.406 369.531 107.433 367.838 L 43.122 251.274 L 336.962 251.274 L 336.962 251.344 L 272.689 367.838 C 270.577 371.497 273.217 376.07 277.442 376.07 C 279.402 376.07 281.214 375.024 282.194 373.326 L 336.962 274.059 L 336.962 370.735 C 336.962 374.96 341.535 377.601 345.194 375.488 C 346.891 374.508 347.937 372.696 347.937 370.735 L 347.937 254.166 L 349.534 251.274 L 351.736 251.274 C 355.961 251.274 358.601 246.699 356.489 243.042 C 355.509 241.343 353.697 240.298 351.736 240.298 Z" fill="#3f3d56" style=""/>
</svg>