<?xml version="1.0" encoding="UTF-8" standalone="no" ?>
<!DOCTYPE svg PUBLIC "-//W3C//DTD SVG 1.1//EN" "http://www.w3.org/Graphics/SVG/1.1/DTD/svg11.dtd">
<svg xmlns="http://www.w3.org/2000/svg" xmlns:xlink="http://www.w3.org/1999/xlink" version="1.1" width="1080" height="1080" viewBox="65.71 2.86 1080 1080" xml:space="preserve">
<desc>Created with Fabric.js 5.2.4</desc>
<defs>
</defs>
<rect x="0" y="0" width="100%" height="100%" fill="transparent"></rect>
<g transform="matrix(1 0 0 1 540 540)" id="9a0cb019-db06-4974-8d44-5406fd933385"  >
</g>
<g transform="matrix(1 0 0 1 540 540)" id="34f8b817-7b11-4a14-8381-715240dc18fa"  >
<rect style="stroke: none; stroke-width: 1; stroke-dasharray: none; stroke-linecap: butt; stroke-dashoffset: 0; stroke-linejoin: miter; stroke-miterlimit: 4; fill: rgb(255,254,254); fill-opacity: 0; fill-rule: nonzero; opacity: 1;" vector-effect="non-scaling-stroke"  x="-540" y="-540" rx="0" ry="0" width="1080" height="1080" />
</g>
<g transform="matrix(1 0 0 1 719.17 548.64)"  >
<path style="stroke: none; stroke-width: 1; stroke-dasharray: none; stroke-linecap: butt; stroke-dashoffset: 0; stroke-linejoin: miter; stroke-miterlimit: 4; fill: rgb(63,61,86); fill-rule: nonzero; opacity: 1;" vector-effect="non-scaling-stroke"  transform=" translate(-756.09, -458.65)" d="M 890.08181 317.64639 L 887.12892 317.64639 L 887.12892 236.75278 C 887.1289359130027 224.3355987665443 882.1962410289062 212.4269875043204 873.4159736015945 203.6467088248237 C 864.6357061742826 194.86643014532694 852.7271012334659 189.93371999998982 840.30992 189.93372 L 668.92579 189.93372 C 656.5086156969788 189.93369082615501 644.600005228764 194.86636750170356 635.8197183222791 203.64661690091032 C 627.0394314157941 212.4268663001171 622.1067038694564 224.33545569696753 622.10668 236.75263000000004 L 622.10668 680.54143 C 622.1066640869973 692.9586112334557 627.0393589710937 704.8672224956796 635.8196263984055 713.6475011751763 C 644.5998938257173 722.4277798546731 656.508498766534 727.3604900000103 668.9256799999999 727.36049 L 840.30972 727.36049 C 852.7268960356329 727.360529782531 864.635512233599 722.4278619084387 873.4158069290042 713.6476178478605 C 882.1961016244095 704.8673737872824 887.1288381740717 692.9587860356559 887.12887 680.54161 L 887.12887 375.22785 L 890.08181 375.22785 Z" stroke-linecap="round" />
</g>
<g transform="matrix(1 0 0 1 719.17 548.65)"  >
<path style="stroke: none; stroke-width: 1; stroke-dasharray: none; stroke-linecap: butt; stroke-dashoffset: 0; stroke-linejoin: miter; stroke-miterlimit: 4; fill: rgb(255,255,255); fill-rule: nonzero; opacity: 1;" vector-effect="non-scaling-stroke"  transform=" translate(-756.09, -458.65)" d="M 877.1627 237.07439 L 877.1627 680.21716 C 877.1627404050031 689.4904526540503 873.4780974326923 698.383763342904 866.9197116239095 704.9397935619048 C 860.3613258151269 711.4958237809057 851.4666920411714 715.1772717119636 842.1934 715.1739 L 669.98426 715.1739 C 660.7129167447785 715.1746029115776 651.8210980042824 711.4919052595138 645.2652439187428 704.9360999345106 C 638.7093898332034 698.3802946095074 635.0266260462337 689.4885032601932 635.02726 680.21716 L 635.02726 237.07439 C 635.0266260462337 227.8030467398069 638.7093898332034 218.9112553904927 645.2652439187428 212.3554500654894 C 651.8210980042822 205.79964474048612 660.7129167447785 202.11694708842236 669.98426 202.11765 L 690.8826499999999 202.11765 C 688.7995462670843 207.23976604962158 689.4004661941341 213.0624886943 692.4857536368323 217.65121350450667 C 695.5710410795306 222.23993831471333 700.7365590811239 224.99359543403514 706.2660599999999 224.99728 L 804.4475199999999 224.99728 C 809.9805394665369 225.00252169266406 815.1525078625535 222.25084145191906 818.2398407849515 217.65925051644825 C 821.3271737073494 213.06765958097745 821.9240358834242 207.2397305509126 819.83152 202.11765 L 842.1934 202.11765 C 851.4666920411714 202.11427828803636 860.3613258151269 205.79572621909432 866.9197116239095 212.35175643809518 C 873.4780974326923 218.90778665709604 877.1627404050031 227.80109734594976 877.1627 237.07439 Z" stroke-linecap="round" />
</g>
<g transform="matrix(1 0 0 1 710.98 544.87)"  >
<path style="stroke: none; stroke-width: 1; stroke-dasharray: none; stroke-linecap: butt; stroke-dashoffset: 0; stroke-linejoin: miter; stroke-miterlimit: 4; fill: rgb(240,240,240); fill-rule: nonzero; opacity: 1;" vector-effect="non-scaling-stroke"  transform=" translate(-747.91, -454.87)" d="M 823.59459 467.3551 L 672.22789 467.3551 C 666.707624012575 467.348872648843 662.234117351157 462.875365987425 662.22789 457.3551 L 662.22789 452.37756 C 662.234117351157 446.857294012575 666.707624012575 442.383787351157 672.22789 442.37756 L 823.59459 442.37756 C 829.114855987425 442.383787351157 833.588362648843 446.857294012575 833.59459 452.37756 L 833.59459 457.3551 C 833.588362648843 462.875365987425 829.114855987425 467.348872648843 823.59459 467.3551 Z" stroke-linecap="round" />
</g>
<g transform="matrix(1 0 0 1 710.98 587.77)"  >
<path style="stroke: none; stroke-width: 1; stroke-dasharray: none; stroke-linecap: butt; stroke-dashoffset: 0; stroke-linejoin: miter; stroke-miterlimit: 4; fill: rgb(240,240,240); fill-rule: nonzero; opacity: 1;" vector-effect="non-scaling-stroke"  transform=" translate(-747.91, -497.77)" d="M 823.59459 510.26233 L 672.22789 510.26233 C 666.707624012575 510.256102648843 662.234117351157 505.78259598742505 662.22789 500.26233 L 662.22789 495.28479000000004 C 662.234117351157 489.764524012575 666.707624012575 485.29101735115705 672.22789 485.28479000000004 L 823.59459 485.28479000000004 C 829.114855987425 485.29101735115705 833.588362648843 489.764524012575 833.59459 495.28479000000004 L 833.59459 500.26233 C 833.588362648843 505.78259598742505 829.114855987425 510.256102648843 823.59459 510.26233 Z" stroke-linecap="round" />
</g>
<g transform="matrix(1 0 0 1 718.56 534.77)"  >
<path style="stroke: none; stroke-width: 1; stroke-dasharray: none; stroke-linecap: butt; stroke-dashoffset: 0; stroke-linejoin: miter; stroke-miterlimit: 4; fill: rgb(63,61,86); fill-rule: nonzero; opacity: 1;" vector-effect="non-scaling-stroke"  transform=" translate(-755.48, -444.77)" d="M 831.16637 457.75891 L 679.79967 457.75891 C 674.0034215117947 457.7522970460415 669.3062829539584 453.05515848820534 669.29967 447.25891 L 669.29967 442.28137000000004 C 669.3062829539584 436.4851215117947 674.0034215117947 431.78798295395853 679.79967 431.78137000000004 L 831.16637 431.78137000000004 C 836.9626184882053 431.78798295395853 841.6597570460416 436.4851215117947 841.66637 442.28137000000004 L 841.66637 447.25891 C 841.6597570460416 453.05515848820534 836.9626184882053 457.7522970460415 831.16637 457.75891 Z M 679.79967 433.78137000000004 C 675.1074222369788 433.78661100647145 671.3049110064713 437.58912223697877 671.29967 442.28137000000004 L 671.29967 447.25891 C 671.3049110064713 451.9511577630213 675.1074222369788 455.75366899352866 679.79967 455.75891 L 831.16637 455.75891 C 835.8586177630212 455.75366899352866 839.6611289935287 451.9511577630213 839.66637 447.25891 L 839.66637 442.28137000000004 C 839.6611289935287 437.58912223697877 835.8586177630212 433.7866110064714 831.16637 433.78137000000004 Z" stroke-linecap="round" />
</g>
<g transform="matrix(1 0 0 1 718.56 577.68)"  >
<path style="stroke: none; stroke-width: 1; stroke-dasharray: none; stroke-linecap: butt; stroke-dashoffset: 0; stroke-linejoin: miter; stroke-miterlimit: 4; fill: rgb(63,61,86); fill-rule: nonzero; opacity: 1;" vector-effect="non-scaling-stroke"  transform=" translate(-755.48, -487.68)" d="M 831.16637 500.66614 L 679.79967 500.66614 C 674.0034215117947 500.6595270460415 669.3062829539584 495.9623884882053 669.29967 490.16614 L 669.29967 485.1886 C 669.3062829539584 479.3923515117947 674.0034215117947 474.6952129539585 679.79967 474.6886 L 831.16637 474.6886 C 836.9626184882053 474.6952129539585 841.6597570460416 479.3923515117947 841.66637 485.1886 L 841.66637 490.16614 C 841.6597570460416 495.9623884882053 836.9626184882053 500.6595270460415 831.16637 500.66614 Z M 679.79967 476.6886 C 675.1074222369788 476.6938410064714 671.3049110064713 480.49635223697874 671.29967 485.1886 L 671.29967 490.16614 C 671.3049110064713 494.85838776302126 675.1074222369788 498.66089899352863 679.79967 498.66614 L 831.16637 498.66614 C 835.8586177630212 498.66089899352863 839.6611289935287 494.85838776302126 839.66637 490.16614 L 839.66637 485.1886 C 839.6611289935287 480.49635223697874 835.8586177630212 476.69384100647136 831.16637 476.6886 Z" stroke-linecap="round" />
</g>
<g transform="matrix(1 0 0 1 775.3 359.5)"  >
<path style="stroke: none; stroke-width: 1; stroke-dasharray: none; stroke-linecap: butt; stroke-dashoffset: 0; stroke-linejoin: miter; stroke-miterlimit: 4; fill: rgb(240,240,240); fill-rule: nonzero; opacity: 1;" vector-effect="non-scaling-stroke"  transform=" translate(-812.22, -269.5)" d="M 877.1627 237.07439 L 877.1627 333.4641 C 846.1223721647559 341.6304616709552 813.0498233912239 334.9394997695175 787.6249179596537 315.34956360688574 C 762.2000125280834 295.759627444254 747.2979197244514 265.48604021683616 747.28027 233.38945 Q 747.28027 229.14922 747.62103 224.99728000000002 L 804.44752 224.99728000000002 C 809.980539466537 225.0025216926641 815.1525078625536 222.2508414519191 818.2398407849516 217.65925051644828 C 821.3271737073495 213.06765958097748 821.9240358834243 207.23973055091264 819.8315200000001 202.11765000000003 L 842.1934 202.11765000000003 C 851.4666920411714 202.1142782880364 860.3613258151269 205.79572621909435 866.9197116239095 212.3517564380952 C 873.4780974326923 218.90778665709604 877.1627404050031 227.80109734594978 877.1627 237.07439000000002 Z" stroke-linecap="round" />
</g>
<g transform="matrix(1 0 0 1 641.61 763.67)"  >
<path style="stroke: none; stroke-width: 1; stroke-dasharray: none; stroke-linecap: butt; stroke-dashoffset: 0; stroke-linejoin: miter; stroke-miterlimit: 4; fill: rgb(17,195,169); fill-rule: nonzero; opacity: 1;" vector-effect="non-scaling-stroke"  transform=" translate(-678.53, -673.67)" d="M 722.04076 709.15425 C 722.04076 711.18601 721.96496 713.19259 721.80105 715.1739 L 669.98426 715.1739 C 660.7129167447785 715.1746029115776 651.8210980042824 711.4919052595138 645.2652439187428 704.9360999345106 C 638.7093898332034 698.3802946095074 635.0266260462337 689.4885032601932 635.02726 680.21716 L 635.02726 632.81736 C 656.9999255830406 629.9596850045642 679.139614629431 636.6968755997509 695.7959977766438 651.3095153221598 C 712.4523809238566 665.9221550445687 722.0140442361101 686.996550952633 722.0407299999999 709.1542499999999 Z" stroke-linecap="round" />
</g>
<g transform="matrix(1 0 0 1 355.44 639.73)"  >
<path style="stroke: none; stroke-width: 1; stroke-dasharray: none; stroke-linecap: butt; stroke-dashoffset: 0; stroke-linejoin: miter; stroke-miterlimit: 4; fill: rgb(17,195,169); fill-rule: nonzero; opacity: 1;" vector-effect="non-scaling-stroke"  transform=" translate(-323.45, -562.42)" d="M 304.12133 625.985 C 307.1528907370083 627.3183467021889 310.6916885771454 625.9464418739857 312.03233 622.9181 L 358.71165 517.12416 C 360.89651460201867 512.1731505479105 359.8836758222621 506.39350695413265 356.1454547987774 502.4804734118012 C 352.40723377529275 498.5674398694697 346.6798787579544 497.2916942168241 341.63425 499.24816 L 341.63413 499.24816 C 338.7836121493819 500.3367845275793 336.39830032836716 502.37937730513835 334.88401000000005 505.02842999999996 C 334.64312690765286 505.4475371434001 334.42467907960884 505.8791453486213 334.22959000000003 506.32142999999996 L 287.55027 612.11543 C 286.90775536966805 613.5713206792578 286.8699706957032 615.2228331100026 287.44522973956623 616.7065850274721 C 288.02048878342924 618.1903369449416 289.16165946146185 619.384761691039 290.61765 620.0270499999999 Z" stroke-linecap="round" />
</g>
<g transform="matrix(1 0 0 1 365.7 605.71)"  >
<path style="stroke: none; stroke-width: 1; stroke-dasharray: none; stroke-linecap: butt; stroke-dashoffset: 0; stroke-linejoin: miter; stroke-miterlimit: 4; fill: rgb(47,46,65); fill-rule: nonzero; opacity: 1;" vector-effect="non-scaling-stroke"  transform=" translate(-333.71, -528.41)" d="M 356.79528 560.55725 L 310.62352 550.2965099999999 L 322.05152 520.0645799999999 C 326.07463162000505 504.7948096691462 340.64951653104544 494.75444812985586 356.35051999999996 496.4366499999999 L 356.79535 496.48595999999986 Z" stroke-linecap="round" />
</g>
<g transform="matrix(1 0 0 1 465.14 639.73)"  >
<path style="stroke: none; stroke-width: 1; stroke-dasharray: none; stroke-linecap: butt; stroke-dashoffset: 0; stroke-linejoin: miter; stroke-miterlimit: 4; fill: rgb(17,195,169); fill-rule: nonzero; opacity: 1;" vector-effect="non-scaling-stroke"  transform=" translate(-433.15, -562.42)" d="M 450.055 627.49817 C 447.2806686442166 627.4934802357615 444.76870898202793 625.8571605658618 443.64314 623.32141 L 396.964 517.52747 C 393.88141623838595 510.5379862553629 396.80159212785213 502.35811333239815 403.61358112945226 498.9009451985071 C 410.4255701310524 495.443777064616 418.75179658822225 497.91596258459526 422.57337 504.5304 L 422.57337 504.52991 C 422.83206042794325 504.9798352010091 423.066605904639 505.44321807109844 423.27601 505.91808999999995 L 469.95520999999997 611.71209 C 471.51574130572254 615.2490939831947 469.9135535538228 619.3814670627713 466.37658999999996 620.94209 L 452.41517 627.10175 L 452.40809 627.08613 C 451.653418289907 627.3583766244099 450.85727642798054 627.4977857812157 450.055 627.49817 Z" stroke-linecap="round" />
</g>
<g transform="matrix(1 0 0 1 424.86 735.98)"  >
<path style="stroke: none; stroke-width: 1; stroke-dasharray: none; stroke-linecap: butt; stroke-dashoffset: 0; stroke-linejoin: miter; stroke-miterlimit: 4; fill: rgb(17,195,169); fill-rule: nonzero; opacity: 1;" vector-effect="non-scaling-stroke"  transform=" translate(-392.87, -658.68)" d="M 385.48546 591.16907 C 382.17328443743344 591.1727679165441 379.489157916544 593.8568944374335 379.48546 597.16907 L 379.48546 720.18323 C 379.48916341581327 723.4954032810946 382.17328671890544 726.1795265841866 385.48546 726.18323 L 400.245 726.18323 C 403.55717328109455 726.1795265841866 406.2412965841867 723.4954032810946 406.245 720.18323 L 406.245 597.16907 C 406.241302083456 593.8568944374335 403.55717556256656 591.1727679165441 400.245 591.16907 Z" stroke-linecap="round" />
</g>
<g transform="matrix(1 0 0 1 395.66 735.98)"  >
<path style="stroke: none; stroke-width: 1; stroke-dasharray: none; stroke-linecap: butt; stroke-dashoffset: 0; stroke-linejoin: miter; stroke-miterlimit: 4; fill: rgb(17,195,169); fill-rule: nonzero; opacity: 1;" vector-effect="non-scaling-stroke"  transform=" translate(-363.67, -658.68)" d="M 356.29308 591.16907 C 352.9809044374334 591.1727679165441 350.296777916544 593.8568944374335 350.29308 597.16907 L 350.29308 720.18323 C 350.29678341581325 723.4954032810946 352.98090671890543 726.1795265841866 356.29308 726.18323 L 371.05283999999995 726.18323 C 374.3650132810945 726.1795265841866 377.04913658418667 723.4954032810946 377.05283999999995 720.18323 L 377.05283999999995 597.16907 C 377.04914208345593 593.8568944374335 374.3650155625665 591.1727679165441 371.05283999999995 591.16907 Z" stroke-linecap="round" />
</g>
<g transform="matrix(1 0 0 1 411.41 499.71)"  >
<circle style="stroke: none; stroke-width: 1; stroke-dasharray: none; stroke-linecap: butt; stroke-dashoffset: 0; stroke-linejoin: miter; stroke-miterlimit: 4; fill: rgb(17,195,169); fill-rule: nonzero; opacity: 1;" vector-effect="non-scaling-stroke"  cx="0" cy="0" r="51" />
</g>
<g transform="matrix(1 0 0 1 435.26 504.09)"  >
<path style="stroke: none; stroke-width: 1; stroke-dasharray: none; stroke-linecap: butt; stroke-dashoffset: 0; stroke-linejoin: miter; stroke-miterlimit: 4; fill: rgb(47,46,65); fill-rule: nonzero; opacity: 1;" vector-effect="non-scaling-stroke"  transform=" translate(-401.67, -415.68)" d="M 394.79994 432.69926 C 398.10585 432.60747 402.22023 432.49271999999996 405.38993999999997 430.17726 C 407.3004963492503 428.7244073575808 408.47171435560693 426.50180225142657 408.59002 424.10451 C 408.70623687584396 422.39834842436613 408.017949889113 420.73599453886555 406.72965999999997 419.61136 C 405.07415 418.21242 402.65666 417.88428999999996 400.05143999999996 418.64992 L 402.75066 398.92433 L 400.76921999999996 398.65285 L 397.596 421.84282 L 399.25066 421.08354 C 401.169 420.20366 403.8023 419.75590000000005 405.43865999999997 421.13872000000003 C 406.2531387318706 421.8715056066953 406.6793683664046 422.9421546917152 406.59137 424.03422000000006 C 406.4932221121522 425.81779741696613 405.6240705424929 427.4704639981725 404.21013999999997 428.5620600000001 C 401.74346999999995 430.3638100000001 398.46392999999995 430.5962400000001 394.74431999999996 430.70024000000006 Z" stroke-linecap="round" />
</g>
<g transform="matrix(1 0 0 1 451.51 490.04)"  >
<rect style="stroke: none; stroke-width: 1; stroke-dasharray: none; stroke-linecap: butt; stroke-dashoffset: 0; stroke-linejoin: miter; stroke-miterlimit: 4; fill: rgb(47,46,65); fill-rule: nonzero; opacity: 1;" vector-effect="non-scaling-stroke"  x="-5.385" y="-1" rx="0" ry="0" width="10.77" height="2" />
</g>
<g transform="matrix(1 0 0 1 417.51 490.04)"  >
<rect style="stroke: none; stroke-width: 1; stroke-dasharray: none; stroke-linecap: butt; stroke-dashoffset: 0; stroke-linejoin: miter; stroke-miterlimit: 4; fill: rgb(47,46,65); fill-rule: nonzero; opacity: 1;" vector-effect="non-scaling-stroke"  x="-5.385" y="-1" rx="0" ry="0" width="10.77" height="2" />
</g>
<g transform="matrix(1 0 0 1 410.28 633.24)"  >
<path style="stroke: none; stroke-width: 1; stroke-dasharray: none; stroke-linecap: butt; stroke-dashoffset: 0; stroke-linejoin: miter; stroke-miterlimit: 4; fill: rgb(47,46,65); fill-rule: nonzero; opacity: 1;" vector-effect="non-scaling-stroke"  transform=" translate(-378.3, -555.93)" d="M 428.36168 628.11938 L 410.00568 494.11938 C 409.59857230641103 491.148012124799 407.05998715822494 488.9336070697187 404.06086 488.93372 L 390.20543 488.93372 C 390.2631517326273 488.60346727140006 390.29320607132456 488.26897268378497 390.29528 487.93372 L 390.29528 482.93372 C 390.2951971612518 479.62004581455477 387.6089541854452 476.9338028387482 384.29528 476.93372 L 372.29528 476.93372 C 368.9816035270499 476.93379731641164 366.29535731641164 479.6200435270499 366.29528 482.93372 L 366.29528 487.93372 C 366.2973506261264 488.2689724043489 366.3274016196911 488.60346698988684 366.38512 488.93372 L 352.52965 488.93372 C 349.5305816800212 488.93376403250556 346.9920852137396 491.1480917304574 346.58483 494.11938 L 328.22883 628.11938 C 327.99358087379255 629.8366404551824 328.51246116000425 631.5717322302482 329.65186862710533 632.8779007669345 C 330.7912760942064 634.1840693036207 332.43987094309625 634.9336793646087 334.17317 634.93372 L 422.41731000000004 634.93372 C 424.15061429167326 634.9336880309826 425.7992173385472 634.184081702856 426.93863151216243 632.8779120701055 C 428.0780456857776 631.5717424373549 428.5969298364817 629.8366456413585 428.36168 628.11938 Z" stroke-linecap="round" />
</g>
<g transform="matrix(1 0 0 1 454.88 605.71)"  >
<path style="stroke: none; stroke-width: 1; stroke-dasharray: none; stroke-linecap: butt; stroke-dashoffset: 0; stroke-linejoin: miter; stroke-miterlimit: 4; fill: rgb(47,46,65); fill-rule: nonzero; opacity: 1;" vector-effect="non-scaling-stroke"  transform=" translate(-422.88, -528.41)" d="M 399.79528 560.55725 L 399.79528 496.486 L 400.2401 496.43669 C 415.96116081875294 494.7559135114112 430.5486584946268 504.8223595632106 434.55553 520.11686 L 445.96691 550.29655 Z" stroke-linecap="round" />
</g>
<g transform="matrix(1 0 0 1 707.83 639.52)"  >
<path style="stroke: none; stroke-width: 1; stroke-dasharray: none; stroke-linecap: butt; stroke-dashoffset: 0; stroke-linejoin: miter; stroke-miterlimit: 4; fill: rgb(17,195,169); fill-rule: nonzero; opacity: 1;" vector-effect="non-scaling-stroke"  transform=" translate(-744.76, -549.51)" d="M 780.68737 562.00305 L 708.8253 562.00305 C 703.305034012575 561.996822648843 698.831527351157 557.523315987425 698.8253 552.00305 L 698.8253 547.02551 C 698.831527351157 541.5052440125751 703.305034012575 537.0317373511571 708.8253 537.02551 L 780.68737 537.02551 C 786.207635987425 537.0317373511571 790.681142648843 541.5052440125751 790.68737 547.02551 L 790.68737 552.00305 C 790.681142648843 557.523315987425 786.207635987425 561.996822648843 780.68737 562.00305 Z" stroke-linecap="round" />
</g>
<g transform="matrix(1 0 0 1 715.4 629.42)"  >
<path style="stroke: none; stroke-width: 1; stroke-dasharray: none; stroke-linecap: butt; stroke-dashoffset: 0; stroke-linejoin: miter; stroke-miterlimit: 4; fill: rgb(63,61,86); fill-rule: nonzero; opacity: 1;" vector-effect="non-scaling-stroke"  transform=" translate(-752.33, -539.42)" d="M 788.25939 552.40735 L 716.39708 552.40735 C 710.6008315117947 552.4007370460415 705.9036929539584 547.7035984882052 705.89708 541.90735 L 705.89708 536.92981 C 705.9036929539584 531.1335615117947 710.6008315117947 526.4364229539584 716.39708 526.42981 L 788.2593899999999 526.42981 C 794.0556384882052 526.4364229539584 798.7527770460415 531.1335615117947 798.7593899999999 536.92981 L 798.7593899999999 541.90735 C 798.7527770460415 547.7035984882052 794.0556384882053 552.4007370460414 788.25939 552.40735 Z M 716.3970800000001 528.42981 C 711.7048322369789 528.4350510064713 707.9023210064714 532.2375622369788 707.8970800000001 536.92981 L 707.8970800000001 541.90735 C 707.9023210064714 546.5995977630212 711.7048322369789 550.4021089935286 716.3970800000001 550.40735 L 788.25939 550.40735 C 792.9516377630213 550.4021089935286 796.7541489935287 546.5995977630213 796.75939 541.90735 L 796.75939 536.92981 C 796.7541489935287 532.2375622369788 792.9516377630213 528.4350510064713 788.25939 528.42981 Z" stroke-linecap="round" />
</g>
</svg>