<svg width="1898" height="1989" xmlns="http://www.w3.org/2000/svg" xmlns:xlink="http://www.w3.org/1999/xlink" xml:space="preserve" overflow="hidden"><g transform="translate(-1292 -307)"><g><path d="M3188.91 781.646 3178.01 781.646 3178.01 482.865C3178.01 387.358 3100.65 309.938 3005.22 309.938L2372.7 309.938C2277.27 309.938 2199.91 387.358 2199.91 482.865L2199.91 2122.01C2199.91 2217.52 2277.27 2294.94 2372.7 2294.94L3005.22 2294.94C3100.65 2294.94 3178.01 2217.52 3178.01 2122.01L3178.01 994.327 3188.91 994.327Z" fill="#3F3D56" fill-rule="evenodd" fill-opacity="1"/><path d="M3140.91 484.05 3140.91 2120.82C3140.91 2192.13 3083.19 2249.94 3011.99 2249.94 3011.97 2249.94 3011.96 2249.94 3011.94 2249.94L2376.83 2249.94C2305.64 2249.94 2247.92 2192.15 2247.91 2120.84 2247.91 2120.83 2247.91 2120.83 2247.91 2120.82L2247.91 484.05C2247.91 412.75 2305.62 354.942 2376.81 354.938 2376.82 354.938 2376.83 354.938 2376.83 354.938L2453.91 354.938C2441.16 386.341 2456.24 422.15 2487.59 434.922 2494.91 437.903 2502.74 439.439 2510.64 439.443L2872.74 439.443C2906.55 439.476 2933.99 412.048 2934.02 378.185 2934.03 370.215 2932.48 362.318 2929.47 354.938L3011.94 354.938C3083.14 354.912 3140.89 412.698 3140.91 484.006 3140.91 484.02 3140.91 484.035 3140.91 484.05Z" fill="#FFFFFF" fill-rule="evenodd" fill-opacity="1"/><path d="M2943.97 1333.94 2384.85 1333.94C2364.46 1333.92 2347.93 1317.44 2347.91 1297.1L2347.91 1278.77C2347.93 1258.44 2364.46 1241.96 2384.85 1241.94L2943.97 1241.94C2964.36 1241.96 2980.89 1258.44 2980.91 1278.77L2980.91 1297.1C2980.89 1317.44 2964.36 1333.92 2943.97 1333.94Z" fill="#F0F0F0" fill-rule="evenodd" fill-opacity="1"/><path d="M2943.97 1492.94 2384.85 1492.94C2364.46 1492.92 2347.93 1476.44 2347.91 1456.1L2347.91 1437.77C2347.93 1417.44 2364.46 1400.96 2384.85 1400.94L2943.97 1400.94C2964.36 1400.96 2980.89 1417.44 2980.91 1437.77L2980.91 1456.1C2980.89 1476.44 2964.36 1492.92 2943.97 1492.94Z" fill="#F0F0F0" fill-rule="evenodd" fill-opacity="1"/><path d="M2971.17 1298.94 2412.65 1298.94C2391.26 1298.91 2373.93 1281.55 2373.91 1260.14L2373.91 1241.74C2373.93 1220.32 2391.26 1202.96 2412.65 1202.94L2971.17 1202.94C2992.56 1202.96 3009.89 1220.32 3009.91 1241.74L3009.91 1260.14C3009.89 1281.55 2992.56 1298.91 2971.17 1298.94ZM2412.65 1210.33C2395.34 1210.35 2381.31 1224.4 2381.29 1241.74L2381.29 1260.14C2381.31 1277.47 2395.34 1291.53 2412.65 1291.55L2971.17 1291.55C2988.48 1291.53 3002.51 1277.47 3002.53 1260.14L3002.53 1241.74C3002.51 1224.4 2988.48 1210.35 2971.17 1210.33Z" fill="#3F3D56" fill-rule="evenodd" fill-opacity="1"/><path d="M2971.17 1457.94 2412.65 1457.94C2391.26 1457.92 2373.93 1440.55 2373.91 1419.13L2373.91 1400.74C2373.93 1379.32 2391.26 1361.96 2412.65 1361.94L2971.17 1361.94C2992.56 1361.96 3009.89 1379.32 3009.91 1400.74L3009.91 1419.13C3009.89 1440.55 2992.56 1457.92 2971.17 1457.94ZM2412.65 1369.33C2395.34 1369.35 2381.31 1383.4 2381.29 1400.74L2381.29 1419.13C2381.31 1436.47 2395.34 1450.53 2412.65 1450.55L2971.17 1450.55C2988.48 1450.53 3002.51 1436.47 3002.53 1419.13L3002.53 1400.74C3002.51 1383.4 2988.48 1369.35 2971.17 1369.33Z" fill="#3F3D56" fill-rule="evenodd" fill-opacity="1"/><path d="M3140.91 484.099 3140.91 840.254C2936.96 894.012 2728.14 771.946 2674.48 567.612 2666.15 535.909 2661.93 503.264 2661.91 470.483 2661.91 460.041 2662.33 449.702 2663.17 439.475L2872.74 439.475C2906.55 439.508 2933.99 412.069 2934.03 378.194 2934.03 370.22 2932.49 362.32 2929.48 354.938L3011.94 354.938C3083.14 354.912 3140.89 412.719 3140.91 484.054 3140.91 484.069 3140.91 484.084 3140.91 484.099Z" fill="#F0F0F0" fill-rule="evenodd" fill-opacity="1"/><path d="M2568.91 2227.67C2568.91 2235.19 2568.63 2242.61 2568.03 2249.94L2376.87 2249.94C2305.66 2249.94 2247.92 2192.07 2247.91 2120.67 2247.91 2120.66 2247.91 2120.66 2247.91 2120.65L2247.91 1945.35C2403.63 1925.05 2546.28 2035.14 2566.54 2191.26 2568.1 2203.33 2568.9 2215.49 2568.91 2227.67Z" fill="#11C3A9" fill-rule="evenodd" fill-opacity="1"/><path d="M1360.02 1880.05C1371.22 1884.98 1384.3 1879.91 1389.25 1868.71L1561.69 1477.4C1572.71 1452.4 1561.4 1423.18 1536.43 1412.15 1524.43 1406.85 1510.83 1406.54 1498.6 1411.29 1488.07 1415.31 1479.26 1422.87 1473.67 1432.66 1472.78 1434.22 1471.97 1435.81 1471.25 1437.45L1298.8 1828.75C1293.86 1839.97 1298.93 1853.07 1310.13 1858.02 1310.13 1858.02 1310.13 1858.02 1310.14 1858.02Z" fill="#11C3A9" fill-rule="evenodd" fill-opacity="1"/><path d="M1553.91 1637.94 1383.91 1600.12 1425.99 1488.7C1440.8 1432.42 1494.47 1395.41 1552.28 1401.62L1553.91 1401.8Z" fill="#2F2E41" fill-rule="evenodd" fill-opacity="1"/><path d="M1898.29 1884.94C1888.06 1884.92 1878.79 1878.89 1874.64 1869.53L1702.44 1479.38C1690.61 1452.58 1702.76 1421.28 1729.57 1409.46 1754.34 1398.53 1783.37 1408.01 1796.91 1431.45 1797.87 1433.11 1798.73 1434.81 1799.5 1436.57L1971.71 1826.72C1977.47 1839.77 1971.56 1855 1958.51 1860.76L1907 1883.48 1906.97 1883.42C1904.19 1884.42 1901.25 1884.94 1898.29 1884.94Z" fill="#11C3A9" fill-rule="evenodd" fill-opacity="1"/><path d="M1660.11 1750.94C1647.86 1750.95 1637.93 1760.87 1637.91 1773.11L1637.91 2227.76C1637.93 2240 1647.86 2249.93 1660.11 2249.94L1714.71 2249.94C1726.97 2249.93 1736.9 2240 1736.91 2227.76L1736.91 1773.11C1736.9 1760.87 1726.97 1750.95 1714.71 1750.94Z" fill="#11C3A9" fill-rule="evenodd" fill-opacity="1"/><path d="M1552.11 1750.94C1539.86 1750.95 1529.93 1760.87 1529.91 1773.11L1529.91 2227.76C1529.93 2240 1539.86 2249.93 1552.11 2249.94L1606.71 2249.94C1618.97 2249.93 1628.9 2240 1628.91 2227.76L1628.91 1773.11C1628.9 1760.87 1618.97 1750.95 1606.71 1750.94Z" fill="#11C3A9" fill-rule="evenodd" fill-opacity="1"/><path d="M1819 1125.5C1819 1229.61 1734.61 1314 1630.5 1314 1526.39 1314 1442 1229.61 1442 1125.5 1442 1021.39 1526.39 937 1630.5 937 1734.61 937 1819 1021.39 1819 1125.5Z" fill="#11C3A9" fill-rule="evenodd" fill-opacity="1"/><path d="M1693.12 1203.94C1705.28 1203.6 1720.42 1203.18 1732.09 1194.68 1739.12 1189.34 1743.43 1181.19 1743.86 1172.38 1744.29 1166.12 1741.76 1160.02 1737.02 1155.89 1730.93 1150.75 1722.03 1149.55 1712.44 1152.36L1722.38 1079.93 1715.08 1078.94 1703.41 1164.08 1709.5 1161.29C1716.56 1158.06 1726.25 1156.42 1732.27 1161.5 1735.26 1164.19 1736.83 1168.12 1736.51 1172.12 1736.15 1178.67 1732.95 1184.74 1727.75 1188.75 1718.67 1195.37 1706.6 1196.22 1692.91 1196.6Z" fill="#2F2E41" fill-rule="evenodd" fill-opacity="1"/><path d="M1759 1086 1798 1086 1798 1093 1759 1093Z" fill="#2F2E41" fill-rule="evenodd" fill-opacity="1"/><path d="M1633 1086 1673 1086 1673 1093 1633 1093Z" fill="#2F2E41" fill-rule="evenodd" fill-opacity="1"/><path d="M1818.71 1887.75 1750.96 1392.46C1749.45 1381.48 1740.08 1373.29 1729.01 1373.29L1677.87 1373.29C1678.09 1372.07 1678.2 1370.83 1678.2 1369.6L1678.2 1351.12C1678.2 1338.87 1668.29 1328.94 1656.06 1328.94L1611.77 1328.94C1599.54 1328.94 1589.62 1338.87 1589.62 1351.12L1589.62 1369.6C1589.63 1370.83 1589.74 1372.07 1589.95 1373.29L1538.81 1373.29C1527.74 1373.29 1518.37 1381.48 1516.87 1392.46L1449.12 1887.75C1447.46 1899.88 1455.94 1911.07 1468.05 1912.73 1469.05 1912.87 1470.05 1912.94 1471.06 1912.94L1796.77 1912.94C1809 1912.94 1818.91 1903.01 1818.91 1890.76 1818.91 1889.75 1818.84 1888.75 1818.71 1887.75Z" fill="#2F2E41" fill-rule="evenodd" fill-opacity="1"/><path d="M1712.91 1637.94 1712.91 1401.79 1714.55 1401.61C1772.43 1395.42 1826.14 1432.52 1840.9 1488.89L1882.91 1600.12Z" fill="#2F2E41" fill-rule="evenodd" fill-opacity="1"/><path d="M2785.01 1683.94 2519.81 1683.94C2499.44 1683.92 2482.94 1667.44 2482.91 1647.1L2482.91 1628.77C2482.94 1608.44 2499.44 1591.96 2519.81 1591.94L2785.01 1591.94C2805.38 1591.96 2821.89 1608.44 2821.91 1628.77L2821.91 1647.1C2821.89 1667.44 2805.38 1683.92 2785.01 1683.94Z" fill="#11C3A9" fill-rule="evenodd" fill-opacity="1"/><path d="M2813.13 1648.94 2547.69 1648.94C2526.29 1648.92 2508.94 1631.56 2508.91 1610.13L2508.91 1591.74C2508.94 1570.32 2526.29 1552.96 2547.69 1552.94L2813.13 1552.94C2834.54 1552.96 2851.89 1570.32 2851.91 1591.74L2851.91 1610.13C2851.89 1631.56 2834.54 1648.92 2813.13 1648.94ZM2547.69 1560.33C2530.36 1560.35 2516.32 1574.4 2516.3 1591.74L2516.3 1610.13C2516.32 1627.48 2530.36 1641.53 2547.69 1641.55L2813.13 1641.55C2830.46 1641.53 2844.51 1627.48 2844.52 1610.13L2844.52 1591.74C2844.51 1574.4 2830.46 1560.35 2813.13 1560.33Z" fill="#3F3D56" fill-rule="evenodd" fill-opacity="1"/></g></g></svg>