<?xml version="1.0" encoding="UTF-8" standalone="no"?>
<!DOCTYPE svg PUBLIC "-//W3C//DTD SVG 1.1//EN" "http://www.w3.org/Graphics/SVG/1.1/DTD/svg11.dtd">
<svg xmlns="http://www.w3.org/2000/svg" version="1.1" viewBox="0.00 0.00 500.00 500.00">
<g stroke-width="2.00" fill="none" stroke-linecap="butt">
<path stroke="#83e3d5" vector-effect="non-scaling-stroke" d="
  M 166.63 224.33
  Q 163.84 238.12 164.03 247.24
  C 164.94 291.14 197.49 326.77 241.91 329.38"
/>
<path stroke="#8ac4ce" vector-effect="non-scaling-stroke" d="
  M 241.91 329.38
  Q 259.08 330.05 274.91 323.21"
/>
<path stroke="#90adbe" vector-effect="non-scaling-stroke" d="
  M 274.91 323.21
  Q 298.75 312.72 312.42 291.64
  Q 337.63 252.75 318.84 208.94
  Q 312.86 194.99 299.00 172.46"
/>
<path stroke="#85d2d2" vector-effect="non-scaling-stroke" d="
  M 299.00 172.46
  Q 294.09 163.72 288.79 155.20
  C 282.23 144.66 277.99 128.38 270.23 117.53
  Q 257.50 99.74 245.99 80.84"
/>
<path stroke="#7ff0da" vector-effect="non-scaling-stroke" d="
  M 245.99 80.84
  Q 245.91 79.32 244.90 77.64
  A 0.32 0.32 0.0 0 0 244.34 77.67
  C 238.17 90.37 229.37 102.84 221.82 114.82
  C 216.81 122.78 212.08 133.59 209.00 139.53
  Q 196.91 162.91 179.05 193.80
  Q 171.11 207.53 166.63 224.33"
/>
<path stroke="#07c3af" vector-effect="non-scaling-stroke" d="
  M 245.99 80.84
  Q 252.96 94.72 261.79 107.70
  C 264.41 111.53 270.94 116.52 268.06 121.39
  Q 267.93 121.62 267.67 121.54
  L 266.61 121.21
  A 0.28 0.27 -4.6 0 0 266.28 121.59
  Q 266.38 121.79 266.47 121.95
  Q 266.71 122.43 266.17 122.43
  L 263.00 122.45"
/>
<path stroke="#7ff0da" vector-effect="non-scaling-stroke" d="
  M 263.00 122.45
  C 249.63 106.89 223.26 113.64 223.43 135.75
  Q 223.57 154.84 223.36 173.93
  C 223.23 185.79 216.62 196.62 207.69 203.44
  C 196.43 212.02 187.20 213.81 183.56 229.07"
/>
<path stroke="#05d4b2" vector-effect="non-scaling-stroke" d="
  M 183.56 229.07
  L 179.93 230.26
  A 0.58 0.58 0.0 0 1 179.18 229.82
  L 179.02 229.04
  Q 178.93 228.55 178.43 228.51
  L 173.62 228.19
  Q 173.16 228.16 172.83 227.84
  L 172.13 227.16
  Q 171.72 226.76 171.14 226.72
  Q 168.98 226.54 166.63 224.33"
/>
<path stroke="#10a9a6" vector-effect="non-scaling-stroke" d="
  M 238.57 312.23
  C 236.00 312.96 237.56 317.01 237.51 318.99
  Q 237.50 319.50 237.78 319.91
  Q 240.62 324.10 241.91 329.38"
/>
<path stroke="#188193" vector-effect="non-scaling-stroke" d="
  M 299.00 172.46
  Q 298.50 173.77 297.87 175.01
  C 297.19 176.34 294.19 187.11 294.40 187.67
  A 1.27 1.27 0.0 0 1 294.40 188.57
  Q 291.56 195.88 291.46 202.50
  Q 291.40 206.55 290.85 208.68"
/>
<path stroke="#85d2d2" vector-effect="non-scaling-stroke" d="
  M 290.85 208.68
  C 277.13 200.39 267.48 186.77 267.50 170.50
  Q 267.52 152.66 267.46 134.81
  Q 267.44 128.67 263.00 122.45"
/>
<path stroke="#90adbe" vector-effect="non-scaling-stroke" d="
  M 290.85 208.68
  Q 304.06 216.06 307.22 230.24
  C 314.31 261.96 300.25 291.89 270.98 306.39"
/>
<path stroke="#8ac4ce" vector-effect="non-scaling-stroke" d="
  M 270.98 306.39
  Q 255.42 313.69 238.57 312.23"
/>
<path stroke="#83e3d5" vector-effect="non-scaling-stroke" d="
  M 238.57 312.23
  C 196.59 306.90 175.06 268.38 183.56 229.07"
/>
<path stroke="#1d738f" vector-effect="non-scaling-stroke" d="
  M 274.91 323.21
  Q 272.88 318.92 271.89 314.51
  Q 271.68 313.54 271.72 310.48
  Q 271.75 308.41 270.98 306.39"
/>
<path stroke="#7e7f7f" vector-effect="non-scaling-stroke" d="
  M 342.48 396.23
  Q 349.46 388.60 348.00 379.52
  C 346.32 369.10 335.24 360.56 324.33 363.08
  C 300.12 368.66 305.43 403.92 329.91 402.41
  C 336.70 401.99 343.23 402.02 349.99 401.99
  Q 350.50 401.99 350.50 401.49
  L 350.50 395.81
  A 0.44 0.44 0.0 0 0 350.15 395.38
  Q 346.20 394.58 342.96 396.68
  A 0.35 0.31 1.5 0 1 342.48 396.23"
/>
<path stroke="#7e7f7f" vector-effect="non-scaling-stroke" d="
  M 158.75 379.00
  A 0.34 0.34 0.0 0 1 159.39 378.84
  L 172.06 401.82
  A 0.34 0.34 0.0 0 0 172.36 402.00
  L 180.41 402.00
  A 0.34 0.34 0.0 0 0 180.75 401.66
  L 180.75 363.48
  A 0.34 0.34 0.0 0 0 180.42 363.14
  L 172.60 362.95
  A 0.34 0.34 0.0 0 0 172.25 363.29
  L 172.25 386.29
  A 0.34 0.34 0.0 0 1 171.61 386.45
  L 158.93 363.47
  A 0.34 0.34 0.0 0 0 158.63 363.30
  L 150.60 363.17
  A 0.34 0.34 0.0 0 0 150.25 363.51
  L 150.25 401.66
  A 0.34 0.34 0.0 0 0 150.59 402.00
  L 158.41 402.00
  A 0.34 0.34 0.0 0 0 158.75 401.66
  L 158.75 379.00"
/>
<path stroke="#7e7f7f" vector-effect="non-scaling-stroke" d="
  M 207.75 371.08
  A 0.33 0.33 0.0 0 1 208.08 370.75
  L 221.42 370.75
  A 0.33 0.33 0.0 0 0 221.75 370.42
  L 221.75 363.63
  A 0.33 0.33 0.0 0 0 221.42 363.30
  L 199.58 362.97
  A 0.33 0.33 0.0 0 0 199.25 363.30
  L 199.25 401.67
  A 0.33 0.33 0.0 0 0 199.58 402.00
  L 221.42 402.00
  A 0.33 0.33 0.0 0 0 221.75 401.67
  L 221.75 394.58
  A 0.33 0.33 0.0 0 0 221.42 394.25
  L 208.08 394.25
  A 0.33 0.33 0.0 0 1 207.75 393.92
  L 207.75 386.57
  A 0.33 0.33 0.0 0 1 208.08 386.24
  L 220.70 386.27
  A 0.33 0.33 0.0 0 0 221.03 385.94
  L 221.03 379.08
  A 0.33 0.33 0.0 0 0 220.70 378.75
  L 208.08 378.75
  A 0.33 0.33 0.0 0 1 207.75 378.42
  L 207.75 371.08"
/>
<path stroke="#7e7f7f" vector-effect="non-scaling-stroke" d="
  M 247.65 370.75
  A 0.35 0.35 0.0 0 1 248.00 371.10
  L 247.99 401.65
  A 0.35 0.35 0.0 0 0 248.34 402.00
  L 256.15 402.00
  A 0.35 0.35 0.0 0 0 256.50 401.65
  L 256.50 371.10
  A 0.35 0.35 0.0 0 1 256.85 370.75
  L 267.15 370.75
  A 0.35 0.35 0.0 0 0 267.50 370.40
  L 267.50 363.58
  A 0.35 0.35 0.0 0 0 267.15 363.23
  L 237.10 363.26
  A 0.35 0.35 0.0 0 0 236.75 363.61
  L 236.75 370.40
  A 0.35 0.35 0.0 0 0 237.10 370.75
  L 247.65 370.75"
/>
<path stroke="#7e7f7f" vector-effect="non-scaling-stroke" d="
  M 291.25 363.46
  A 0.26 0.26 0.0 0 0 290.99 363.20
  L 283.01 363.20
  A 0.26 0.26 0.0 0 0 282.75 363.46
  L 282.75 401.74
  A 0.26 0.26 0.0 0 0 283.01 402.00
  L 290.99 402.00
  A 0.26 0.26 0.0 0 0 291.25 401.74
  L 291.25 363.46"
/>
<path stroke="#7fd5ed" vector-effect="non-scaling-stroke" d="
  M 249.56 132.56
  Q 250.33 134.42 250.21 136.41
  Q 250.18 136.97 249.61 136.95
  L 241.22 136.67
  Q 240.59 136.65 240.54 137.28
  L 240.21 141.77
  Q 240.16 142.39 240.78 142.41
  L 248.95 142.76
  Q 249.61 142.79 249.67 143.45
  L 250.00 146.98
  A 0.45 0.44 -2.9 0 1 249.55 147.47
  L 240.39 147.52"
/>
<path stroke="#7ff0da" vector-effect="non-scaling-stroke" d="
  M 240.39 147.52
  L 233.37 147.74
  Q 232.75 147.76 232.78 148.38
  L 232.97 151.73
  A 0.96 0.96 0.0 0 0 233.58 152.56
  Q 236.69 153.74 240.28 153.51"
/>
<path stroke="#7fd5ed" vector-effect="non-scaling-stroke" d="
  M 240.28 153.51
  L 249.43 154.04
  Q 250.10 154.08 250.02 154.75
  L 249.69 157.74
  Q 249.62 158.36 249.00 158.36
  L 233.59 158.56
  Q 233.00 158.56 233.00 159.16
  L 233.00 163.84
  A 0.61 0.60 1.0 0 0 233.59 164.44
  L 249.41 164.81
  Q 250.00 164.83 250.00 165.41
  L 250.00 169.03
  Q 250.00 169.57 249.47 169.56
  L 240.79 169.49
  A 0.62 0.62 0.0 0 0 240.17 170.15
  L 240.46 174.70
  A 0.79 0.77 89.1 0 0 241.20 175.43
  L 249.16 175.80
  A 0.62 0.62 0.0 0 1 249.75 176.42
  L 249.75 179.67
  Q 249.75 180.20 249.22 180.21
  Q 245.07 180.29 240.98 180.34
  Q 239.99 180.35 240.18 182.12"
/>
<path stroke="#7ff0da" vector-effect="non-scaling-stroke" d="
  M 240.18 182.12
  Q 237.20 180.13 233.63 180.86
  Q 233.12 180.96 233.07 181.48
  L 232.74 185.04
  A 0.56 0.55 -86.0 0 0 233.26 185.65
  L 240.24 186.06"
/>
<path stroke="#7fd5ed" vector-effect="non-scaling-stroke" d="
  M 240.24 186.06
  L 248.96 186.51
  Q 249.68 186.54 249.68 187.26
  L 249.87 243.00"
/>
<path stroke="#7fc8e1" vector-effect="non-scaling-stroke" d="
  M 249.87 243.00
  Q 249.68 256.97 249.72 270.93
  C 249.74 276.76 241.23 275.56 241.24 270.75
  Q 241.28 255.64 241.22 240.48"
/>
<path stroke="#7fd5ed" vector-effect="non-scaling-stroke" d="
  M 241.22 240.48
  L 241.23 213.55
  A 0.95 0.94 -0.9 0 0 240.24 212.60
  C 225.59 213.14 209.48 229.20 206.15 242.96"
/>
<path stroke="#7fc8e1" vector-effect="non-scaling-stroke" d="
  M 206.15 242.96
  C 203.69 258.77 208.09 272.35 219.90 281.83
  C 249.09 305.24 288.79 280.80 283.92 245.23"
/>
<path stroke="#7fd5ed" vector-effect="non-scaling-stroke" d="
  M 283.92 245.23
  C 280.22 230.69 270.30 219.82 257.01 214.20
  A 1.73 1.73 0.0 0 1 255.95 212.59
  L 256.16 132.27"
/>
<path stroke="#7ff0da" vector-effect="non-scaling-stroke" d="
  M 256.16 132.27
  C 255.45 116.90 231.07 118.63 233.11 136.78
  Q 233.18 137.41 233.82 137.44
  L 235.90 137.52
  A 0.62 0.61 -2.0 0 0 236.54 136.84
  L 236.19 133.81
  A 1.16 1.16 0.0 0 1 237.35 132.52
  L 249.56 132.56"
/>
<path stroke="#02c7ca" vector-effect="non-scaling-stroke" d="
  M 256.16 132.27
  Q 255.53 133.44 253.94 132.90
  Q 253.45 132.74 253.11 132.35
  Q 251.63 130.68 249.56 132.56"
/>
<path stroke="#029fd1" vector-effect="non-scaling-stroke" d="
  M 283.92 245.23
  Q 280.51 244.37 277.34 243.74
  C 273.14 242.90 266.43 244.17 263.25 243.00
  C 259.06 241.47 254.49 243.00 250.77 239.79
  Q 250.27 239.36 250.19 240.02
  L 249.87 243.00"
/>
<path stroke="#02c7ca" vector-effect="non-scaling-stroke" d="
  M 240.24 186.06
  L 240.18 182.12"
/>
<path stroke="#02c7ca" vector-effect="non-scaling-stroke" d="
  M 240.28 153.51
  L 240.39 147.52"
/>
<path stroke="#029fd1" vector-effect="non-scaling-stroke" d="
  M 241.22 240.48
  L 240.86 243.23
  Q 240.77 243.90 240.14 243.67
  C 237.60 242.77 235.34 241.64 232.56 241.87
  C 228.48 242.21 224.68 242.79 220.47 242.68
  Q 214.25 242.51 208.04 243.17
  A 0.94 0.94 0.0 0 1 207.27 242.90
  L 207.04 242.67
  Q 206.81 242.43 206.59 242.69
  Q 206.37 242.95 206.15 242.96"
/>
<path stroke="#7ff0da" vector-effect="non-scaling-stroke" d="
  M 240.83 200.05
  L 240.65 203.73
  A 0.43 0.39 -44.8 0 0 241.47 203.69
  Q 241.59 201.83 241.24 199.99"
/>
<path stroke="#7fd5ed" vector-effect="non-scaling-stroke" d="
  M 241.24 199.99
  L 241.23 194.49
  Q 241.23 194.00 240.74 194.00
  L 233.58 194.00
  A 0.69 0.69 0.0 0 0 232.89 194.66
  L 232.69 199.20
  Q 232.67 199.72 233.20 199.71
  L 239.73 199.52
  A 0.89 0.88 66.6 0 1 240.38 199.78
  Q 240.56 199.95 240.83 200.05"
/>
<path stroke="#02c7ca" vector-effect="non-scaling-stroke" d="
  M 241.24 199.99
  Q 240.92 199.99 240.83 200.05"
/>
<path stroke="#7fd5ed" vector-effect="non-scaling-stroke" d="
  M 236.5457 208.5110
  A 3.30 2.93 69.5 0 0 238.1344 204.3939
  A 3.30 2.93 69.5 0 0 234.2343 202.3290
  A 3.30 2.93 69.5 0 0 232.6456 206.4461
  A 3.30 2.93 69.5 0 0 236.5457 208.5110"
/>
<path stroke="#02c7ca" vector-effect="non-scaling-stroke" d="
  M 236.4343 204.9588
  A 1.20 1.05 -32.3 0 0 234.8589 204.7125
  A 1.20 1.05 -32.3 0 0 234.4057 206.2412
  A 1.20 1.05 -32.3 0 0 235.9811 206.4875
  A 1.20 1.05 -32.3 0 0 236.4343 204.9588"
/>
<path stroke="#7fc8e1" vector-effect="non-scaling-stroke" d="
  M 273.37 258.10
  C 271.51 274.23 258.65 283.21 243.15 283.34
  Q 242.59 283.34 242.65 283.89
  L 242.78 285.19
  Q 242.83 285.67 243.31 285.64
  C 260.38 284.51 274.51 274.13 275.09 255.89
  A 0.79 0.79 0.0 0 0 273.63 255.44
  C 273.41 255.79 273.42 257.61 273.37 258.10"
/>
<path stroke="#7e7f7f" vector-effect="non-scaling-stroke" d="
  M 339.51 382.52
  A 11.24 11.24 0.0 0 0 328.27 371.28
  A 11.24 11.24 0.0 0 0 317.03 382.52
  A 11.24 11.24 0.0 0 0 328.27 393.76
  A 11.24 11.24 0.0 0 0 339.51 382.52"
/>
</g>
<path fill="#fcfefd" d="
  M 0.00 0.00
  L 500.00 0.00
  L 500.00 500.00
  L 0.00 500.00
  L 0.00 0.00
  Z
  M 166.63 224.33
  Q 163.84 238.12 164.03 247.24
  C 164.94 291.14 197.49 326.77 241.91 329.38
  Q 259.08 330.05 274.91 323.21
  Q 298.75 312.72 312.42 291.64
  Q 337.63 252.75 318.84 208.94
  Q 312.86 194.99 299.00 172.46
  Q 294.09 163.72 288.79 155.20
  C 282.23 144.66 277.99 128.38 270.23 117.53
  Q 257.50 99.74 245.99 80.84
  Q 245.91 79.32 244.90 77.64
  A 0.32 0.32 0.0 0 0 244.34 77.67
  C 238.17 90.37 229.37 102.84 221.82 114.82
  C 216.81 122.78 212.08 133.59 209.00 139.53
  Q 196.91 162.91 179.05 193.80
  Q 171.11 207.53 166.63 224.33
  Z
  M 342.48 396.23
  Q 349.46 388.60 348.00 379.52
  C 346.32 369.10 335.24 360.56 324.33 363.08
  C 300.12 368.66 305.43 403.92 329.91 402.41
  C 336.70 401.99 343.23 402.02 349.99 401.99
  Q 350.50 401.99 350.50 401.49
  L 350.50 395.81
  A 0.44 0.44 0.0 0 0 350.15 395.38
  Q 346.20 394.58 342.96 396.68
  A 0.35 0.31 1.5 0 1 342.48 396.23
  Z
  M 158.75 379.00
  A 0.34 0.34 0.0 0 1 159.39 378.84
  L 172.06 401.82
  A 0.34 0.34 0.0 0 0 172.36 402.00
  L 180.41 402.00
  A 0.34 0.34 0.0 0 0 180.75 401.66
  L 180.75 363.48
  A 0.34 0.34 0.0 0 0 180.42 363.14
  L 172.60 362.95
  A 0.34 0.34 0.0 0 0 172.25 363.29
  L 172.25 386.29
  A 0.34 0.34 0.0 0 1 171.61 386.45
  L 158.93 363.47
  A 0.34 0.34 0.0 0 0 158.63 363.30
  L 150.60 363.17
  A 0.34 0.34 0.0 0 0 150.25 363.51
  L 150.25 401.66
  A 0.34 0.34 0.0 0 0 150.59 402.00
  L 158.41 402.00
  A 0.34 0.34 0.0 0 0 158.75 401.66
  L 158.75 379.00
  Z
  M 207.75 371.08
  A 0.33 0.33 0.0 0 1 208.08 370.75
  L 221.42 370.75
  A 0.33 0.33 0.0 0 0 221.75 370.42
  L 221.75 363.63
  A 0.33 0.33 0.0 0 0 221.42 363.30
  L 199.58 362.97
  A 0.33 0.33 0.0 0 0 199.25 363.30
  L 199.25 401.67
  A 0.33 0.33 0.0 0 0 199.58 402.00
  L 221.42 402.00
  A 0.33 0.33 0.0 0 0 221.75 401.67
  L 221.75 394.58
  A 0.33 0.33 0.0 0 0 221.42 394.25
  L 208.08 394.25
  A 0.33 0.33 0.0 0 1 207.75 393.92
  L 207.75 386.57
  A 0.33 0.33 0.0 0 1 208.08 386.24
  L 220.70 386.27
  A 0.33 0.33 0.0 0 0 221.03 385.94
  L 221.03 379.08
  A 0.33 0.33 0.0 0 0 220.70 378.75
  L 208.08 378.75
  A 0.33 0.33 0.0 0 1 207.75 378.42
  L 207.75 371.08
  Z
  M 247.65 370.75
  A 0.35 0.35 0.0 0 1 248.00 371.10
  L 247.99 401.65
  A 0.35 0.35 0.0 0 0 248.34 402.00
  L 256.15 402.00
  A 0.35 0.35 0.0 0 0 256.50 401.65
  L 256.50 371.10
  A 0.35 0.35 0.0 0 1 256.85 370.75
  L 267.15 370.75
  A 0.35 0.35 0.0 0 0 267.50 370.40
  L 267.50 363.58
  A 0.35 0.35 0.0 0 0 267.15 363.23
  L 237.10 363.26
  A 0.35 0.35 0.0 0 0 236.75 363.61
  L 236.75 370.40
  A 0.35 0.35 0.0 0 0 237.10 370.75
  L 247.65 370.75
  Z
  M 291.25 363.46
  A 0.26 0.26 0.0 0 0 290.99 363.20
  L 283.01 363.20
  A 0.26 0.26 0.0 0 0 282.75 363.46
  L 282.75 401.74
  A 0.26 0.26 0.0 0 0 283.01 402.00
  L 290.99 402.00
  A 0.26 0.26 0.0 0 0 291.25 401.74
  L 291.25 363.46
  Z"
/>
<path fill="#01e1b7" d="
  M 245.99 80.84
  Q 252.96 94.72 261.79 107.70
  C 264.41 111.53 270.94 116.52 268.06 121.39
  Q 267.93 121.62 267.67 121.54
  L 266.61 121.21
  A 0.28 0.27 -4.6 0 0 266.28 121.59
  Q 266.38 121.79 266.47 121.95
  Q 266.71 122.43 266.17 122.43
  L 263.00 122.45
  C 249.63 106.89 223.26 113.64 223.43 135.75
  Q 223.57 154.84 223.36 173.93
  C 223.23 185.79 216.62 196.62 207.69 203.44
  C 196.43 212.02 187.20 213.81 183.56 229.07
  L 179.93 230.26
  A 0.58 0.58 0.0 0 1 179.18 229.82
  L 179.02 229.04
  Q 178.93 228.55 178.43 228.51
  L 173.62 228.19
  Q 173.16 228.16 172.83 227.84
  L 172.13 227.16
  Q 171.72 226.76 171.14 226.72
  Q 168.98 226.54 166.63 224.33
  Q 171.11 207.53 179.05 193.80
  Q 196.91 162.91 209.00 139.53
  C 212.08 133.59 216.81 122.78 221.82 114.82
  C 229.37 102.84 238.17 90.37 244.34 77.67
  A 0.32 0.32 0.0 0 1 244.90 77.64
  Q 245.91 79.32 245.99 80.84
  Z"
/>
<path fill="#0da5a7" d="
  M 245.99 80.84
  Q 257.50 99.74 270.23 117.53
  C 277.99 128.38 282.23 144.66 288.79 155.20
  Q 294.09 163.72 299.00 172.46
  Q 298.50 173.77 297.87 175.01
  C 297.19 176.34 294.19 187.11 294.40 187.67
  A 1.27 1.27 0.0 0 1 294.40 188.57
  Q 291.56 195.88 291.46 202.50
  Q 291.40 206.55 290.85 208.68
  C 277.13 200.39 267.48 186.77 267.50 170.50
  Q 267.52 152.66 267.46 134.81
  Q 267.44 128.67 263.00 122.45
  L 266.17 122.43
  Q 266.71 122.43 266.47 121.95
  Q 266.38 121.79 266.28 121.59
  A 0.28 0.27 -4.6 0 1 266.61 121.21
  L 267.67 121.54
  Q 267.93 121.62 268.06 121.39
  C 270.94 116.52 264.41 111.53 261.79 107.70
  Q 252.96 94.72 245.99 80.84
  Z"
/>
<path fill="#fcfefd" d="
  M 263.00 122.45
  Q 267.44 128.67 267.46 134.81
  Q 267.52 152.66 267.50 170.50
  C 267.48 186.77 277.13 200.39 290.85 208.68
  Q 304.06 216.06 307.22 230.24
  C 314.31 261.96 300.25 291.89 270.98 306.39
  Q 255.42 313.69 238.57 312.23
  C 196.59 306.90 175.06 268.38 183.56 229.07
  C 187.20 213.81 196.43 212.02 207.69 203.44
  C 216.62 196.62 223.23 185.79 223.36 173.93
  Q 223.57 154.84 223.43 135.75
  C 223.26 113.64 249.63 106.89 263.00 122.45
  Z
  M 249.56 132.56
  Q 250.33 134.42 250.21 136.41
  Q 250.18 136.97 249.61 136.95
  L 241.22 136.67
  Q 240.59 136.65 240.54 137.28
  L 240.21 141.77
  Q 240.16 142.39 240.78 142.41
  L 248.95 142.76
  Q 249.61 142.79 249.67 143.45
  L 250.00 146.98
  A 0.45 0.44 -2.9 0 1 249.55 147.47
  L 240.39 147.52
  L 233.37 147.74
  Q 232.75 147.76 232.78 148.38
  L 232.97 151.73
  A 0.96 0.96 0.0 0 0 233.58 152.56
  Q 236.69 153.74 240.28 153.51
  L 249.43 154.04
  Q 250.10 154.08 250.02 154.75
  L 249.69 157.74
  Q 249.62 158.36 249.00 158.36
  L 233.59 158.56
  Q 233.00 158.56 233.00 159.16
  L 233.00 163.84
  A 0.61 0.60 1.0 0 0 233.59 164.44
  L 249.41 164.81
  Q 250.00 164.83 250.00 165.41
  L 250.00 169.03
  Q 250.00 169.57 249.47 169.56
  L 240.79 169.49
  A 0.62 0.62 0.0 0 0 240.17 170.15
  L 240.46 174.70
  A 0.79 0.77 89.1 0 0 241.20 175.43
  L 249.16 175.80
  A 0.62 0.62 0.0 0 1 249.75 176.42
  L 249.75 179.67
  Q 249.75 180.20 249.22 180.21
  Q 245.07 180.29 240.98 180.34
  Q 239.99 180.35 240.18 182.12
  Q 237.20 180.13 233.63 180.86
  Q 233.12 180.96 233.07 181.48
  L 232.74 185.04
  A 0.56 0.55 -86.0 0 0 233.26 185.65
  L 240.24 186.06
  L 248.96 186.51
  Q 249.68 186.54 249.68 187.26
  L 249.87 243.00
  Q 249.68 256.97 249.72 270.93
  C 249.74 276.76 241.23 275.56 241.24 270.75
  Q 241.28 255.64 241.22 240.48
  L 241.23 213.55
  A 0.95 0.94 -0.9 0 0 240.24 212.60
  C 225.59 213.14 209.48 229.20 206.15 242.96
  C 203.69 258.77 208.09 272.35 219.90 281.83
  C 249.09 305.24 288.79 280.80 283.92 245.23
  C 280.22 230.69 270.30 219.82 257.01 214.20
  A 1.73 1.73 0.0 0 1 255.95 212.59
  L 256.16 132.27
  C 255.45 116.90 231.07 118.63 233.11 136.78
  Q 233.18 137.41 233.82 137.44
  L 235.90 137.52
  A 0.62 0.61 -2.0 0 0 236.54 136.84
  L 236.19 133.81
  A 1.16 1.16 0.0 0 1 237.35 132.52
  L 249.56 132.56
  Z
  M 240.83 200.05
  L 240.65 203.73
  A 0.43 0.39 -44.8 0 0 241.47 203.69
  Q 241.59 201.83 241.24 199.99
  L 241.23 194.49
  Q 241.23 194.00 240.74 194.00
  L 233.58 194.00
  A 0.69 0.69 0.0 0 0 232.89 194.66
  L 232.69 199.20
  Q 232.67 199.72 233.20 199.71
  L 239.73 199.52
  A 0.89 0.88 66.6 0 1 240.38 199.78
  Q 240.56 199.95 240.83 200.05
  Z
  M 236.5457 208.5110
  A 3.30 2.93 69.5 0 0 238.1344 204.3939
  A 3.30 2.93 69.5 0 0 234.2343 202.3290
  A 3.30 2.93 69.5 0 0 232.6456 206.4461
  A 3.30 2.93 69.5 0 0 236.5457 208.5110
  Z"
/>
<path fill="#01e1b7" d="
  M 256.16 132.27
  Q 255.53 133.44 253.94 132.90
  Q 253.45 132.74 253.11 132.35
  Q 251.63 130.68 249.56 132.56
  L 237.35 132.52
  A 1.16 1.16 0.0 0 0 236.19 133.81
  L 236.54 136.84
  A 0.62 0.61 -2.0 0 1 235.90 137.52
  L 233.82 137.44
  Q 233.18 137.41 233.11 136.78
  C 231.07 118.63 255.45 116.90 256.16 132.27
  Z"
/>
<path fill="#02acdd" d="
  M 256.16 132.27
  L 255.95 212.59
  A 1.73 1.73 0.0 0 0 257.01 214.20
  C 270.30 219.82 280.22 230.69 283.92 245.23
  Q 280.51 244.37 277.34 243.74
  C 273.14 242.90 266.43 244.17 263.25 243.00
  C 259.06 241.47 254.49 243.00 250.77 239.79
  Q 250.27 239.36 250.19 240.02
  L 249.87 243.00
  L 249.68 187.26
  Q 249.68 186.54 248.96 186.51
  L 240.24 186.06
  L 240.18 182.12
  Q 239.99 180.35 240.98 180.34
  Q 245.07 180.29 249.22 180.21
  Q 249.75 180.20 249.75 179.67
  L 249.75 176.42
  A 0.62 0.62 0.0 0 0 249.16 175.80
  L 241.20 175.43
  A 0.79 0.77 89.1 0 1 240.46 174.70
  L 240.17 170.15
  A 0.62 0.62 0.0 0 1 240.79 169.49
  L 249.47 169.56
  Q 250.00 169.57 250.00 169.03
  L 250.00 165.41
  Q 250.00 164.83 249.41 164.81
  L 233.59 164.44
  A 0.61 0.60 1.0 0 1 233.00 163.84
  L 233.00 159.16
  Q 233.00 158.56 233.59 158.56
  L 249.00 158.36
  Q 249.62 158.36 249.69 157.74
  L 250.02 154.75
  Q 250.10 154.08 249.43 154.04
  L 240.28 153.51
  L 240.39 147.52
  L 249.55 147.47
  A 0.45 0.44 -2.9 0 0 250.00 146.98
  L 249.67 143.45
  Q 249.61 142.79 248.95 142.76
  L 240.78 142.41
  Q 240.16 142.39 240.21 141.77
  L 240.54 137.28
  Q 240.59 136.65 241.22 136.67
  L 249.61 136.95
  Q 250.18 136.97 250.21 136.41
  Q 250.33 134.42 249.56 132.56
  Q 251.63 130.68 253.11 132.35
  Q 253.45 132.74 253.94 132.90
  Q 255.53 133.44 256.16 132.27
  Z"
/>
<path fill="#01e1b7" d="
  M 240.39 147.52
  L 240.28 153.51
  Q 236.69 153.74 233.58 152.56
  A 0.96 0.96 0.0 0 1 232.97 151.73
  L 232.78 148.38
  Q 232.75 147.76 233.37 147.74
  L 240.39 147.52
  Z"
/>
<path fill="#235c7f" d="
  M 299.00 172.46
  Q 312.86 194.99 318.84 208.94
  Q 337.63 252.75 312.42 291.64
  Q 298.75 312.72 274.91 323.21
  Q 272.88 318.92 271.89 314.51
  Q 271.68 313.54 271.72 310.48
  Q 271.75 308.41 270.98 306.39
  C 300.25 291.89 314.31 261.96 307.22 230.24
  Q 304.06 216.06 290.85 208.68
  Q 291.40 206.55 291.46 202.50
  Q 291.56 195.88 294.40 188.57
  A 1.27 1.27 0.0 0 0 294.40 187.67
  C 294.19 187.11 297.19 176.34 297.87 175.01
  Q 298.50 173.77 299.00 172.46
  Z"
/>
<path fill="#01e1b7" d="
  M 240.18 182.12
  L 240.24 186.06
  L 233.26 185.65
  A 0.56 0.55 -86.0 0 1 232.74 185.04
  L 233.07 181.48
  Q 233.12 180.96 233.63 180.86
  Q 237.20 180.13 240.18 182.12
  Z"
/>
<path fill="#02acdd" d="
  M 241.24 199.99
  Q 240.92 199.99 240.83 200.05
  Q 240.56 199.95 240.38 199.78
  A 0.89 0.88 66.6 0 0 239.73 199.52
  L 233.20 199.71
  Q 232.67 199.72 232.69 199.20
  L 232.89 194.66
  A 0.69 0.69 0.0 0 1 233.58 194.00
  L 240.74 194.00
  Q 241.23 194.00 241.23 194.49
  L 241.24 199.99
  Z"
/>
<path fill="#01e1b7" d="
  M 240.83 200.05
  Q 240.92 199.99 241.24 199.99
  Q 241.59 201.83 241.47 203.69
  A 0.43 0.39 -44.8 0 1 240.65 203.73
  L 240.83 200.05
  Z"
/>
<path fill="#02acdd" d="
  M 236.5457 208.5110
  A 3.30 2.93 69.5 0 1 232.6456 206.4461
  A 3.30 2.93 69.5 0 1 234.2343 202.3290
  A 3.30 2.93 69.5 0 1 238.1344 204.3939
  A 3.30 2.93 69.5 0 1 236.5457 208.5110
  Z
  M 236.4343 204.9588
  A 1.20 1.05 -32.3 0 0 234.8589 204.7125
  A 1.20 1.05 -32.3 0 0 234.4057 206.2412
  A 1.20 1.05 -32.3 0 0 235.9811 206.4875
  A 1.20 1.05 -32.3 0 0 236.4343 204.9588
  Z"
/>
<ellipse fill="#01e1b7" cx="0.00" cy="0.00" transform="translate(235.42,205.60) rotate(-32.3)" rx="1.20" ry="1.05"/>
<path fill="#02acdd" d="
  M 241.22 240.48
  L 240.86 243.23
  Q 240.77 243.90 240.14 243.67
  C 237.60 242.77 235.34 241.64 232.56 241.87
  C 228.48 242.21 224.68 242.79 220.47 242.68
  Q 214.25 242.51 208.04 243.17
  A 0.94 0.94 0.0 0 1 207.27 242.90
  L 207.04 242.67
  Q 206.81 242.43 206.59 242.69
  Q 206.37 242.95 206.15 242.96
  C 209.48 229.20 225.59 213.14 240.24 212.60
  A 0.95 0.94 -0.9 0 1 241.23 213.55
  L 241.22 240.48
  Z"
/>
<path fill="#09c7ac" d="
  M 183.56 229.07
  C 175.06 268.38 196.59 306.90 238.57 312.23
  C 236.00 312.96 237.56 317.01 237.51 318.99
  Q 237.50 319.50 237.78 319.91
  Q 240.62 324.10 241.91 329.38
  C 197.49 326.77 164.94 291.14 164.03 247.24
  Q 163.84 238.12 166.63 224.33
  Q 168.98 226.54 171.14 226.72
  Q 171.72 226.76 172.13 227.16
  L 172.83 227.84
  Q 173.16 228.16 173.62 228.19
  L 178.43 228.51
  Q 178.93 228.55 179.02 229.04
  L 179.18 229.82
  A 0.58 0.58 0.0 0 0 179.93 230.26
  L 183.56 229.07
  Z"
/>
<path fill="#0192c4" d="
  M 283.92 245.23
  C 288.79 280.80 249.09 305.24 219.90 281.83
  C 208.09 272.35 203.69 258.77 206.15 242.96
  Q 206.37 242.95 206.59 242.69
  Q 206.81 242.43 207.04 242.67
  L 207.27 242.90
  A 0.94 0.94 0.0 0 0 208.04 243.17
  Q 214.25 242.51 220.47 242.68
  C 224.68 242.79 228.48 242.21 232.56 241.87
  C 235.34 241.64 237.60 242.77 240.14 243.67
  Q 240.77 243.90 240.86 243.23
  L 241.22 240.48
  Q 241.28 255.64 241.24 270.75
  C 241.23 275.56 249.74 276.76 249.72 270.93
  Q 249.68 256.97 249.87 243.00
  L 250.19 240.02
  Q 250.27 239.36 250.77 239.79
  C 254.49 243.00 259.06 241.47 263.25 243.00
  C 266.43 244.17 273.14 242.90 277.34 243.74
  Q 280.51 244.37 283.92 245.23
  Z
  M 273.37 258.10
  C 271.51 274.23 258.65 283.21 243.15 283.34
  Q 242.59 283.34 242.65 283.89
  L 242.78 285.19
  Q 242.83 285.67 243.31 285.64
  C 260.38 284.51 274.51 274.13 275.09 255.89
  A 0.79 0.79 0.0 0 0 273.63 255.44
  C 273.41 255.79 273.42 257.61 273.37 258.10
  Z"
/>
<path fill="#fcfefd" d="
  M 273.37 258.10
  C 273.42 257.61 273.41 255.79 273.63 255.44
  A 0.79 0.79 0.0 0 1 275.09 255.89
  C 274.51 274.13 260.38 284.51 243.31 285.64
  Q 242.83 285.67 242.78 285.19
  L 242.65 283.89
  Q 242.59 283.34 243.15 283.34
  C 258.65 283.21 271.51 274.23 273.37 258.10
  Z"
/>
<path fill="#178a9f" d="
  M 270.98 306.39
  Q 271.75 308.41 271.72 310.48
  Q 271.68 313.54 271.89 314.51
  Q 272.88 318.92 274.91 323.21
  Q 259.08 330.05 241.91 329.38
  Q 240.62 324.10 237.78 319.91
  Q 237.50 319.50 237.51 318.99
  C 237.56 317.01 236.00 312.96 238.57 312.23
  Q 255.42 313.69 270.98 306.39
  Z"
/>
<path fill="#000000" d="
  M 342.96 396.68
  Q 346.20 394.58 350.15 395.38
  A 0.44 0.44 0.0 0 1 350.50 395.81
  L 350.50 401.49
  Q 350.50 401.99 349.99 401.99
  C 343.23 402.02 336.70 401.99 329.91 402.41
  C 305.43 403.92 300.12 368.66 324.33 363.08
  C 335.24 360.56 346.32 369.10 348.00 379.52
  Q 349.46 388.60 342.48 396.23
  A 0.35 0.31 1.5 0 0 342.96 396.68
  Z
  M 339.51 382.52
  A 11.24 11.24 0.0 0 0 328.27 371.28
  A 11.24 11.24 0.0 0 0 317.03 382.52
  A 11.24 11.24 0.0 0 0 328.27 393.76
  A 11.24 11.24 0.0 0 0 339.51 382.52
  Z"
/>
<path fill="#000000" d="
  M 158.75 379.00
  L 158.75 401.66
  A 0.34 0.34 0.0 0 1 158.41 402.00
  L 150.59 402.00
  A 0.34 0.34 0.0 0 1 150.25 401.66
  L 150.25 363.51
  A 0.34 0.34 0.0 0 1 150.60 363.17
  L 158.63 363.30
  A 0.34 0.34 0.0 0 1 158.93 363.47
  L 171.61 386.45
  A 0.34 0.34 0.0 0 0 172.25 386.29
  L 172.25 363.29
  A 0.34 0.34 0.0 0 1 172.60 362.95
  L 180.42 363.14
  A 0.34 0.34 0.0 0 1 180.75 363.48
  L 180.75 401.66
  A 0.34 0.34 0.0 0 1 180.41 402.00
  L 172.36 402.00
  A 0.34 0.34 0.0 0 1 172.06 401.82
  L 159.39 378.84
  A 0.34 0.34 0.0 0 0 158.75 379.00
  Z"
/>
<path fill="#000000" d="
  M 207.75 371.08
  L 207.75 378.42
  A 0.33 0.33 0.0 0 0 208.08 378.75
  L 220.70 378.75
  A 0.33 0.33 0.0 0 1 221.03 379.08
  L 221.03 385.94
  A 0.33 0.33 0.0 0 1 220.70 386.27
  L 208.08 386.24
  A 0.33 0.33 0.0 0 0 207.75 386.57
  L 207.75 393.92
  A 0.33 0.33 0.0 0 0 208.08 394.25
  L 221.42 394.25
  A 0.33 0.33 0.0 0 1 221.75 394.58
  L 221.75 401.67
  A 0.33 0.33 0.0 0 1 221.42 402.00
  L 199.58 402.00
  A 0.33 0.33 0.0 0 1 199.25 401.67
  L 199.25 363.30
  A 0.33 0.33 0.0 0 1 199.58 362.97
  L 221.42 363.30
  A 0.33 0.33 0.0 0 1 221.75 363.63
  L 221.75 370.42
  A 0.33 0.33 0.0 0 1 221.42 370.75
  L 208.08 370.75
  A 0.33 0.33 0.0 0 0 207.75 371.08
  Z"
/>
<path fill="#000000" d="
  M 247.65 370.75
  L 237.10 370.75
  A 0.35 0.35 0.0 0 1 236.75 370.40
  L 236.75 363.61
  A 0.35 0.35 0.0 0 1 237.10 363.26
  L 267.15 363.23
  A 0.35 0.35 0.0 0 1 267.50 363.58
  L 267.50 370.40
  A 0.35 0.35 0.0 0 1 267.15 370.75
  L 256.85 370.75
  A 0.35 0.35 0.0 0 0 256.50 371.10
  L 256.50 401.65
  A 0.35 0.35 0.0 0 1 256.15 402.00
  L 248.34 402.00
  A 0.35 0.35 0.0 0 1 247.99 401.65
  L 248.00 371.10
  A 0.35 0.35 0.0 0 0 247.65 370.75
  Z"
/>
<rect fill="#000000" x="282.75" y="363.20" width="8.50" height="38.80" rx="0.26"/>
<circle fill="#fcfefd" cx="328.27" cy="382.52" r="11.24"/>
</svg>
