<?xml version="1.0" encoding="UTF-8" standalone="no"?>
<!DOCTYPE svg PUBLIC "-//W3C//DTD SVG 1.1//EN" "http://www.w3.org/Graphics/SVG/1.1/DTD/svg11.dtd">
<svg xmlns="http://www.w3.org/2000/svg" version="1.1" viewBox="0.00 0.00 500.00 500.00">
<g stroke-width="2.00" fill="none" stroke-linecap="butt">
<path stroke="#08bead" vector-effect="non-scaling-stroke" d="
  M 278.73 141.71
  Q 278.44 145.94 279.34 150.10
  C 280.09 153.56 282.50 156.87 283.74 160.54
  Q 283.92 161.06 283.54 161.46
  L 281.60 163.49
  Q 281.49 163.61 281.42 163.46
  Q 281.32 163.26 281.15 163.11
  Q 280.92 162.91 280.73 163.14
  L 280.20 163.75
  Q 280.06 163.90 280.06 163.70
  Q 280.05 162.22 278.75 161.54"
/>
<path stroke="#0eb1a9" vector-effect="non-scaling-stroke" d="
  M 233.01 388.93
  Q 232.85 389.37 233.76 389.69
  Q 234.46 389.93 233.90 390.41
  L 233.04 391.15
  Q 232.52 391.59 233.01 392.06
  Q 234.77 393.71 235.75 395.96
  A 1.15 1.10 -88.9 0 0 236.25 396.50
  L 237.56 397.16
  A 1.32 1.32 0.0 0 1 238.23 397.97
  Q 239.63 402.71 243.28 406.06
  A 0.06 0.06 0.0 0 1 243.26 406.16
  Q 243.13 406.21 242.99 406.25
  Q 242.77 406.31 242.85 406.52
  L 244.24 410.28
  Q 244.39 410.70 243.95 410.73
  Q 243.65 410.76 243.49 411.02"
/>
<path stroke="#188093" vector-effect="non-scaling-stroke" d="
  M 320.77 219.74
  Q 318.76 220.58 319.02 223.03
  Q 319.08 223.55 318.62 223.81
  Q 317.71 224.31 317.75 225.26
  Q 317.76 225.75 317.52 226.17
  C 315.65 229.36 315.26 232.82 314.21 236.32
  C 313.06 240.12 312.52 243.89 311.50 247.70
  C 310.36 252.02 311.08 256.32 309.74 260.83"
/>
<path stroke="#1e728f" vector-effect="non-scaling-stroke" d="
  M 297.04 399.20
  Q 292.77 389.62 291.29 379.43"
/>
<path stroke="#03c3c9" vector-effect="non-scaling-stroke" d="
  M 265.21 166.81
  Q 262.04 165.62 259.29 164.89
  Q 258.64 164.72 258.24 164.95
  Q 257.74 165.23 257.48 165.83"
/>
<path stroke="#029fd1" vector-effect="non-scaling-stroke" d="
  M 299.53 305.39
  Q 298.97 306.62 298.96 307.82
  Q 298.96 307.98 298.81 307.94
  Q 298.67 307.90 298.82 307.67
  A 0.64 0.64 0.0 0 0 298.49 306.71
  Q 292.32 304.54 286.43 304.33
  Q 278.77 304.05 278.14 303.97
  Q 272.53 303.30 266.97 302.31
  Q 266.65 302.25 266.39 302.43
  Q 266.14 302.59 265.75 302.47
  Q 262.57 301.45 259.24 300.63
  Q 258.73 300.50 258.63 301.02
  L 258.01 304.26"
/>
<path stroke="#029fd1" vector-effect="non-scaling-stroke" d="
  M 246.21 304.22
  Q 245.20 304.98 245.52 306.66
  Q 245.64 307.25 245.03 307.22
  Q 235.88 306.76 226.75 307.61
  C 221.29 308.12 214.89 307.12 209.56 308.22
  C 207.56 308.63 206.13 308.25 204.17 308.37
  Q 203.75 308.39 203.75 307.98
  L 203.75 307.47
  A 0.30 0.30 0.0 0 0 203.17 307.36
  L 202.54 309.00"
/>
<path stroke="#0eb1a9" vector-effect="non-scaling-stroke" d="
  M 242.89 187.32
  Q 242.18 187.44 241.83 187.63
  Q 241.44 187.84 241.61 188.51
  Q 241.83 189.37 242.25 190.21"
/>
</g>
<path fill="#03d9b3" d="
  M 278.73 141.71
  Q 278.44 145.94 279.34 150.10
  C 280.09 153.56 282.50 156.87 283.74 160.54
  Q 283.92 161.06 283.54 161.46
  L 281.60 163.49
  Q 281.49 163.61 281.42 163.46
  Q 281.32 163.26 281.15 163.11
  Q 280.92 162.91 280.73 163.14
  L 280.20 163.75
  Q 280.06 163.90 280.06 163.70
  Q 280.05 162.22 278.75 161.54
  Q 270.47 139.83 247.32 142.61
  C 235.87 143.99 224.35 153.87 224.46 166.25
  Q 224.66 189.65 224.29 213.04
  Q 224.14 222.51 223.12 226.75
  C 220.80 236.42 214.62 244.92 207.36 251.54
  C 202.15 256.28 193.98 260.47 188.49 264.49
  C 175.38 274.09 172.53 288.72 172.25 303.99
  C 172.00 317.54 173.58 331.94 179.25 344.01
  Q 195.44 378.47 233.01 388.93
  Q 232.85 389.37 233.76 389.69
  Q 234.46 389.93 233.90 390.41
  L 233.04 391.15
  Q 232.52 391.59 233.01 392.06
  Q 234.77 393.71 235.75 395.96
  A 1.15 1.10 -88.9 0 0 236.25 396.50
  L 237.56 397.16
  A 1.32 1.32 0.0 0 1 238.23 397.97
  Q 239.63 402.71 243.28 406.06
  A 0.06 0.06 0.0 0 1 243.26 406.16
  Q 243.13 406.21 242.99 406.25
  Q 242.77 406.31 242.85 406.52
  L 244.24 410.28
  Q 244.39 410.70 243.95 410.73
  Q 243.65 410.76 243.49 411.02
  C 188.82 405.62 147.46 357.21 150.88 302.25
  Q 152.77 271.86 167.60 245.32
  C 183.91 216.12 200.72 187.67 214.89 157.29
  Q 216.38 154.09 217.96 151.48
  C 228.84 133.44 240.14 115.81 250.62 97.74
  Q 251.05 97.01 251.44 97.76
  Q 256.06 106.76 261.22 115.44
  C 266.22 123.85 272.85 132.98 278.73 141.71
  Z"
/>
<path fill="#0da3a6" d="
  M 278.73 141.71
  C 288.11 154.56 292.98 167.90 299.08 181.14
  C 305.00 193.98 313.29 207.08 320.77 219.74
  Q 318.76 220.58 319.02 223.03
  Q 319.08 223.55 318.62 223.81
  Q 317.71 224.31 317.75 225.26
  Q 317.76 225.75 317.52 226.17
  C 315.65 229.36 315.26 232.82 314.21 236.32
  C 313.06 240.12 312.52 243.89 311.50 247.70
  C 310.36 252.02 311.08 256.32 309.74 260.83
  C 295.29 252.23 281.51 236.54 280.24 219.50
  Q 279.43 208.72 279.75 167.00
  Q 279.78 164.17 278.75 161.54
  Q 280.05 162.22 280.06 163.70
  Q 280.06 163.90 280.20 163.75
  L 280.73 163.14
  Q 280.92 162.91 281.15 163.11
  Q 281.32 163.26 281.42 163.46
  Q 281.49 163.61 281.60 163.49
  L 283.54 161.46
  Q 283.92 161.06 283.74 160.54
  C 282.50 156.87 280.09 153.56 279.34 150.10
  Q 278.44 145.94 278.73 141.71
  Z"
/>
<path fill="#03d9b3" d="
  M 265.21 166.81
  Q 262.04 165.62 259.29 164.89
  Q 258.64 164.72 258.24 164.95
  Q 257.74 165.23 257.48 165.83
  Q 249.38 165.03 241.15 165.77
  Q 240.45 165.84 240.49 166.54
  L 240.75 170.41
  A 1.28 1.27 86.7 0 1 239.54 171.78
  Q 236.87 171.91 236.62 169.94
  C 234.04 149.77 264.34 145.10 265.21 166.81
  Z"
/>
<path fill="#02acde" d="
  M 265.21 166.81
  L 265.25 266.02
  A 2.34 2.33 -78.3 0 0 266.65 268.16
  Q 291.86 279.18 299.53 305.39
  Q 298.97 306.62 298.96 307.82
  Q 298.96 307.98 298.81 307.94
  Q 298.67 307.90 298.82 307.67
  A 0.64 0.64 0.0 0 0 298.49 306.71
  Q 292.32 304.54 286.43 304.33
  Q 278.77 304.05 278.14 303.97
  Q 272.53 303.30 266.97 302.31
  Q 266.65 302.25 266.39 302.43
  Q 266.14 302.59 265.75 302.47
  Q 262.57 301.45 259.24 300.63
  Q 258.73 300.50 258.63 301.02
  L 258.01 304.26
  L 258.02 234.28
  A 1.59 1.59 0.0 0 0 256.48 232.69
  L 246.03 232.37
  Q 245.23 232.34 245.26 231.54
  L 245.44 226.14
  Q 245.47 225.50 246.11 225.50
  L 257.20 225.50
  Q 257.90 225.50 257.90 224.80
  L 257.88 220.38
  A 0.81 0.81 0.0 0 0 257.08 219.57
  L 247.34 219.36
  A 1.66 1.66 0.0 0 1 245.72 217.85
  L 245.32 213.52
  A 1.16 1.16 0.0 0 1 246.48 212.25
  L 257.41 212.25
  A 0.84 0.83 -0.7 0 0 258.25 211.40
  L 258.16 206.53
  Q 258.15 205.92 257.54 205.90
  L 237.62 205.29
  A 1.12 1.11 0.8 0 1 236.54 204.19
  L 236.48 199.80
  Q 236.46 198.30 237.95 198.30
  L 256.75 198.23
  A 1.02 1.01 0.9 0 0 257.76 197.26
  L 257.93 193.15
  Q 257.96 192.33 257.15 192.30
  L 246.53 191.87
  A 1.34 1.33 -88.9 0 1 245.25 190.53
  L 245.25 186.16
  Q 245.25 184.51 246.90 184.51
  L 257.07 184.50
  A 1.00 0.99 87.6 0 0 258.06 183.42
  L 257.74 179.39
  A 1.40 1.39 -1.1 0 0 256.40 178.11
  L 246.28 177.73
  Q 245.60 177.71 245.66 177.03
  L 246.10 171.93
  Q 246.16 171.27 246.81 171.27
  L 257.22 171.21
  Q 257.83 171.20 257.92 170.61
  Q 258.29 168.28 257.48 165.83
  Q 257.74 165.23 258.24 164.95
  Q 258.64 164.72 259.29 164.89
  Q 262.04 165.62 265.21 166.81
  Z"
/>
<path fill="#03d9b3" d="
  M 242.89 187.32
  Q 242.18 187.44 241.83 187.63
  Q 241.44 187.84 241.61 188.51
  Q 241.83 189.37 242.25 190.21
  Q 239.44 190.56 237.74 189.58
  A 2.18 2.17 16.5 0 1 236.64 187.56
  Q 236.76 185.46 238.51 185.34
  Q 244.92 184.91 242.89 187.32
  Z"
/>
<path fill="#18889e" d="
  M 242.89 187.32
  L 242.25 190.21
  Q 241.83 189.37 241.61 188.51
  Q 241.44 187.84 241.83 187.63
  Q 242.18 187.44 242.89 187.32
  Z"
/>
<path fill="#03d9b3" d="
  M 240.98 215.51
  Q 240.96 218.63 238.21 218.51
  Q 237.68 218.48 237.47 217.99
  C 236.45 215.61 237.92 214.28 240.24 214.64
  Q 240.98 214.76 240.98 215.51
  Z"
/>
<path fill="#235c7f" d="
  M 320.77 219.74
  C 343.18 255.64 362.09 293.61 348.42 336.06
  C 340.25 361.43 321.38 386.80 297.04 399.20
  Q 292.77 389.62 291.29 379.43
  C 323.37 359.76 337.72 324.65 329.82 288.05
  Q 325.90 269.91 309.74 260.83
  C 311.08 256.32 310.36 252.02 311.50 247.70
  C 312.52 243.89 313.06 240.12 314.21 236.32
  C 315.26 232.82 315.65 229.36 317.52 226.17
  Q 317.76 225.75 317.75 225.26
  Q 317.71 224.31 318.62 223.81
  Q 319.08 223.55 319.02 223.03
  Q 318.76 220.58 320.77 219.74
  Z"
/>
<path fill="#03d9b3" d="
  M 237.22 230.54
  A 0.87 0.87 0.0 0 1 236.42 229.60
  L 236.54 228.24
  A 2.02 1.95 5.0 0 1 238.73 226.48
  L 240.32 226.62
  A 2.02 1.95 5.0 0 1 242.16 228.74
  L 242.04 230.09
  A 0.87 0.87 0.0 0 1 241.10 230.88
  L 237.22 230.54
  Z"
/>
<rect fill="#02acde" x="-5.02" y="-3.54" transform="translate(241.45,245.99) rotate(0.4)" width="10.04" height="7.08" rx="0.27"/>
<ellipse fill="#02acde" cx="0.00" cy="0.00" transform="translate(239.42,256.72) rotate(64.8)" rx="3.93" ry="3.45"/>
<path fill="#02acde" d="
  M 246.21 304.22
  Q 245.20 304.98 245.52 306.66
  Q 245.64 307.25 245.03 307.22
  Q 235.88 306.76 226.75 307.61
  C 221.29 308.12 214.89 307.12 209.56 308.22
  C 207.56 308.63 206.13 308.25 204.17 308.37
  Q 203.75 308.39 203.75 307.98
  L 203.75 307.47
  A 0.30 0.30 0.0 0 0 203.17 307.36
  L 202.54 309.00
  C 203.94 288.12 223.27 271.35 242.13 266.20
  C 244.26 265.62 246.50 265.78 246.47 268.55
  Q 246.30 286.43 246.21 304.22
  Z"
/>
<path fill="#0192c4" d="
  M 299.53 305.39
  C 302.69 323.37 296.07 340.72 282.16 352.45
  C 261.76 369.64 231.16 365.86 213.96 346.05
  Q 200.59 330.65 202.54 309.00
  L 203.17 307.36
  A 0.30 0.30 0.0 0 1 203.75 307.47
  L 203.75 307.98
  Q 203.75 308.39 204.17 308.37
  C 206.13 308.25 207.56 308.63 209.56 308.22
  C 214.89 307.12 221.29 308.12 226.75 307.61
  Q 235.88 306.76 245.03 307.22
  Q 245.64 307.25 245.52 306.66
  Q 245.20 304.98 246.21 304.22
  Q 246.27 320.14 246.25 336.00
  Q 246.25 339.46 247.34 341.14
  C 250.48 346.00 257.73 344.40 257.83 338.23
  Q 258.11 321.24 258.01 304.26
  L 258.63 301.02
  Q 258.73 300.50 259.24 300.63
  Q 262.57 301.45 265.75 302.47
  Q 266.14 302.59 266.39 302.43
  Q 266.65 302.25 266.97 302.31
  Q 272.53 303.30 278.14 303.97
  Q 278.77 304.05 286.43 304.33
  Q 292.32 304.54 298.49 306.71
  A 0.64 0.64 0.0 0 1 298.82 307.67
  Q 298.67 307.90 298.81 307.94
  Q 298.96 307.98 298.96 307.82
  Q 298.97 306.62 299.53 305.39
  Z
  M 288.70 318.70
  Q 287.68 318.27 287.14 318.68
  Q 286.77 318.97 286.73 319.93
  C 285.69 341.52 269.31 353.71 248.74 353.80
  Q 248.18 353.80 248.21 354.36
  L 248.36 356.89
  A 0.68 0.68 0.0 0 0 249.09 357.53
  C 270.25 356.23 289.43 342.65 289.38 319.73
  A 1.12 1.12 0.0 0 0 288.70 318.70
  Z"
/>
<path fill="#18889e" d="
  M 291.29 379.43
  Q 292.77 389.62 297.04 399.20
  Q 271.87 413.35 243.49 411.02
  Q 243.65 410.76 243.95 410.73
  Q 244.39 410.70 244.24 410.28
  L 242.85 406.52
  Q 242.77 406.31 242.99 406.25
  Q 243.13 406.21 243.26 406.16
  A 0.06 0.06 0.0 0 0 243.28 406.06
  Q 239.63 402.71 238.23 397.97
  A 1.32 1.32 0.0 0 0 237.56 397.16
  L 236.25 396.50
  A 1.15 1.10 -88.9 0 1 235.75 395.96
  Q 234.77 393.71 233.01 392.06
  Q 232.52 391.59 233.04 391.15
  L 233.90 390.41
  Q 234.46 389.93 233.76 389.69
  Q 232.85 389.37 233.01 388.93
  Q 264.32 395.46 291.29 379.43
  Z"
/>
</svg>
