<?xml version="1.0" encoding="UTF-8" standalone="no"?>
<!DOCTYPE svg PUBLIC "-//W3C//DTD SVG 1.1//EN" "http://www.w3.org/Graphics/SVG/1.1/DTD/svg11.dtd">
<svg xmlns="http://www.w3.org/2000/svg" version="1.1" viewBox="0.00 0.00 500.00 500.00">
<g stroke-width="2.00" fill="none" stroke-linecap="butt">
<path stroke="#83d8d4" vector-effect="non-scaling-stroke" d="
  M 196.42 312.73
  Q 216.61 328.10 242.02 329.37"
/>
<path stroke="#8bc0cc" vector-effect="non-scaling-stroke" d="
  M 242.02 329.37
  Q 265.02 330.17 284.91 318.00"
/>
<path stroke="#90adbd" vector-effect="non-scaling-stroke" d="
  M 284.91 318.00
  Q 288.38 316.13 291.79 313.51
  C 324.40 288.46 335.89 246.83 318.75 208.94
  Q 312.74 195.66 305.07 182.87"
/>
<path stroke="#8bc0cc" vector-effect="non-scaling-stroke" d="
  M 305.07 182.87
  L 285.42 149.27"
/>
<path stroke="#83d8d4" vector-effect="non-scaling-stroke" d="
  M 285.42 149.27
  C 279.79 136.93 275.15 124.45 267.25 113.27
  Q 256.12 97.52 245.99 80.84"
/>
<path stroke="#7ff0da" vector-effect="non-scaling-stroke" d="
  M 245.99 80.84
  Q 245.91 79.32 244.90 77.65
  A 0.32 0.32 0.0 0 0 244.34 77.67
  C 238.08 90.49 229.24 103.04 221.63 115.15
  C 216.68 123.02 211.97 133.82 208.99 139.59
  Q 194.73 167.20 179.03 194.01
  C 158.02 229.89 158.26 272.45 186.99 304.26
  Q 191.30 309.03 196.42 312.73"
/>
<path stroke="#05c9b1" vector-effect="non-scaling-stroke" d="
  M 245.99 80.84
  Q 252.96 94.72 261.79 107.70
  C 264.41 111.53 270.94 116.52 268.06 121.39
  Q 267.93 121.62 267.67 121.54
  L 266.61 121.21
  A 0.28 0.27 -4.6 0 0 266.28 121.59
  Q 266.38 121.79 266.47 121.95
  Q 266.71 122.43 266.17 122.43
  L 263.00 122.45"
/>
<path stroke="#7ff0da" vector-effect="non-scaling-stroke" d="
  M 263.00 122.45
  C 249.63 106.89 223.26 113.64 223.43 135.75
  Q 223.57 154.84 223.36 173.93
  Q 223.24 184.88 216.79 193.57
  Q 211.23 201.07 207.69 203.44
  C 196.94 210.61 187.13 214.75 183.83 228.07
  C 177.77 252.59 183.98 279.02 203.23 296.53"
/>
<path stroke="#05c9b1" vector-effect="non-scaling-stroke" d="
  M 203.23 296.53
  C 205.02 300.33 208.59 301.51 211.69 303.46
  Q 211.99 303.65 211.77 303.92
  L 211.49 304.26
  A 0.65 0.63 -58.5 0 1 210.74 304.45
  L 207.72 303.18
  Q 207.31 303.01 207.08 303.39
  L 206.80 303.87
  Q 206.51 304.35 205.95 304.39
  L 202.24 304.67
  Q 201.98 304.69 201.79 304.86
  Q 200.39 306.18 201.41 307.22
  Q 201.59 307.40 201.46 307.63
  L 201.25 307.98
  A 0.37 0.36 39.4 0 0 201.30 308.43
  L 201.68 308.81
  Q 201.99 309.11 201.68 309.42
  L 200.89 310.21
  Q 200.47 310.63 200.11 310.15
  Q 198.96 308.60 197.23 308.35
  A 0.42 0.41 -13.6 0 0 196.83 309.00
  L 197.59 310.05
  Q 197.69 310.19 197.52 310.24
  Q 197.36 310.29 197.25 310.42
  Q 197.02 310.68 197.10 311.01
  L 197.41 312.35
  Q 197.44 312.48 197.30 312.49
  Q 196.77 312.51 196.42 312.73"
/>
<path stroke="#8bc0cc" vector-effect="non-scaling-stroke" d="
  M 276.99 196.55
  C 282.23 203.59 288.51 207.06 297.54 213.31"
/>
<path stroke="#90adbd" vector-effect="non-scaling-stroke" d="
  M 297.54 213.31
  C 306.53 221.70 308.55 232.75 308.97 244.51
  C 309.78 267.33 299.05 287.72 280.50 300.85"
/>
<path stroke="#8bc0cc" vector-effect="non-scaling-stroke" d="
  M 280.50 300.85
  Q 260.85 314.40 237.23 312.14"
/>
<path stroke="#83d8d4" vector-effect="non-scaling-stroke" d="
  M 237.23 312.14
  Q 218.02 309.33 203.23 296.53"
/>
<path stroke="#119aa3" vector-effect="non-scaling-stroke" d="
  M 237.23 312.14
  L 237.59 319.17
  Q 237.61 319.66 237.88 320.06
  Q 240.62 324.21 242.02 329.37"
/>
<path stroke="#119aa3" vector-effect="non-scaling-stroke" d="
  M 285.42 149.27
  Q 285.50 151.63 287.04 154.07
  A 1.65 1.65 0.0 0 1 287.27 155.13
  L 286.90 158.42
  A 1.30 1.30 0.0 0 1 286.37 159.34
  Q 285.88 159.70 286.32 160.38
  Q 286.57 160.78 286.24 161.11
  Q 284.94 162.44 285.46 164.16
  Q 285.61 164.66 285.45 165.15
  L 283.09 172.40
  A 0.05 0.05 0.0 0 1 282.99 172.39
  Q 283.00 172.24 283.00 172.09
  A 0.14 0.14 0.0 0 0 282.72 172.05
  Q 280.87 179.23 279.98 190.25
  Q 279.67 194.01 276.99 196.55"
/>
<path stroke="#83d8d4" vector-effect="non-scaling-stroke" d="
  M 276.99 196.55
  Q 267.53 185.30 267.53 170.50
  Q 267.52 152.65 267.46 134.81
  Q 267.43 128.67 263.00 122.45"
/>
<path stroke="#1e6f8c" vector-effect="non-scaling-stroke" d="
  M 305.07 182.87
  Q 304.78 185.59 304.40 188.13
  C 303.73 192.63 301.22 197.34 299.70 201.69
  C 298.65 204.70 299.78 207.30 299.06 209.84
  Q 298.54 211.67 297.54 213.31"
/>
<path stroke="#1e6f8c" vector-effect="non-scaling-stroke" d="
  M 284.91 318.00
  Q 284.47 314.30 282.41 311.03
  C 280.35 307.77 280.39 304.50 280.50 300.85"
/>
<path stroke="#7e7f7f" vector-effect="non-scaling-stroke" d="
  M 268.55 388.22
  Q 266.50 393.43 260.99 394.48
  C 248.15 396.94 241.81 380.28 251.83 372.69
  C 256.57 369.10 264.28 370.14 267.36 375.83
  Q 267.59 376.25 268.06 376.25
  L 276.46 376.25
  Q 277.17 376.25 276.88 375.60
  C 267.83 355.34 238.68 360.33 238.20 382.38
  C 237.84 399.20 257.36 407.91 270.21 398.35
  Q 277.68 392.79 278.06 381.83
  Q 278.08 381.25 277.51 381.25
  L 259.50 381.25
  Q 259.00 381.25 259.00 381.75
  L 259.00 387.13
  Q 259.00 387.75 259.63 387.75
  L 268.23 387.75
  Q 268.74 387.75 268.55 388.22"
/>
<path stroke="#7e7f7f" vector-effect="non-scaling-stroke" d="
  M 126.60 365.90
  C 121.71 361.78 111.56 363.25 105.32 363.19
  Q 104.75 363.18 104.75 363.75
  L 104.75 401.37
  Q 104.75 402.00 105.37 402.00
  L 112.63 402.00
  Q 113.25 402.00 113.25 401.38
  L 113.25 388.71
  Q 113.25 388.04 113.92 388.02
  C 116.81 387.94 119.98 388.28 122.49 387.53
  C 131.99 384.68 134.06 372.18 126.60 365.90"
/>
<path stroke="#7e7f7f" vector-effect="non-scaling-stroke" d="
  M 170.96 363.07
  Q 170.57 362.88 170.15 363.04
  Q 169.68 363.22 169.69 363.72
  Q 169.95 375.62 169.52 387.49
  C 169.20 396.22 155.11 396.90 154.83 386.65
  Q 154.51 375.16 154.77 363.63
  Q 154.78 363.09 154.24 363.08
  L 146.57 362.97
  Q 145.93 362.96 145.95 363.60
  Q 146.20 374.99 146.30 386.35
  C 146.38 395.26 149.69 400.88 159.09 402.31
  C 171.61 404.22 178.16 397.13 178.24 384.99
  Q 178.31 374.35 178.22 363.65
  Q 178.22 363.13 177.70 363.08
  Q 174.56 362.76 171.69 363.18
  Q 171.30 363.24 170.96 363.07"
/>
<path stroke="#7e7f7f" vector-effect="non-scaling-stroke" d="
  M 310.89 376.13
  A 0.32 0.32 0.0 0 1 310.35 376.13
  L 302.38 363.45
  A 0.32 0.32 0.0 0 0 302.12 363.30
  L 292.64 363.15
  A 0.32 0.32 0.0 0 0 292.37 363.65
  L 306.19 383.24
  A 0.32 0.32 0.0 0 1 306.25 383.42
  L 306.25 401.68
  A 0.32 0.32 0.0 0 0 306.57 402.00
  L 314.45 402.00
  A 0.32 0.32 0.0 0 0 314.77 401.68
  L 314.79 383.62
  A 0.32 0.32 0.0 0 1 314.85 383.44
  L 328.81 363.70
  A 0.32 0.32 0.0 0 0 328.55 363.20
  L 319.18 363.17
  A 0.32 0.32 0.0 0 0 318.91 363.32
  L 310.89 376.13"
/>
<path stroke="#7e7f7f" vector-effect="non-scaling-stroke" d="
  M 353.25 363.52
  A 0.42 0.42 0.0 0 0 352.83 363.10
  L 345.17 363.10
  A 0.42 0.42 0.0 0 0 344.75 363.52
  L 344.75 401.58
  A 0.42 0.42 0.0 0 0 345.17 402.00
  L 352.83 402.00
  A 0.42 0.42 0.0 0 0 353.25 401.58
  L 353.25 363.52"
/>
<path stroke="#7e7f7f" vector-effect="non-scaling-stroke" d="
  M 380.65 394.25
  A 0.40 0.40 0.0 0 1 380.25 393.85
  L 380.25 363.38
  A 0.40 0.40 0.0 0 0 379.84 362.98
  L 372.14 363.08
  A 0.40 0.40 0.0 0 0 371.75 363.48
  L 371.75 401.60
  A 0.40 0.40 0.0 0 0 372.15 402.00
  L 393.85 402.00
  A 0.40 0.40 0.0 0 0 394.25 401.60
  L 394.25 394.65
  A 0.40 0.40 0.0 0 0 393.85 394.25
  L 380.65 394.25"
/>
<path stroke="#7e7f7f" vector-effect="non-scaling-stroke" d="
  M 204.78 388.78
  L 213.33 401.58
  Q 213.61 402.00 214.11 402.00
  L 223.67 402.00
  Q 224.45 402.00 223.97 401.39
  L 213.70 388.26
  Q 213.27 387.72 213.92 387.47
  C 224.23 383.54 224.88 369.11 215.48 364.51
  C 210.73 362.19 201.75 363.24 196.25 363.26
  Q 195.75 363.26 195.75 363.76
  L 195.75 401.38
  Q 195.75 402.00 196.37 402.00
  L 203.63 402.00
  Q 204.25 402.00 204.25 401.37
  L 204.25 388.94
  Q 204.25 387.98 204.78 388.78"
/>
<path stroke="#7e7f7f" vector-effect="non-scaling-stroke" d="
  M 196.26 446.50
  Q 196.22 441.15 196.28 435.79
  A 0.54 0.53 0.5 0 0 195.74 435.25
  L 194.60 435.25
  Q 194.21 435.25 194.21 435.65
  L 194.25 458.38
  Q 194.25 459.00 194.88 459.00
  L 195.93 459.00
  Q 196.48 459.00 196.42 458.45
  C 196.00 454.51 195.73 446.02 201.58 447.12
  A 2.65 2.65 0.0 0 1 203.75 449.73
  L 203.75 458.50
  Q 203.75 459.00 204.25 459.00
  L 205.48 459.00
  Q 205.98 459.00 205.99 458.51
  C 206.06 453.43 207.13 439.29 196.78 446.76
  Q 196.26 447.14 196.26 446.50"
/>
<path stroke="#7e7f7f" vector-effect="non-scaling-stroke" d="
  M 265.2902 435.5518
  A 0.27 0.27 0.0 0 0 265.0207 435.2814
  L 263.4807 435.2787
  A 0.27 0.27 0.0 0 0 263.2102 435.5482
  L 263.1698 458.6882
  A 0.27 0.27 0.0 0 0 263.4393 458.9586
  L 264.9793 458.9613
  A 0.27 0.27 0.0 0 0 265.2498 458.6918
  L 265.2902 435.5518"
/>
<path stroke="#7e7f7f" vector-effect="non-scaling-stroke" d="
  M 132.73 439.87
  A 0.34 0.34 0.0 0 1 133.06 439.53
  L 137.77 439.33
  A 0.34 0.34 0.0 0 0 138.09 439.01
  L 138.15 437.60
  A 0.34 0.34 0.0 0 0 137.81 437.25
  L 125.84 437.25
  A 0.34 0.34 0.0 0 0 125.50 437.59
  L 125.50 439.17
  A 0.34 0.34 0.0 0 0 125.84 439.51
  L 130.26 439.48
  A 0.34 0.34 0.0 0 1 130.60 439.82
  L 130.57 458.66
  A 0.34 0.34 0.0 0 0 130.91 459.00
  L 132.45 459.00
  A 0.34 0.34 0.0 0 0 132.79 458.66
  L 132.73 439.87"
/>
<path stroke="#7e7f7f" vector-effect="non-scaling-stroke" d="
  M 327.45 441.21
  A 1.33 1.33 0.0 0 0 326.12 439.88
  A 1.33 1.33 0.0 0 0 324.79 441.21
  A 1.33 1.33 0.0 0 0 326.12 442.54
  A 1.33 1.33 0.0 0 0 327.45 441.21"
/>
<path stroke="#7e7f7f" vector-effect="non-scaling-stroke" d="
  M 149.44 454.55
  A 1.11 1.11 0.0 0 1 150.31 452.75
  L 160.49 452.75
  Q 160.95 452.75 160.96 452.29
  C 161.14 445.99 153.85 442.37 149.26 446.24
  C 140.91 453.27 152.58 464.88 160.06 455.73
  A 0.45 0.45 0.0 0 0 159.71 455.00
  L 158.30 455.00
  A 1.28 1.26 24.8 0 0 157.49 455.29
  Q 153.02 459.01 149.44 454.55"
/>
<path stroke="#7e7f7f" vector-effect="non-scaling-stroke" d="
  M 181.42 454.78
  C 177.97 459.56 170.53 455.40 172.98 449.97
  C 174.45 446.72 179.07 446.14 181.14 449.12
  C 181.78 450.04 182.59 450.33 183.59 449.94
  Q 184.15 449.72 183.87 449.18
  C 178.90 439.42 165.73 447.79 171.63 456.32
  C 173.60 459.16 177.77 460.17 180.88 458.27
  C 181.85 457.68 185.66 454.29 182.44 454.27
  A 1.25 1.24 -71.3 0 0 181.42 454.78"
/>
<path stroke="#7e7f7f" vector-effect="non-scaling-stroke" d="
  M 218.75 446.79
  Q 218.75 446.20 218.75 445.52
  A 0.52 0.52 0.0 0 0 218.23 445.00
  L 217.38 445.00
  Q 216.77 445.00 216.77 445.62
  L 216.71 458.48
  Q 216.71 459.00 217.23 459.00
  L 218.42 459.00
  Q 218.96 459.00 218.90 458.46
  C 218.52 454.60 218.16 447.42 223.36 447.02
  C 227.61 446.70 226.24 455.98 226.26 458.49
  Q 226.26 459.00 226.77 459.00
  L 227.98 459.00
  Q 228.48 459.00 228.48 458.50
  C 228.55 454.15 230.22 444.04 222.54 444.85
  C 220.94 445.01 220.32 445.86 219.37 447.01
  Q 218.75 447.76 218.75 446.79"
/>
<path stroke="#7e7f7f" vector-effect="non-scaling-stroke" d="
  M 252.71 451.94
  A 7.24 7.24 0.0 0 0 245.47 444.70
  A 7.24 7.24 0.0 0 0 238.23 451.94
  A 7.24 7.24 0.0 0 0 245.47 459.18
  A 7.24 7.24 0.0 0 0 252.71 451.94"
/>
<path stroke="#7e7f7f" vector-effect="non-scaling-stroke" d="
  M 289.97 451.94
  A 7.24 7.24 0.0 0 0 282.73 444.70
  A 7.24 7.24 0.0 0 0 275.49 451.94
  A 7.24 7.24 0.0 0 0 282.73 459.18
  A 7.24 7.24 0.0 0 0 289.97 451.94"
/>
<path stroke="#7e7f7f" vector-effect="non-scaling-stroke" d="
  M 311.42 457.73
  C 312.05 464.80 303.95 467.31 301.65 461.45
  A 1.11 1.11 0.0 0 0 299.51 461.83
  Q 299.50 462.28 300.22 463.30
  C 304.59 469.48 313.40 467.08 313.68 459.68
  Q 313.83 455.99 313.72 445.57
  A 0.57 0.57 0.0 0 0 313.15 445.00
  L 312.13 445.00
  Q 311.50 445.00 311.50 445.62
  L 311.50 446.52
  Q 311.50 447.48 310.81 446.81
  C 304.15 440.26 295.65 450.30 301.43 457.00
  Q 305.10 461.26 310.91 457.49
  Q 311.37 457.19 311.42 457.73"
/>
<path stroke="#7e7f7f" vector-effect="non-scaling-stroke" d="
  M 343.28 458.84
  Q 347.34 460.02 351.19 456.00
  A 0.59 0.59 0.0 0 0 350.76 455.00
  L 349.54 455.00
  Q 349.19 455.00 348.91 455.22
  Q 343.72 459.32 340.24 453.77
  A 0.67 0.66 73.9 0 1 340.80 452.75
  L 351.73 452.75
  Q 352.18 452.75 352.21 452.30
  C 352.76 444.19 341.68 441.84 338.26 449.23
  C 336.29 453.50 339.13 457.62 343.28 458.84"
/>
<path stroke="#7e7f7f" vector-effect="non-scaling-stroke" d="
  M 364.37 447.00
  Q 367.26 445.96 368.86 448.28
  A 1.01 1.01 0.0 0 0 370.68 447.90
  C 371.38 444.33 362.98 443.15 361.05 448.38
  A 1.38 1.37 46.5 0 0 361.03 449.29
  C 362.06 452.46 365.46 452.71 368.09 453.65
  A 1.72 1.72 0.0 0 1 369.23 455.39
  C 369.02 458.44 364.07 458.15 363.06 455.40
  A 1.10 1.10 0.0 0 0 360.93 455.83
  C 361.18 461.03 373.53 460.40 371.41 453.91
  C 370.60 451.46 366.70 450.75 364.45 450.09
  A 1.63 1.62 -46.6 0 1 364.37 447.00"
/>
<path stroke="#7e7f7f" vector-effect="non-scaling-stroke" d="
  M 327.25 445.32
  A 0.31 0.31 0.0 0 0 326.94 445.01
  L 325.32 445.01
  A 0.31 0.31 0.0 0 0 325.01 445.32
  L 325.01 458.70
  A 0.31 0.31 0.0 0 0 325.32 459.01
  L 326.94 459.01
  A 0.31 0.31 0.0 0 0 327.25 458.70
  L 327.25 445.32"
/>
<path stroke="#7fd9f1" vector-effect="non-scaling-stroke" d="
  M 249.56 132.56
  Q 250.33 134.42 250.21 136.41
  Q 250.18 136.97 249.61 136.95
  L 241.22 136.67
  Q 240.59 136.65 240.54 137.28
  L 240.21 141.77
  Q 240.16 142.39 240.78 142.41
  L 248.95 142.76
  Q 249.61 142.79 249.67 143.45
  L 250.00 146.98
  A 0.45 0.44 -2.9 0 1 249.55 147.47
  L 240.39 147.52"
/>
<path stroke="#7ff0da" vector-effect="non-scaling-stroke" d="
  M 240.39 147.52
  L 233.37 147.74
  Q 232.75 147.76 232.78 148.38
  L 232.97 151.73
  A 0.96 0.96 0.0 0 0 233.58 152.56
  Q 236.69 153.74 240.28 153.51"
/>
<path stroke="#7fd9f1" vector-effect="non-scaling-stroke" d="
  M 240.28 153.51
  L 249.43 154.04
  Q 250.10 154.08 250.02 154.75
  L 249.69 157.74
  Q 249.62 158.36 249.00 158.36
  L 233.59 158.56
  Q 233.00 158.56 233.00 159.16
  L 233.00 163.84
  A 0.61 0.60 1.0 0 0 233.59 164.44
  L 249.41 164.81
  Q 250.00 164.83 250.00 165.41
  L 250.00 169.05
  Q 250.00 169.59 249.46 169.58
  L 240.80 169.49
  Q 240.13 169.48 240.17 170.15
  L 240.46 174.70
  A 0.79 0.77 89.1 0 0 241.20 175.43
  L 249.16 175.80
  Q 249.75 175.83 249.75 176.41
  L 249.75 179.69
  Q 249.75 180.25 249.18 180.25
  Q 245.06 180.28 240.98 180.13
  Q 240.08 180.10 240.19 182.16"
/>
<path stroke="#7ff0da" vector-effect="non-scaling-stroke" d="
  M 240.19 182.16
  Q 237.33 180.11 233.54 180.87
  A 0.59 0.57 87.5 0 0 233.08 181.39
  L 232.74 185.05
  A 0.56 0.55 4.0 0 0 233.27 185.65
  L 240.25 186.06"
/>
<path stroke="#7fd9f1" vector-effect="non-scaling-stroke" d="
  M 240.25 186.06
  L 248.96 186.51
  Q 249.68 186.54 249.68 187.26
  L 249.87 243.00"
/>
<path stroke="#7fc8e1" vector-effect="non-scaling-stroke" d="
  M 249.87 243.00
  Q 249.68 256.97 249.72 270.93
  C 249.74 276.76 241.23 275.56 241.24 270.75
  Q 241.28 255.64 241.22 240.48"
/>
<path stroke="#7fd9f1" vector-effect="non-scaling-stroke" d="
  M 241.22 240.48
  L 241.23 213.55
  A 0.95 0.94 -0.9 0 0 240.24 212.60
  C 225.59 213.14 209.48 229.20 206.15 242.96"
/>
<path stroke="#7fc8e1" vector-effect="non-scaling-stroke" d="
  M 206.15 242.96
  C 203.69 258.77 208.09 272.35 219.90 281.83
  C 249.09 305.24 288.79 280.80 283.92 245.23"
/>
<path stroke="#7fd9f1" vector-effect="non-scaling-stroke" d="
  M 283.92 245.23
  C 280.22 230.69 270.30 219.82 257.01 214.20
  A 1.73 1.73 0.0 0 1 255.95 212.59
  L 256.16 132.27"
/>
<path stroke="#7ff0da" vector-effect="non-scaling-stroke" d="
  M 256.16 132.27
  C 255.45 116.90 231.07 118.63 233.11 136.78
  Q 233.18 137.41 233.82 137.44
  L 235.90 137.52
  A 0.62 0.61 -2.0 0 0 236.54 136.84
  L 236.19 133.81
  A 1.16 1.16 0.0 0 1 237.35 132.52
  L 249.56 132.56"
/>
<path stroke="#02cace" vector-effect="non-scaling-stroke" d="
  M 256.16 132.27
  Q 255.53 133.44 253.94 132.90
  Q 253.45 132.74 253.11 132.35
  Q 251.63 130.68 249.56 132.56"
/>
<path stroke="#02a3d5" vector-effect="non-scaling-stroke" d="
  M 283.92 245.23
  Q 280.51 244.37 277.34 243.74
  C 273.14 242.90 266.43 244.17 263.25 243.00
  C 259.06 241.47 254.49 243.00 250.77 239.79
  Q 250.27 239.36 250.19 240.02
  L 249.87 243.00"
/>
<path stroke="#02cace" vector-effect="non-scaling-stroke" d="
  M 240.25 186.06
  L 240.19 182.16"
/>
<path stroke="#02cace" vector-effect="non-scaling-stroke" d="
  M 240.28 153.51
  L 240.39 147.52"
/>
<path stroke="#02a3d5" vector-effect="non-scaling-stroke" d="
  M 241.22 240.48
  L 240.86 243.23
  Q 240.77 243.90 240.14 243.67
  C 237.60 242.77 235.34 241.64 232.56 241.87
  C 228.48 242.21 224.68 242.79 220.47 242.68
  Q 214.25 242.51 208.04 243.17
  A 0.94 0.94 0.0 0 1 207.27 242.90
  L 207.04 242.67
  Q 206.81 242.43 206.59 242.69
  Q 206.37 242.95 206.15 242.96"
/>
<path stroke="#7ff0da" vector-effect="non-scaling-stroke" d="
  M 240.83 200.05
  L 240.65 203.73
  A 0.43 0.39 -44.8 0 0 241.47 203.69
  Q 241.59 201.85 241.24 199.99"
/>
<path stroke="#7fd9f1" vector-effect="non-scaling-stroke" d="
  M 241.24 199.99
  L 241.23 194.49
  Q 241.23 194.00 240.74 194.00
  L 233.58 194.00
  A 0.69 0.69 0.0 0 0 232.89 194.66
  L 232.69 199.20
  Q 232.67 199.72 233.20 199.71
  L 239.73 199.52
  A 0.89 0.88 66.6 0 1 240.38 199.78
  Q 240.56 199.95 240.83 200.05"
/>
<path stroke="#02cace" vector-effect="non-scaling-stroke" d="
  M 241.24 199.99
  Q 240.92 199.99 240.83 200.05"
/>
<path stroke="#83d8d4" vector-effect="non-scaling-stroke" d="
  M 236.5457 208.5110
  A 3.30 2.93 69.5 0 0 238.1344 204.3939
  A 3.30 2.93 69.5 0 0 234.2343 202.3290
  A 3.30 2.93 69.5 0 0 232.6456 206.4461
  A 3.30 2.93 69.5 0 0 236.5457 208.5110"
/>
<path stroke="#05c9b1" vector-effect="non-scaling-stroke" d="
  M 236.4343 204.9588
  A 1.20 1.05 -32.3 0 0 234.8589 204.7125
  A 1.20 1.05 -32.3 0 0 234.4057 206.2412
  A 1.20 1.05 -32.3 0 0 235.9811 206.4875
  A 1.20 1.05 -32.3 0 0 236.4343 204.9588"
/>
<path stroke="#7fc8e1" vector-effect="non-scaling-stroke" d="
  M 273.37 258.10
  C 271.51 274.23 258.65 283.21 243.15 283.34
  Q 242.59 283.34 242.65 283.89
  L 242.78 285.19
  Q 242.83 285.67 243.31 285.64
  C 260.38 284.51 274.51 274.13 275.09 255.89
  A 0.79 0.79 0.0 0 0 273.63 255.44
  C 273.41 255.79 273.42 257.61 273.37 258.10"
/>
<path stroke="#7e7f7f" vector-effect="non-scaling-stroke" d="
  M 113.23 370.32
  L 113.27 380.90
  A 0.41 0.41 0.0 0 0 113.68 381.31
  L 117.26 381.29
  A 5.55 5.43 -0.2 0 0 122.79 375.84
  L 122.79 375.30
  A 5.55 5.43 -0.2 0 0 117.22 369.89
  L 113.64 369.91
  A 0.41 0.41 0.0 0 0 113.23 370.32"
/>
<path stroke="#7e7f7f" vector-effect="non-scaling-stroke" d="
  M 204.23 370.26
  L 204.27 381.00
  A 0.27 0.27 0.0 0 0 204.54 381.27
  L 208.66 381.25
  A 5.34 5.13 89.8 0 0 213.77 375.89
  L 213.77 375.29
  A 5.34 5.13 89.8 0 0 208.62 369.97
  L 204.50 369.99
  A 0.27 0.27 0.0 0 0 204.23 370.26"
/>
<path stroke="#7e7f7f" vector-effect="non-scaling-stroke" d="
  M 149.26 450.99
  L 158.24 451.03
  A 0.15 0.15 0.0 0 0 158.39 450.88
  L 158.39 450.79
  A 4.52 3.72 0.2 0 0 153.89 447.05
  L 153.65 447.05
  A 4.52 3.72 0.2 0 0 149.11 450.75
  L 149.11 450.84
  A 0.15 0.15 0.0 0 0 149.26 450.99"
/>
<path stroke="#7e7f7f" vector-effect="non-scaling-stroke" d="
  M 250.44 451.93
  A 4.96 4.96 0.0 0 0 245.48 446.97
  A 4.96 4.96 0.0 0 0 240.52 451.93
  A 4.96 4.96 0.0 0 0 245.48 456.89
  A 4.96 4.96 0.0 0 0 250.44 451.93"
/>
<path stroke="#7e7f7f" vector-effect="non-scaling-stroke" d="
  M 287.69 451.93
  A 4.96 4.96 0.0 0 0 282.73 446.97
  A 4.96 4.96 0.0 0 0 277.77 451.93
  A 4.96 4.96 0.0 0 0 282.73 456.89
  A 4.96 4.96 0.0 0 0 287.69 451.93"
/>
<path stroke="#7e7f7f" vector-effect="non-scaling-stroke" d="
  M 311.40 452.01
  A 4.89 4.89 0.0 0 0 306.51 447.12
  A 4.89 4.89 0.0 0 0 301.62 452.01
  A 4.89 4.89 0.0 0 0 306.51 456.90
  A 4.89 4.89 0.0 0 0 311.40 452.01"
/>
<path stroke="#7e7f7f" vector-effect="non-scaling-stroke" d="
  M 340.45 451.00
  L 349.49 451.00
  A 0.14 0.14 0.0 0 0 349.63 450.86
  L 349.63 450.77
  A 4.53 3.73 0.0 0 0 345.10 447.04
  L 344.84 447.04
  A 4.53 3.73 0.0 0 0 340.31 450.77
  L 340.31 450.86
  A 0.14 0.14 0.0 0 0 340.45 451.00"
/>
</g>
<path fill="#fcfefd" d="
  M 0.00 0.00
  L 500.00 0.00
  L 500.00 500.00
  L 0.00 500.00
  L 0.00 0.00
  Z
  M 196.42 312.73
  Q 216.61 328.10 242.02 329.37
  Q 265.02 330.17 284.91 318.00
  Q 288.38 316.13 291.79 313.51
  C 324.40 288.46 335.89 246.83 318.75 208.94
  Q 312.74 195.66 305.07 182.87
  L 285.42 149.27
  C 279.79 136.93 275.15 124.45 267.25 113.27
  Q 256.12 97.52 245.99 80.84
  Q 245.91 79.32 244.90 77.65
  A 0.32 0.32 0.0 0 0 244.34 77.67
  C 238.08 90.49 229.24 103.04 221.63 115.15
  C 216.68 123.02 211.97 133.82 208.99 139.59
  Q 194.73 167.20 179.03 194.01
  C 158.02 229.89 158.26 272.45 186.99 304.26
  Q 191.30 309.03 196.42 312.73
  Z
  M 268.55 388.22
  Q 266.50 393.43 260.99 394.48
  C 248.15 396.94 241.81 380.28 251.83 372.69
  C 256.57 369.10 264.28 370.14 267.36 375.83
  Q 267.59 376.25 268.06 376.25
  L 276.46 376.25
  Q 277.17 376.25 276.88 375.60
  C 267.83 355.34 238.68 360.33 238.20 382.38
  C 237.84 399.20 257.36 407.91 270.21 398.35
  Q 277.68 392.79 278.06 381.83
  Q 278.08 381.25 277.51 381.25
  L 259.50 381.25
  Q 259.00 381.25 259.00 381.75
  L 259.00 387.13
  Q 259.00 387.75 259.63 387.75
  L 268.23 387.75
  Q 268.74 387.75 268.55 388.22
  Z
  M 126.60 365.90
  C 121.71 361.78 111.56 363.25 105.32 363.19
  Q 104.75 363.18 104.75 363.75
  L 104.75 401.37
  Q 104.75 402.00 105.37 402.00
  L 112.63 402.00
  Q 113.25 402.00 113.25 401.38
  L 113.25 388.71
  Q 113.25 388.04 113.92 388.02
  C 116.81 387.94 119.98 388.28 122.49 387.53
  C 131.99 384.68 134.06 372.18 126.60 365.90
  Z
  M 170.96 363.07
  Q 170.57 362.88 170.15 363.04
  Q 169.68 363.22 169.69 363.72
  Q 169.95 375.62 169.52 387.49
  C 169.20 396.22 155.11 396.90 154.83 386.65
  Q 154.51 375.16 154.77 363.63
  Q 154.78 363.09 154.24 363.08
  L 146.57 362.97
  Q 145.93 362.96 145.95 363.60
  Q 146.20 374.99 146.30 386.35
  C 146.38 395.26 149.69 400.88 159.09 402.31
  C 171.61 404.22 178.16 397.13 178.24 384.99
  Q 178.31 374.35 178.22 363.65
  Q 178.22 363.13 177.70 363.08
  Q 174.56 362.76 171.69 363.18
  Q 171.30 363.24 170.96 363.07
  Z
  M 310.89 376.13
  A 0.32 0.32 0.0 0 1 310.35 376.13
  L 302.38 363.45
  A 0.32 0.32 0.0 0 0 302.12 363.30
  L 292.64 363.15
  A 0.32 0.32 0.0 0 0 292.37 363.65
  L 306.19 383.24
  A 0.32 0.32 0.0 0 1 306.25 383.42
  L 306.25 401.68
  A 0.32 0.32 0.0 0 0 306.57 402.00
  L 314.45 402.00
  A 0.32 0.32 0.0 0 0 314.77 401.68
  L 314.79 383.62
  A 0.32 0.32 0.0 0 1 314.85 383.44
  L 328.81 363.70
  A 0.32 0.32 0.0 0 0 328.55 363.20
  L 319.18 363.17
  A 0.32 0.32 0.0 0 0 318.91 363.32
  L 310.89 376.13
  Z
  M 353.25 363.52
  A 0.42 0.42 0.0 0 0 352.83 363.10
  L 345.17 363.10
  A 0.42 0.42 0.0 0 0 344.75 363.52
  L 344.75 401.58
  A 0.42 0.42 0.0 0 0 345.17 402.00
  L 352.83 402.00
  A 0.42 0.42 0.0 0 0 353.25 401.58
  L 353.25 363.52
  Z
  M 380.65 394.25
  A 0.40 0.40 0.0 0 1 380.25 393.85
  L 380.25 363.38
  A 0.40 0.40 0.0 0 0 379.84 362.98
  L 372.14 363.08
  A 0.40 0.40 0.0 0 0 371.75 363.48
  L 371.75 401.60
  A 0.40 0.40 0.0 0 0 372.15 402.00
  L 393.85 402.00
  A 0.40 0.40 0.0 0 0 394.25 401.60
  L 394.25 394.65
  A 0.40 0.40 0.0 0 0 393.85 394.25
  L 380.65 394.25
  Z
  M 204.78 388.78
  L 213.33 401.58
  Q 213.61 402.00 214.11 402.00
  L 223.67 402.00
  Q 224.45 402.00 223.97 401.39
  L 213.70 388.26
  Q 213.27 387.72 213.92 387.47
  C 224.23 383.54 224.88 369.11 215.48 364.51
  C 210.73 362.19 201.75 363.24 196.25 363.26
  Q 195.75 363.26 195.75 363.76
  L 195.75 401.38
  Q 195.75 402.00 196.37 402.00
  L 203.63 402.00
  Q 204.25 402.00 204.25 401.37
  L 204.25 388.94
  Q 204.25 387.98 204.78 388.78
  Z
  M 196.26 446.50
  Q 196.22 441.15 196.28 435.79
  A 0.54 0.53 0.5 0 0 195.74 435.25
  L 194.60 435.25
  Q 194.21 435.25 194.21 435.65
  L 194.25 458.38
  Q 194.25 459.00 194.88 459.00
  L 195.93 459.00
  Q 196.48 459.00 196.42 458.45
  C 196.00 454.51 195.73 446.02 201.58 447.12
  A 2.65 2.65 0.0 0 1 203.75 449.73
  L 203.75 458.50
  Q 203.75 459.00 204.25 459.00
  L 205.48 459.00
  Q 205.98 459.00 205.99 458.51
  C 206.06 453.43 207.13 439.29 196.78 446.76
  Q 196.26 447.14 196.26 446.50
  Z
  M 265.2902 435.5518
  A 0.27 0.27 0.0 0 0 265.0207 435.2814
  L 263.4807 435.2787
  A 0.27 0.27 0.0 0 0 263.2102 435.5482
  L 263.1698 458.6882
  A 0.27 0.27 0.0 0 0 263.4393 458.9586
  L 264.9793 458.9613
  A 0.27 0.27 0.0 0 0 265.2498 458.6918
  L 265.2902 435.5518
  Z
  M 132.73 439.87
  A 0.34 0.34 0.0 0 1 133.06 439.53
  L 137.77 439.33
  A 0.34 0.34 0.0 0 0 138.09 439.01
  L 138.15 437.60
  A 0.34 0.34 0.0 0 0 137.81 437.25
  L 125.84 437.25
  A 0.34 0.34 0.0 0 0 125.50 437.59
  L 125.50 439.17
  A 0.34 0.34 0.0 0 0 125.84 439.51
  L 130.26 439.48
  A 0.34 0.34 0.0 0 1 130.60 439.82
  L 130.57 458.66
  A 0.34 0.34 0.0 0 0 130.91 459.00
  L 132.45 459.00
  A 0.34 0.34 0.0 0 0 132.79 458.66
  L 132.73 439.87
  Z
  M 327.45 441.21
  A 1.33 1.33 0.0 0 0 326.12 439.88
  A 1.33 1.33 0.0 0 0 324.79 441.21
  A 1.33 1.33 0.0 0 0 326.12 442.54
  A 1.33 1.33 0.0 0 0 327.45 441.21
  Z
  M 149.44 454.55
  A 1.11 1.11 0.0 0 1 150.31 452.75
  L 160.49 452.75
  Q 160.95 452.75 160.96 452.29
  C 161.14 445.99 153.85 442.37 149.26 446.24
  C 140.91 453.27 152.58 464.88 160.06 455.73
  A 0.45 0.45 0.0 0 0 159.71 455.00
  L 158.30 455.00
  A 1.28 1.26 24.8 0 0 157.49 455.29
  Q 153.02 459.01 149.44 454.55
  Z
  M 181.42 454.78
  C 177.97 459.56 170.53 455.40 172.98 449.97
  C 174.45 446.72 179.07 446.14 181.14 449.12
  C 181.78 450.04 182.59 450.33 183.59 449.94
  Q 184.15 449.72 183.87 449.18
  C 178.90 439.42 165.73 447.79 171.63 456.32
  C 173.60 459.16 177.77 460.17 180.88 458.27
  C 181.85 457.68 185.66 454.29 182.44 454.27
  A 1.25 1.24 -71.3 0 0 181.42 454.78
  Z
  M 218.75 446.79
  Q 218.75 446.20 218.75 445.52
  A 0.52 0.52 0.0 0 0 218.23 445.00
  L 217.38 445.00
  Q 216.77 445.00 216.77 445.62
  L 216.71 458.48
  Q 216.71 459.00 217.23 459.00
  L 218.42 459.00
  Q 218.96 459.00 218.90 458.46
  C 218.52 454.60 218.16 447.42 223.36 447.02
  C 227.61 446.70 226.24 455.98 226.26 458.49
  Q 226.26 459.00 226.77 459.00
  L 227.98 459.00
  Q 228.48 459.00 228.48 458.50
  C 228.55 454.15 230.22 444.04 222.54 444.85
  C 220.94 445.01 220.32 445.86 219.37 447.01
  Q 218.75 447.76 218.75 446.79
  Z
  M 252.71 451.94
  A 7.24 7.24 0.0 0 0 245.47 444.70
  A 7.24 7.24 0.0 0 0 238.23 451.94
  A 7.24 7.24 0.0 0 0 245.47 459.18
  A 7.24 7.24 0.0 0 0 252.71 451.94
  Z
  M 289.97 451.94
  A 7.24 7.24 0.0 0 0 282.73 444.70
  A 7.24 7.24 0.0 0 0 275.49 451.94
  A 7.24 7.24 0.0 0 0 282.73 459.18
  A 7.24 7.24 0.0 0 0 289.97 451.94
  Z
  M 311.42 457.73
  C 312.05 464.80 303.95 467.31 301.65 461.45
  A 1.11 1.11 0.0 0 0 299.51 461.83
  Q 299.50 462.28 300.22 463.30
  C 304.59 469.48 313.40 467.08 313.68 459.68
  Q 313.83 455.99 313.72 445.57
  A 0.57 0.57 0.0 0 0 313.15 445.00
  L 312.13 445.00
  Q 311.50 445.00 311.50 445.62
  L 311.50 446.52
  Q 311.50 447.48 310.81 446.81
  C 304.15 440.26 295.65 450.30 301.43 457.00
  Q 305.10 461.26 310.91 457.49
  Q 311.37 457.19 311.42 457.73
  Z
  M 343.28 458.84
  Q 347.34 460.02 351.19 456.00
  A 0.59 0.59 0.0 0 0 350.76 455.00
  L 349.54 455.00
  Q 349.19 455.00 348.91 455.22
  Q 343.72 459.32 340.24 453.77
  A 0.67 0.66 73.9 0 1 340.80 452.75
  L 351.73 452.75
  Q 352.18 452.75 352.21 452.30
  C 352.76 444.19 341.68 441.84 338.26 449.23
  C 336.29 453.50 339.13 457.62 343.28 458.84
  Z
  M 364.37 447.00
  Q 367.26 445.96 368.86 448.28
  A 1.01 1.01 0.0 0 0 370.68 447.90
  C 371.38 444.33 362.98 443.15 361.05 448.38
  A 1.38 1.37 46.5 0 0 361.03 449.29
  C 362.06 452.46 365.46 452.71 368.09 453.65
  A 1.72 1.72 0.0 0 1 369.23 455.39
  C 369.02 458.44 364.07 458.15 363.06 455.40
  A 1.10 1.10 0.0 0 0 360.93 455.83
  C 361.18 461.03 373.53 460.40 371.41 453.91
  C 370.60 451.46 366.70 450.75 364.45 450.09
  A 1.63 1.62 -46.6 0 1 364.37 447.00
  Z
  M 327.25 445.32
  A 0.31 0.31 0.0 0 0 326.94 445.01
  L 325.32 445.01
  A 0.31 0.31 0.0 0 0 325.01 445.32
  L 325.01 458.70
  A 0.31 0.31 0.0 0 0 325.32 459.01
  L 326.94 459.01
  A 0.31 0.31 0.0 0 0 327.25 458.70
  L 327.25 445.32
  Z"
/>
<path fill="#01e1b7" d="
  M 245.99 80.84
  Q 252.96 94.72 261.79 107.70
  C 264.41 111.53 270.94 116.52 268.06 121.39
  Q 267.93 121.62 267.67 121.54
  L 266.61 121.21
  A 0.28 0.27 -4.6 0 0 266.28 121.59
  Q 266.38 121.79 266.47 121.95
  Q 266.71 122.43 266.17 122.43
  L 263.00 122.45
  C 249.63 106.89 223.26 113.64 223.43 135.75
  Q 223.57 154.84 223.36 173.93
  Q 223.24 184.88 216.79 193.57
  Q 211.23 201.07 207.69 203.44
  C 196.94 210.61 187.13 214.75 183.83 228.07
  C 177.77 252.59 183.98 279.02 203.23 296.53
  C 205.02 300.33 208.59 301.51 211.69 303.46
  Q 211.99 303.65 211.77 303.92
  L 211.49 304.26
  A 0.65 0.63 -58.5 0 1 210.74 304.45
  L 207.72 303.18
  Q 207.31 303.01 207.08 303.39
  L 206.80 303.87
  Q 206.51 304.35 205.95 304.39
  L 202.24 304.67
  Q 201.98 304.69 201.79 304.86
  Q 200.39 306.18 201.41 307.22
  Q 201.59 307.40 201.46 307.63
  L 201.25 307.98
  A 0.37 0.36 39.4 0 0 201.30 308.43
  L 201.68 308.81
  Q 201.99 309.11 201.68 309.42
  L 200.89 310.21
  Q 200.47 310.63 200.11 310.15
  Q 198.96 308.60 197.23 308.35
  A 0.42 0.41 -13.6 0 0 196.83 309.00
  L 197.59 310.05
  Q 197.69 310.19 197.52 310.24
  Q 197.36 310.29 197.25 310.42
  Q 197.02 310.68 197.10 311.01
  L 197.41 312.35
  Q 197.44 312.48 197.30 312.49
  Q 196.77 312.51 196.42 312.73
  Q 191.30 309.03 186.99 304.26
  C 158.26 272.45 158.02 229.89 179.03 194.01
  Q 194.73 167.20 208.99 139.59
  C 211.97 133.82 216.68 123.02 221.63 115.15
  C 229.24 103.04 238.08 90.49 244.34 77.67
  A 0.32 0.32 0.0 0 1 244.90 77.65
  Q 245.91 79.32 245.99 80.84
  Z"
/>
<path fill="#09b1aa" d="
  M 245.99 80.84
  Q 256.12 97.52 267.25 113.27
  C 275.15 124.45 279.79 136.93 285.42 149.27
  Q 285.50 151.63 287.04 154.07
  A 1.65 1.65 0.0 0 1 287.27 155.13
  L 286.90 158.42
  A 1.30 1.30 0.0 0 1 286.37 159.34
  Q 285.88 159.70 286.32 160.38
  Q 286.57 160.78 286.24 161.11
  Q 284.94 162.44 285.46 164.16
  Q 285.61 164.66 285.45 165.15
  L 283.09 172.40
  A 0.05 0.05 0.0 0 1 282.99 172.39
  Q 283.00 172.24 283.00 172.09
  A 0.14 0.14 0.0 0 0 282.72 172.05
  Q 280.87 179.23 279.98 190.25
  Q 279.67 194.01 276.99 196.55
  Q 267.53 185.30 267.53 170.50
  Q 267.52 152.65 267.46 134.81
  Q 267.43 128.67 263.00 122.45
  L 266.17 122.43
  Q 266.71 122.43 266.47 121.95
  Q 266.38 121.79 266.28 121.59
  A 0.28 0.27 -4.6 0 1 266.61 121.21
  L 267.67 121.54
  Q 267.93 121.62 268.06 121.39
  C 270.94 116.52 264.41 111.53 261.79 107.70
  Q 252.96 94.72 245.99 80.84
  Z"
/>
<path fill="#fcfefd" d="
  M 263.00 122.45
  Q 267.43 128.67 267.46 134.81
  Q 267.52 152.65 267.53 170.50
  Q 267.53 185.30 276.99 196.55
  C 282.23 203.59 288.51 207.06 297.54 213.31
  C 306.53 221.70 308.55 232.75 308.97 244.51
  C 309.78 267.33 299.05 287.72 280.50 300.85
  Q 260.85 314.40 237.23 312.14
  Q 218.02 309.33 203.23 296.53
  C 183.98 279.02 177.77 252.59 183.83 228.07
  C 187.13 214.75 196.94 210.61 207.69 203.44
  Q 211.23 201.07 216.79 193.57
  Q 223.24 184.88 223.36 173.93
  Q 223.57 154.84 223.43 135.75
  C 223.26 113.64 249.63 106.89 263.00 122.45
  Z
  M 249.56 132.56
  Q 250.33 134.42 250.21 136.41
  Q 250.18 136.97 249.61 136.95
  L 241.22 136.67
  Q 240.59 136.65 240.54 137.28
  L 240.21 141.77
  Q 240.16 142.39 240.78 142.41
  L 248.95 142.76
  Q 249.61 142.79 249.67 143.45
  L 250.00 146.98
  A 0.45 0.44 -2.9 0 1 249.55 147.47
  L 240.39 147.52
  L 233.37 147.74
  Q 232.75 147.76 232.78 148.38
  L 232.97 151.73
  A 0.96 0.96 0.0 0 0 233.58 152.56
  Q 236.69 153.74 240.28 153.51
  L 249.43 154.04
  Q 250.10 154.08 250.02 154.75
  L 249.69 157.74
  Q 249.62 158.36 249.00 158.36
  L 233.59 158.56
  Q 233.00 158.56 233.00 159.16
  L 233.00 163.84
  A 0.61 0.60 1.0 0 0 233.59 164.44
  L 249.41 164.81
  Q 250.00 164.83 250.00 165.41
  L 250.00 169.05
  Q 250.00 169.59 249.46 169.58
  L 240.80 169.49
  Q 240.13 169.48 240.17 170.15
  L 240.46 174.70
  A 0.79 0.77 89.1 0 0 241.20 175.43
  L 249.16 175.80
  Q 249.75 175.83 249.75 176.41
  L 249.75 179.69
  Q 249.75 180.25 249.18 180.25
  Q 245.06 180.28 240.98 180.13
  Q 240.08 180.10 240.19 182.16
  Q 237.33 180.11 233.54 180.87
  A 0.59 0.57 87.5 0 0 233.08 181.39
  L 232.74 185.05
  A 0.56 0.55 4.0 0 0 233.27 185.65
  L 240.25 186.06
  L 248.96 186.51
  Q 249.68 186.54 249.68 187.26
  L 249.87 243.00
  Q 249.68 256.97 249.72 270.93
  C 249.74 276.76 241.23 275.56 241.24 270.75
  Q 241.28 255.64 241.22 240.48
  L 241.23 213.55
  A 0.95 0.94 -0.9 0 0 240.24 212.60
  C 225.59 213.14 209.48 229.20 206.15 242.96
  C 203.69 258.77 208.09 272.35 219.90 281.83
  C 249.09 305.24 288.79 280.80 283.92 245.23
  C 280.22 230.69 270.30 219.82 257.01 214.20
  A 1.73 1.73 0.0 0 1 255.95 212.59
  L 256.16 132.27
  C 255.45 116.90 231.07 118.63 233.11 136.78
  Q 233.18 137.41 233.82 137.44
  L 235.90 137.52
  A 0.62 0.61 -2.0 0 0 236.54 136.84
  L 236.19 133.81
  A 1.16 1.16 0.0 0 1 237.35 132.52
  L 249.56 132.56
  Z
  M 240.83 200.05
  L 240.65 203.73
  A 0.43 0.39 -44.8 0 0 241.47 203.69
  Q 241.59 201.85 241.24 199.99
  L 241.23 194.49
  Q 241.23 194.00 240.74 194.00
  L 233.58 194.00
  A 0.69 0.69 0.0 0 0 232.89 194.66
  L 232.69 199.20
  Q 232.67 199.72 233.20 199.71
  L 239.73 199.52
  A 0.89 0.88 66.6 0 1 240.38 199.78
  Q 240.56 199.95 240.83 200.05
  Z
  M 236.5457 208.5110
  A 3.30 2.93 69.5 0 0 238.1344 204.3939
  A 3.30 2.93 69.5 0 0 234.2343 202.3290
  A 3.30 2.93 69.5 0 0 232.6456 206.4461
  A 3.30 2.93 69.5 0 0 236.5457 208.5110
  Z"
/>
<path fill="#01e1b7" d="
  M 256.16 132.27
  Q 255.53 133.44 253.94 132.90
  Q 253.45 132.74 253.11 132.35
  Q 251.63 130.68 249.56 132.56
  L 237.35 132.52
  A 1.16 1.16 0.0 0 0 236.19 133.81
  L 236.54 136.84
  A 0.62 0.61 -2.0 0 1 235.90 137.52
  L 233.82 137.44
  Q 233.18 137.41 233.11 136.78
  C 231.07 118.63 255.45 116.90 256.16 132.27
  Z"
/>
<path fill="#02b3e5" d="
  M 256.16 132.27
  L 255.95 212.59
  A 1.73 1.73 0.0 0 0 257.01 214.20
  C 270.30 219.82 280.22 230.69 283.92 245.23
  Q 280.51 244.37 277.34 243.74
  C 273.14 242.90 266.43 244.17 263.25 243.00
  C 259.06 241.47 254.49 243.00 250.77 239.79
  Q 250.27 239.36 250.19 240.02
  L 249.87 243.00
  L 249.68 187.26
  Q 249.68 186.54 248.96 186.51
  L 240.25 186.06
  L 240.19 182.16
  Q 240.08 180.10 240.98 180.13
  Q 245.06 180.28 249.18 180.25
  Q 249.75 180.25 249.75 179.69
  L 249.75 176.41
  Q 249.75 175.83 249.16 175.80
  L 241.20 175.43
  A 0.79 0.77 89.1 0 1 240.46 174.70
  L 240.17 170.15
  Q 240.13 169.48 240.80 169.49
  L 249.46 169.58
  Q 250.00 169.59 250.00 169.05
  L 250.00 165.41
  Q 250.00 164.83 249.41 164.81
  L 233.59 164.44
  A 0.61 0.60 1.0 0 1 233.00 163.84
  L 233.00 159.16
  Q 233.00 158.56 233.59 158.56
  L 249.00 158.36
  Q 249.62 158.36 249.69 157.74
  L 250.02 154.75
  Q 250.10 154.08 249.43 154.04
  L 240.28 153.51
  L 240.39 147.52
  L 249.55 147.47
  A 0.45 0.44 -2.9 0 0 250.00 146.98
  L 249.67 143.45
  Q 249.61 142.79 248.95 142.76
  L 240.78 142.41
  Q 240.16 142.39 240.21 141.77
  L 240.54 137.28
  Q 240.59 136.65 241.22 136.67
  L 249.61 136.95
  Q 250.18 136.97 250.21 136.41
  Q 250.33 134.42 249.56 132.56
  Q 251.63 130.68 253.11 132.35
  Q 253.45 132.74 253.94 132.90
  Q 255.53 133.44 256.16 132.27
  Z"
/>
<path fill="#01e1b7" d="
  M 240.39 147.52
  L 240.28 153.51
  Q 236.69 153.74 233.58 152.56
  A 0.96 0.96 0.0 0 1 232.97 151.73
  L 232.78 148.38
  Q 232.75 147.76 233.37 147.74
  L 240.39 147.52
  Z"
/>
<path fill="#19829b" d="
  M 285.42 149.27
  L 305.07 182.87
  Q 304.78 185.59 304.40 188.13
  C 303.73 192.63 301.22 197.34 299.70 201.69
  C 298.65 204.70 299.78 207.30 299.06 209.84
  Q 298.54 211.67 297.54 213.31
  C 288.51 207.06 282.23 203.59 276.99 196.55
  Q 279.67 194.01 279.98 190.25
  Q 280.87 179.23 282.72 172.05
  A 0.14 0.14 0.0 0 1 283.00 172.09
  Q 283.00 172.24 282.99 172.39
  A 0.05 0.05 0.0 0 0 283.09 172.40
  L 285.45 165.15
  Q 285.61 164.66 285.46 164.16
  Q 284.94 162.44 286.24 161.11
  Q 286.57 160.78 286.32 160.38
  Q 285.88 159.70 286.37 159.34
  A 1.30 1.30 0.0 0 0 286.90 158.42
  L 287.27 155.13
  A 1.65 1.65 0.0 0 0 287.04 154.07
  Q 285.50 151.63 285.42 149.27
  Z"
/>
<path fill="#01e1b7" d="
  M 240.19 182.16
  L 240.25 186.06
  L 233.27 185.65
  A 0.56 0.55 4.0 0 1 232.74 185.05
  L 233.08 181.39
  A 0.59 0.57 87.5 0 1 233.54 180.87
  Q 237.33 180.11 240.19 182.16
  Z"
/>
<path fill="#235b7d" d="
  M 305.07 182.87
  Q 312.74 195.66 318.75 208.94
  C 335.89 246.83 324.40 288.46 291.79 313.51
  Q 288.38 316.13 284.91 318.00
  Q 284.47 314.30 282.41 311.03
  C 280.35 307.77 280.39 304.50 280.50 300.85
  C 299.05 287.72 309.78 267.33 308.97 244.51
  C 308.55 232.75 306.53 221.70 297.54 213.31
  Q 298.54 211.67 299.06 209.84
  C 299.78 207.30 298.65 204.70 299.70 201.69
  C 301.22 197.34 303.73 192.63 304.40 188.13
  Q 304.78 185.59 305.07 182.87
  Z"
/>
<path fill="#02b3e5" d="
  M 241.24 199.99
  Q 240.92 199.99 240.83 200.05
  Q 240.56 199.95 240.38 199.78
  A 0.89 0.88 66.6 0 0 239.73 199.52
  L 233.20 199.71
  Q 232.67 199.72 232.69 199.20
  L 232.89 194.66
  A 0.69 0.69 0.0 0 1 233.58 194.00
  L 240.74 194.00
  Q 241.23 194.00 241.23 194.49
  L 241.24 199.99
  Z"
/>
<path fill="#01e1b7" d="
  M 240.83 200.05
  Q 240.92 199.99 241.24 199.99
  Q 241.59 201.85 241.47 203.69
  A 0.43 0.39 -44.8 0 1 240.65 203.73
  L 240.83 200.05
  Z"
/>
<path fill="#09b1aa" d="
  M 236.5457 208.5110
  A 3.30 2.93 69.5 0 1 232.6456 206.4461
  A 3.30 2.93 69.5 0 1 234.2343 202.3290
  A 3.30 2.93 69.5 0 1 238.1344 204.3939
  A 3.30 2.93 69.5 0 1 236.5457 208.5110
  Z
  M 236.4343 204.9588
  A 1.20 1.05 -32.3 0 0 234.8589 204.7125
  A 1.20 1.05 -32.3 0 0 234.4057 206.2412
  A 1.20 1.05 -32.3 0 0 235.9811 206.4875
  A 1.20 1.05 -32.3 0 0 236.4343 204.9588
  Z"
/>
<ellipse fill="#01e1b7" cx="0.00" cy="0.00" transform="translate(235.42,205.60) rotate(-32.3)" rx="1.20" ry="1.05"/>
<path fill="#02b3e5" d="
  M 241.22 240.48
  L 240.86 243.23
  Q 240.77 243.90 240.14 243.67
  C 237.60 242.77 235.34 241.64 232.56 241.87
  C 228.48 242.21 224.68 242.79 220.47 242.68
  Q 214.25 242.51 208.04 243.17
  A 0.94 0.94 0.0 0 1 207.27 242.90
  L 207.04 242.67
  Q 206.81 242.43 206.59 242.69
  Q 206.37 242.95 206.15 242.96
  C 209.48 229.20 225.59 213.14 240.24 212.60
  A 0.95 0.94 -0.9 0 1 241.23 213.55
  L 241.22 240.48
  Z"
/>
<path fill="#0192c4" d="
  M 283.92 245.23
  C 288.79 280.80 249.09 305.24 219.90 281.83
  C 208.09 272.35 203.69 258.77 206.15 242.96
  Q 206.37 242.95 206.59 242.69
  Q 206.81 242.43 207.04 242.67
  L 207.27 242.90
  A 0.94 0.94 0.0 0 0 208.04 243.17
  Q 214.25 242.51 220.47 242.68
  C 224.68 242.79 228.48 242.21 232.56 241.87
  C 235.34 241.64 237.60 242.77 240.14 243.67
  Q 240.77 243.90 240.86 243.23
  L 241.22 240.48
  Q 241.28 255.64 241.24 270.75
  C 241.23 275.56 249.74 276.76 249.72 270.93
  Q 249.68 256.97 249.87 243.00
  L 250.19 240.02
  Q 250.27 239.36 250.77 239.79
  C 254.49 243.00 259.06 241.47 263.25 243.00
  C 266.43 244.17 273.14 242.90 277.34 243.74
  Q 280.51 244.37 283.92 245.23
  Z
  M 273.37 258.10
  C 271.51 274.23 258.65 283.21 243.15 283.34
  Q 242.59 283.34 242.65 283.89
  L 242.78 285.19
  Q 242.83 285.67 243.31 285.64
  C 260.38 284.51 274.51 274.13 275.09 255.89
  A 0.79 0.79 0.0 0 0 273.63 255.44
  C 273.41 255.79 273.42 257.61 273.37 258.10
  Z"
/>
<path fill="#fcfefd" d="
  M 273.37 258.10
  C 273.42 257.61 273.41 255.79 273.63 255.44
  A 0.79 0.79 0.0 0 1 275.09 255.89
  C 274.51 274.13 260.38 284.51 243.31 285.64
  Q 242.83 285.67 242.78 285.19
  L 242.65 283.89
  Q 242.59 283.34 243.15 283.34
  C 258.65 283.21 271.51 274.23 273.37 258.10
  Z"
/>
<path fill="#09b1aa" d="
  M 203.23 296.53
  Q 218.02 309.33 237.23 312.14
  L 237.59 319.17
  Q 237.61 319.66 237.88 320.06
  Q 240.62 324.21 242.02 329.37
  Q 216.61 328.10 196.42 312.73
  Q 196.77 312.51 197.30 312.49
  Q 197.44 312.48 197.41 312.35
  L 197.10 311.01
  Q 197.02 310.68 197.25 310.42
  Q 197.36 310.29 197.52 310.24
  Q 197.69 310.19 197.59 310.05
  L 196.83 309.00
  A 0.42 0.41 -13.6 0 1 197.23 308.35
  Q 198.96 308.60 200.11 310.15
  Q 200.47 310.63 200.89 310.21
  L 201.68 309.42
  Q 201.99 309.11 201.68 308.81
  L 201.30 308.43
  A 0.37 0.36 39.4 0 1 201.25 307.98
  L 201.46 307.63
  Q 201.59 307.40 201.41 307.22
  Q 200.39 306.18 201.79 304.86
  Q 201.98 304.69 202.24 304.67
  L 205.95 304.39
  Q 206.51 304.35 206.80 303.87
  L 207.08 303.39
  Q 207.31 303.01 207.72 303.18
  L 210.74 304.45
  A 0.65 0.63 -58.5 0 0 211.49 304.26
  L 211.77 303.92
  Q 211.99 303.65 211.69 303.46
  C 208.59 301.51 205.02 300.33 203.23 296.53
  Z"
/>
<path fill="#19829b" d="
  M 280.50 300.85
  C 280.39 304.50 280.35 307.77 282.41 311.03
  Q 284.47 314.30 284.91 318.00
  Q 265.02 330.17 242.02 329.37
  Q 240.62 324.21 237.88 320.06
  Q 237.61 319.66 237.59 319.17
  L 237.23 312.14
  Q 260.85 314.40 280.50 300.85
  Z"
/>
<path fill="#000000" d="
  M 268.23 387.75
  L 259.63 387.75
  Q 259.00 387.75 259.00 387.13
  L 259.00 381.75
  Q 259.00 381.25 259.50 381.25
  L 277.51 381.25
  Q 278.08 381.25 278.06 381.83
  Q 277.68 392.79 270.21 398.35
  C 257.36 407.91 237.84 399.20 238.20 382.38
  C 238.68 360.33 267.83 355.34 276.88 375.60
  Q 277.17 376.25 276.46 376.25
  L 268.06 376.25
  Q 267.59 376.25 267.36 375.83
  C 264.28 370.14 256.57 369.10 251.83 372.69
  C 241.81 380.28 248.15 396.94 260.99 394.48
  Q 266.50 393.43 268.55 388.22
  Q 268.74 387.75 268.23 387.75
  Z"
/>
<path fill="#000000" d="
  M 126.60 365.90
  C 134.06 372.18 131.99 384.68 122.49 387.53
  C 119.98 388.28 116.81 387.94 113.92 388.02
  Q 113.25 388.04 113.25 388.71
  L 113.25 401.38
  Q 113.25 402.00 112.63 402.00
  L 105.37 402.00
  Q 104.75 402.00 104.75 401.37
  L 104.75 363.75
  Q 104.75 363.18 105.32 363.19
  C 111.56 363.25 121.71 361.78 126.60 365.90
  Z
  M 113.23 370.32
  L 113.27 380.90
  A 0.41 0.41 0.0 0 0 113.68 381.31
  L 117.26 381.29
  A 5.55 5.43 -0.2 0 0 122.79 375.84
  L 122.79 375.30
  A 5.55 5.43 -0.2 0 0 117.22 369.89
  L 113.64 369.91
  A 0.41 0.41 0.0 0 0 113.23 370.32
  Z"
/>
<path fill="#000000" d="
  M 171.69 363.18
  Q 174.56 362.76 177.70 363.08
  Q 178.22 363.13 178.22 363.65
  Q 178.31 374.35 178.24 384.99
  C 178.16 397.13 171.61 404.22 159.09 402.31
  C 149.69 400.88 146.38 395.26 146.30 386.35
  Q 146.20 374.99 145.95 363.60
  Q 145.93 362.96 146.57 362.97
  L 154.24 363.08
  Q 154.78 363.09 154.77 363.63
  Q 154.51 375.16 154.83 386.65
  C 155.11 396.90 169.20 396.22 169.52 387.49
  Q 169.95 375.62 169.69 363.72
  Q 169.68 363.22 170.15 363.04
  Q 170.57 362.88 170.96 363.07
  Q 171.30 363.24 171.69 363.18
  Z"
/>
<path fill="#000000" d="
  M 310.89 376.13
  L 318.91 363.32
  A 0.32 0.32 0.0 0 1 319.18 363.17
  L 328.55 363.20
  A 0.32 0.32 0.0 0 1 328.81 363.70
  L 314.85 383.44
  A 0.32 0.32 0.0 0 0 314.79 383.62
  L 314.77 401.68
  A 0.32 0.32 0.0 0 1 314.45 402.00
  L 306.57 402.00
  A 0.32 0.32 0.0 0 1 306.25 401.68
  L 306.25 383.42
  A 0.32 0.32 0.0 0 0 306.19 383.24
  L 292.37 363.65
  A 0.32 0.32 0.0 0 1 292.64 363.15
  L 302.12 363.30
  A 0.32 0.32 0.0 0 1 302.38 363.45
  L 310.35 376.13
  A 0.32 0.32 0.0 0 0 310.89 376.13
  Z"
/>
<rect fill="#000000" x="344.75" y="363.10" width="8.50" height="38.90" rx="0.42"/>
<path fill="#000000" d="
  M 380.65 394.25
  L 393.85 394.25
  A 0.40 0.40 0.0 0 1 394.25 394.65
  L 394.25 401.60
  A 0.40 0.40 0.0 0 1 393.85 402.00
  L 372.15 402.00
  A 0.40 0.40 0.0 0 1 371.75 401.60
  L 371.75 363.48
  A 0.40 0.40 0.0 0 1 372.14 363.08
  L 379.84 362.98
  A 0.40 0.40 0.0 0 1 380.25 363.38
  L 380.25 393.85
  A 0.40 0.40 0.0 0 0 380.65 394.25
  Z"
/>
<path fill="#000000" d="
  M 204.25 388.94
  L 204.25 401.37
  Q 204.25 402.00 203.63 402.00
  L 196.37 402.00
  Q 195.75 402.00 195.75 401.38
  L 195.75 363.76
  Q 195.75 363.26 196.25 363.26
  C 201.75 363.24 210.73 362.19 215.48 364.51
  C 224.88 369.11 224.23 383.54 213.92 387.47
  Q 213.27 387.72 213.70 388.26
  L 223.97 401.39
  Q 224.45 402.00 223.67 402.00
  L 214.11 402.00
  Q 213.61 402.00 213.33 401.58
  L 204.78 388.78
  Q 204.25 387.98 204.25 388.94
  Z
  M 204.23 370.26
  L 204.27 381.00
  A 0.27 0.27 0.0 0 0 204.54 381.27
  L 208.66 381.25
  A 5.34 5.13 89.8 0 0 213.77 375.89
  L 213.77 375.29
  A 5.34 5.13 89.8 0 0 208.62 369.97
  L 204.50 369.99
  A 0.27 0.27 0.0 0 0 204.23 370.26
  Z"
/>
<path fill="#fcfefd" d="
  M 113.23 370.32
  A 0.41 0.41 0.0 0 1 113.64 369.91
  L 117.22 369.89
  A 5.55 5.43 -0.2 0 1 122.79 375.30
  L 122.79 375.84
  A 5.55 5.43 -0.2 0 1 117.26 381.29
  L 113.68 381.31
  A 0.41 0.41 0.0 0 1 113.27 380.90
  L 113.23 370.32
  Z"
/>
<path fill="#fcfefd" d="
  M 204.23 370.26
  A 0.27 0.27 0.0 0 1 204.50 369.99
  L 208.62 369.97
  A 5.34 5.13 89.8 0 1 213.77 375.29
  L 213.77 375.89
  A 5.34 5.13 89.8 0 1 208.66 381.25
  L 204.54 381.27
  A 0.27 0.27 0.0 0 1 204.27 381.00
  L 204.23 370.26
  Z"
/>
<path fill="#000000" d="
  M 196.78 446.76
  C 207.13 439.29 206.06 453.43 205.99 458.51
  Q 205.98 459.00 205.48 459.00
  L 204.25 459.00
  Q 203.75 459.00 203.75 458.50
  L 203.75 449.73
  A 2.65 2.65 0.0 0 0 201.58 447.12
  C 195.73 446.02 196.00 454.51 196.42 458.45
  Q 196.48 459.00 195.93 459.00
  L 194.88 459.00
  Q 194.25 459.00 194.25 458.38
  L 194.21 435.65
  Q 194.21 435.25 194.60 435.25
  L 195.74 435.25
  A 0.54 0.53 0.5 0 1 196.28 435.79
  Q 196.22 441.15 196.26 446.50
  Q 196.26 447.14 196.78 446.76
  Z"
/>
<rect fill="#000000" x="-1.04" y="-11.84" transform="translate(264.23,447.12) rotate(0.1)" width="2.08" height="23.68" rx="0.27"/>
<path fill="#000000" d="
  M 132.73 439.87
  L 132.79 458.66
  A 0.34 0.34 0.0 0 1 132.45 459.00
  L 130.91 459.00
  A 0.34 0.34 0.0 0 1 130.57 458.66
  L 130.60 439.82
  A 0.34 0.34 0.0 0 0 130.26 439.48
  L 125.84 439.51
  A 0.34 0.34 0.0 0 1 125.50 439.17
  L 125.50 437.59
  A 0.34 0.34 0.0 0 1 125.84 437.25
  L 137.81 437.25
  A 0.34 0.34 0.0 0 1 138.15 437.60
  L 138.09 439.01
  A 0.34 0.34 0.0 0 1 137.77 439.33
  L 133.06 439.53
  A 0.34 0.34 0.0 0 0 132.73 439.87
  Z"
/>
<circle fill="#000000" cx="326.12" cy="441.21" r="1.33"/>
<path fill="#000000" d="
  M 149.44 454.55
  Q 153.02 459.01 157.49 455.29
  A 1.28 1.26 24.8 0 1 158.30 455.00
  L 159.71 455.00
  A 0.45 0.45 0.0 0 1 160.06 455.73
  C 152.58 464.88 140.91 453.27 149.26 446.24
  C 153.85 442.37 161.14 445.99 160.96 452.29
  Q 160.95 452.75 160.49 452.75
  L 150.31 452.75
  A 1.11 1.11 0.0 0 0 149.44 454.55
  Z
  M 149.26 450.99
  L 158.24 451.03
  A 0.15 0.15 0.0 0 0 158.39 450.88
  L 158.39 450.79
  A 4.52 3.72 0.2 0 0 153.89 447.05
  L 153.65 447.05
  A 4.52 3.72 0.2 0 0 149.11 450.75
  L 149.11 450.84
  A 0.15 0.15 0.0 0 0 149.26 450.99
  Z"
/>
<path fill="#000000" d="
  M 172.98 449.97
  C 170.53 455.40 177.97 459.56 181.42 454.78
  A 1.25 1.24 -71.3 0 1 182.44 454.27
  C 185.66 454.29 181.85 457.68 180.88 458.27
  C 177.77 460.17 173.60 459.16 171.63 456.32
  C 165.73 447.79 178.90 439.42 183.87 449.18
  Q 184.15 449.72 183.59 449.94
  C 182.59 450.33 181.78 450.04 181.14 449.12
  C 179.07 446.14 174.45 446.72 172.98 449.97
  Z"
/>
<path fill="#000000" d="
  M 219.37 447.01
  C 220.32 445.86 220.94 445.01 222.54 444.85
  C 230.22 444.04 228.55 454.15 228.48 458.50
  Q 228.48 459.00 227.98 459.00
  L 226.77 459.00
  Q 226.26 459.00 226.26 458.49
  C 226.24 455.98 227.61 446.70 223.36 447.02
  C 218.16 447.42 218.52 454.60 218.90 458.46
  Q 218.96 459.00 218.42 459.00
  L 217.23 459.00
  Q 216.71 459.00 216.71 458.48
  L 216.77 445.62
  Q 216.77 445.00 217.38 445.00
  L 218.23 445.00
  A 0.52 0.52 0.0 0 1 218.75 445.52
  Q 218.75 446.20 218.75 446.79
  Q 218.75 447.76 219.37 447.01
  Z"
/>
<path fill="#000000" d="
  M 252.71 451.94
  A 7.24 7.24 0.0 0 1 245.47 459.18
  A 7.24 7.24 0.0 0 1 238.23 451.94
  A 7.24 7.24 0.0 0 1 245.47 444.70
  A 7.24 7.24 0.0 0 1 252.71 451.94
  Z
  M 250.44 451.93
  A 4.96 4.96 0.0 0 0 245.48 446.97
  A 4.96 4.96 0.0 0 0 240.52 451.93
  A 4.96 4.96 0.0 0 0 245.48 456.89
  A 4.96 4.96 0.0 0 0 250.44 451.93
  Z"
/>
<path fill="#000000" d="
  M 289.97 451.94
  A 7.24 7.24 0.0 0 1 282.73 459.18
  A 7.24 7.24 0.0 0 1 275.49 451.94
  A 7.24 7.24 0.0 0 1 282.73 444.70
  A 7.24 7.24 0.0 0 1 289.97 451.94
  Z
  M 287.69 451.93
  A 4.96 4.96 0.0 0 0 282.73 446.97
  A 4.96 4.96 0.0 0 0 277.77 451.93
  A 4.96 4.96 0.0 0 0 282.73 456.89
  A 4.96 4.96 0.0 0 0 287.69 451.93
  Z"
/>
<path fill="#000000" d="
  M 310.91 457.49
  Q 305.10 461.26 301.43 457.00
  C 295.65 450.30 304.15 440.26 310.81 446.81
  Q 311.50 447.48 311.50 446.52
  L 311.50 445.62
  Q 311.50 445.00 312.13 445.00
  L 313.15 445.00
  A 0.57 0.57 0.0 0 1 313.72 445.57
  Q 313.83 455.99 313.68 459.68
  C 313.40 467.08 304.59 469.48 300.22 463.30
  Q 299.50 462.28 299.51 461.83
  A 1.11 1.11 0.0 0 1 301.65 461.45
  C 303.95 467.31 312.05 464.80 311.42 457.73
  Q 311.37 457.19 310.91 457.49
  Z
  M 311.40 452.01
  A 4.89 4.89 0.0 0 0 306.51 447.12
  A 4.89 4.89 0.0 0 0 301.62 452.01
  A 4.89 4.89 0.0 0 0 306.51 456.90
  A 4.89 4.89 0.0 0 0 311.40 452.01
  Z"
/>
<path fill="#000000" d="
  M 343.28 458.84
  C 339.13 457.62 336.29 453.50 338.26 449.23
  C 341.68 441.84 352.76 444.19 352.21 452.30
  Q 352.18 452.75 351.73 452.75
  L 340.80 452.75
  A 0.67 0.66 73.9 0 0 340.24 453.77
  Q 343.72 459.32 348.91 455.22
  Q 349.19 455.00 349.54 455.00
  L 350.76 455.00
  A 0.59 0.59 0.0 0 1 351.19 456.00
  Q 347.34 460.02 343.28 458.84
  Z
  M 340.45 451.00
  L 349.49 451.00
  A 0.14 0.14 0.0 0 0 349.63 450.86
  L 349.63 450.77
  A 4.53 3.73 0.0 0 0 345.10 447.04
  L 344.84 447.04
  A 4.53 3.73 0.0 0 0 340.31 450.77
  L 340.31 450.86
  A 0.14 0.14 0.0 0 0 340.45 451.00
  Z"
/>
<path fill="#000000" d="
  M 364.37 447.00
  A 1.63 1.62 -46.6 0 0 364.45 450.09
  C 366.70 450.75 370.60 451.46 371.41 453.91
  C 373.53 460.40 361.18 461.03 360.93 455.83
  A 1.10 1.10 0.0 0 1 363.06 455.40
  C 364.07 458.15 369.02 458.44 369.23 455.39
  A 1.72 1.72 0.0 0 0 368.09 453.65
  C 365.46 452.71 362.06 452.46 361.03 449.29
  A 1.38 1.37 46.5 0 1 361.05 448.38
  C 362.98 443.15 371.38 444.33 370.68 447.90
  A 1.01 1.01 0.0 0 1 368.86 448.28
  Q 367.26 445.96 364.37 447.00
  Z"
/>
<rect fill="#000000" x="325.01" y="445.01" width="2.24" height="14.00" rx="0.31"/>
<path fill="#fcfefd" d="
  M 149.26 450.99
  A 0.15 0.15 0.0 0 1 149.11 450.84
  L 149.11 450.75
  A 4.52 3.72 0.2 0 1 153.65 447.05
  L 153.89 447.05
  A 4.52 3.72 0.2 0 1 158.39 450.79
  L 158.39 450.88
  A 0.15 0.15 0.0 0 1 158.24 451.03
  L 149.26 450.99
  Z"
/>
<circle fill="#fcfefd" cx="245.48" cy="451.93" r="4.96"/>
<circle fill="#fcfefd" cx="282.73" cy="451.93" r="4.96"/>
<circle fill="#fcfefd" cx="306.51" cy="452.01" r="4.89"/>
<path fill="#fcfefd" d="
  M 340.45 451.00
  A 0.14 0.14 0.0 0 1 340.31 450.86
  L 340.31 450.77
  A 4.53 3.73 -0.0 0 1 344.84 447.04
  L 345.10 447.04
  A 4.53 3.73 -0.0 0 1 349.63 450.77
  L 349.63 450.86
  A 0.14 0.14 0.0 0 1 349.49 451.00
  L 340.45 451.00
  Z"
/>
</svg>
