<?xml version="1.0" encoding="utf-8"?>
<svg viewBox="0 0 500 500" xmlns="http://www.w3.org/2000/svg">
  <defs>
    <linearGradient id="c07350d9-0c50-4d35-b63a-3c71f5ac29f1-827" x1="304.32" y1="452.8" x2="304.32" y2="148.23" gradientUnits="userSpaceOnUse" gradientTransform="matrix(0.77162, 0, 0, 0.77162, 14.451007, 58.091091)">
      <stop offset="0" stop-color="gray" stop-opacity="0.25"/>
      <stop offset="0.54" stop-color="gray" stop-opacity="0.12"/>
      <stop offset="1" stop-color="gray" stop-opacity="0.1"/>
    </linearGradient>
  </defs>
  <title>broadcast</title>
  <path d="M 438.951 119.344 C 452.763 130.339 461.546 146.446 463.31 164.012 C 463.577 166.698 465.876 168.72 468.574 168.642 L 476.474 168.411 C 479.454 168.326 481.742 165.738 481.459 162.771 C 477.245 118.231 438.802 84.848 394.112 86.92 C 391.134 87.057 388.891 89.682 389.22 92.646 L 390.1 100.5 C 390.392 103.172 392.698 105.165 395.384 105.069 C 411.154 104.417 426.626 109.486 438.951 119.344 Z" fill="#11c3a9" style=""/>
  <path d="M 432.647 127.245 C 420.544 117.557 405.395 112.482 389.899 112.925 C 386.892 113.017 384.604 115.659 384.945 118.649 L 385.601 124.505 C 385.896 127.143 388.148 129.122 390.802 129.074 C 416.105 128.628 437.669 147.34 440.796 172.455 C 441.109 175.099 443.386 177.068 446.049 176.999 L 451.938 176.83 C 454.939 176.752 457.235 174.128 456.915 171.142 C 454.975 153.866 446.244 138.074 432.647 127.245 Z" fill="#11c3a9" style=""/>
  <path d="M 408.062 158.047 C 415.173 163.713 419.895 171.844 421.297 180.825 C 421.669 183.425 423.925 185.337 426.551 185.279 L 429.399 185.193 C 432.492 185.099 434.807 182.321 434.344 179.26 C 430.779 155.006 409.998 137.017 385.486 136.96 C 382.44 136.994 380.097 139.661 380.455 142.685 L 380.771 145.525 C 381.083 148.131 383.293 150.095 385.916 150.1 C 393.978 150.212 401.77 153.008 408.062 158.047 Z" fill="#11c3a9" style=""/>
  <path d="M 56.983 119.344 C 43.171 130.339 34.388 146.446 32.623 164.012 C 32.357 166.698 30.058 168.72 27.361 168.642 L 19.459 168.411 C 16.479 168.326 14.192 165.738 14.475 162.771 C 18.689 118.231 57.132 84.848 101.823 86.92 C 104.801 87.057 107.042 89.682 106.716 92.646 L 105.835 100.486 C 105.54 103.157 103.236 105.15 100.549 105.053 C 84.779 104.406 69.305 109.48 56.983 119.344 Z" fill="#11c3a9" style=""/>
  <path d="M 63.288 127.245 C 75.39 117.557 90.539 112.482 106.034 112.925 C 109.043 113.017 111.329 115.659 110.989 118.649 L 110.333 124.505 C 110.038 127.143 107.785 129.122 105.131 129.074 C 79.828 128.628 58.263 147.34 55.139 172.455 C 54.825 175.099 52.547 177.068 49.885 176.999 L 43.997 176.83 C 40.994 176.752 38.699 174.128 39.02 171.142 C 40.959 153.866 49.689 138.074 63.288 127.245 Z" fill="#11c3a9" style=""/>
  <path d="M 87.872 158.047 C 80.76 163.713 76.037 171.844 74.638 180.825 C 74.265 183.425 72.008 185.337 69.384 185.279 L 66.537 185.193 C 63.442 185.099 61.126 182.321 61.59 179.26 C 65.155 155.006 85.935 137.017 110.449 136.96 C 113.494 136.994 115.837 139.661 115.48 142.685 L 115.165 145.525 C 114.851 148.131 112.642 150.095 110.018 150.1 C 101.956 150.212 94.164 153.008 87.872 158.047 Z" fill="#11c3a9" style=""/>
  <rect x="107.786" y="172.47" width="282.975" height="235.003" rx="44.36" ry="44.36" fill="url(#c07350d9-0c50-4d35-b63a-3c71f5ac29f1-827)" style=""/>
  <rect x="111.245" y="175.927" width="276.479" height="228.098" rx="44.36" ry="44.36" fill="#fff" style=""/>
  <path d="M 262.22 270.558 C 264.241 270.561 265.88 272.201 265.885 274.224 L 265.885 305.728 C 265.88 307.751 264.241 309.388 262.22 309.394 L 233.715 309.394 C 231.693 309.388 230.054 307.751 230.051 305.728 L 230.051 274.224 C 230.054 272.201 231.693 270.561 233.715 270.558 L 262.226 270.558 M 262.226 269.014 L 233.715 269.014 C 230.838 269.014 228.507 271.347 228.507 274.224 L 228.507 305.728 C 228.507 308.605 230.838 310.937 233.715 310.937 L 262.226 310.937 C 265.103 310.937 267.435 308.605 267.435 305.728 L 267.435 274.224 C 267.435 271.347 265.103 269.014 262.226 269.014 Z" fill="#e0e0e0" style=""/>
  <line x1="247.967" y1="280.644" x2="247.967" y2="289.485" fill="none" stroke="#6c63ff" stroke-linecap="round" stroke-miterlimit="10" stroke-width="2" style=""/>
  <path d="M 251.672 284.517 C 257.012 287.365 257.265 294.928 252.126 298.127 C 246.989 301.327 240.314 297.767 240.111 291.718 C 240.009 288.667 241.681 285.831 244.403 284.448" fill="none" stroke="#6c63ff" stroke-linecap="round" stroke-miterlimit="10" stroke-width="2" style=""/>
</svg>